<?xml version="1.0" encoding="UTF-8"?><svg xmlns="http://www.w3.org/2000/svg" xmlns:xlink="http://www.w3.org/1999/xlink" stroke-dasharray="none" shape-rendering="auto" font-family="'Dialog'" text-rendering="auto" width="1064.000000pt" fill-opacity="1" contentScriptType="text/ecmascript" color-rendering="auto" color-interpolation="auto" preserveAspectRatio="xMidYMid meet" font-size="12px" viewBox="0 0 1064.000000 592.000000" fill="black" stroke="black" image-rendering="auto" stroke-miterlimit="10" zoomAndPan="magnify" version="1.0" stroke-linecap="square" stroke-linejoin="miter" contentStyleType="text/css" font-style="normal" stroke-width="1" height="592.000000pt" stroke-dashoffset="0" font-weight="normal" stroke-opacity="1">

<g fill="#000000" stroke="none" transform="translate(0.000000,592.000000) scale(0.100000,-0.100000)">
<path d="M905 5075 c-82 -29 -127 -117 -106 -208 15 -66 38 -92 134 -157 l82 -55 0 -45 c0 -44 -1 -45 -34 -48 -40 -4 -51 9 -51 61 l0 37 -70 0 -70 0 0 -59 c0 -105 64 -162 183 -163 109 0 163 39 188 136 9 37 9 60 0 101 -15 69 -37 95 -114 141 -89 53 -107 72 -107 110 0 62 76 54 82 -9 l3 -32 64 -3 c35 -2 68 1 74 7 6 6 5 28 -3 61 -16 66 -61 113 -123 129 -58 14 -82 13 -132 -4z"/>
<path d="M3881 5075 c-51 -16 -88 -48 -107 -92 -18 -41 -20 -383 -3 -434 26 -78 86 -111 195 -111 84 1 131 24 164 83 23 41 25 56 28 208 5 199 -5 257 -53 305 -52 52 -138 68 -224 41z m107 -117 c9 -9 12 -68 12 -205 0 -180 -1 -193 -19 -203 -27 -14 -37 -13 -55 6 -24 23 -24 375 0 398 18 19 45 21 62 4z"/>
<path d="M1242 4818 c4 -296 8 -315 91 -356 79 -40 208 -30 255 21 47 50 52 81 52 342 l0 245 -75 0 -75 0 0 -240 c0 -226 -1 -241 -20 -260 -15 -15 -25 -17 -42 -11 -23 8 -23 8 -26 260 l-2 251 -81 0 -80 0 3 -252z"/>
<path d="M1720 4761 l0 -311 75 0 75 0 0 119 0 119 70 4 c74 4 105 19 144 72 32 43 36 171 6 224 -38 67 -65 77 -227 80 l-143 4 0 -311z m230 180 c16 -30 12 -107 -6 -125 -18 -19 -28 -20 -55 -6 -15 9 -19 22 -19 68 0 32 5 63 12 70 18 18 56 14 68 -7z"/>
<path d="M2190 4760 l0 -310 175 0 175 0 0 65 0 65 -95 0 -95 0 0 60 0 59 88 3 87 3 0 65 0 65 -87 3 -88 3 0 49 0 50 90 0 90 0 0 65 0 65 -170 0 -170 0 0 -310z"/>
<path d="M2620 4760 l0 -310 75 0 75 0 0 89 c0 72 4 93 19 112 16 21 22 22 45 11 26 -11 26 -13 26 -112 l0 -101 78 3 77 3 3 85 c4 116 -5 167 -34 197 l-25 24 25 29 c43 51 46 152 7 217 -32 52 -72 63 -230 63 l-141 0 0 -310z m229 186 c19 -22 10 -126 -11 -140 -33 -20 -53 4 -56 69 -2 32 -1 64 2 71 7 18 50 18 65 0z"/>
<path d="M3110 4760 l0 -311 72 3 73 3 -2 195 -2 195 34 -160 c19 -88 39 -176 43 -195 8 -34 9 -35 65 -38 52 -3 57 -1 62 20 3 13 21 100 40 193 20 94 38 175 40 180 3 6 2 -81 -1 -193 l-6 -203 74 3 73 3 3 308 2 308 -107 -3 -107 -3 -37 -170 c-21 -93 -38 -167 -38 -164 -4 24 -62 308 -67 322 -5 15 -19 17 -110 17 l-104 0 0 -310z"/>
<path d="M4230 4760 l0 -310 75 0 74 0 -4 148 -5 147 51 -148 51 -148 76 3 77 3 3 308 2 307 -76 0 -76 0 6 -152 6 -153 -51 153 -50 152 -79 0 -80 0 0 -310z"/>
<path d="M4700 4760 l0 -311 78 3 77 3 5 87 c7 123 19 126 59 15 19 -50 37 -96 41 -100 4 -4 41 -7 83 -5 l75 3 -69 172 -70 172 66 130 c36 72 65 133 65 136 0 3 -35 5 -78 5 l-78 0 -45 -107 -44 -106 -3 106 -3 107 -79 0 -80 0 0 -310z"/>
<path d="M5182 4763 l3 -308 173 -3 172 -2 0 65 0 65 -95 0 -95 0 0 60 0 59 88 3 87 3 0 65 0 65 -87 3 -88 3 0 49 0 50 90 0 90 0 0 65 0 65 -170 0 -170 0 2 -307z"/>
<path d="M5593 5058 c3 -7 33 -80 68 -163 l63 -150 5 -145 6 -145 75 0 75 0 6 145 5 145 67 155 c37 85 67 158 67 162 0 5 -33 8 -74 8 l-74 0 -34 -97 -35 -96 -16 44 c-9 24 -25 67 -35 94 l-18 50 -78 3 c-61 2 -77 0 -73 -10z"/>
<path d="M6184 4615 c-14 -22 -15 -28 -2 -47 8 -12 32 -27 54 -33 32 -9 39 -15 39 -35 0 -21 -5 -26 -33 -28 -27 -3 -35 1 -39 17 -6 23 -33 29 -33 8 0 -46 87 -65 124 -28 16 17 18 26 10 48 -7 21 -20 30 -57 41 -41 11 -48 17 -45 35 4 31 52 36 70 8 16 -26 28 -27 28 -3 0 28 -21 42 -62 42 -29 0 -41 -6 -54 -25z"/>
<path d="M6914 4627 c-3 -8 -4 -49 -2 -93 l3 -79 63 -3 c38 -2 62 1 62 8 0 5 -22 10 -50 10 l-50 0 0 85 c0 52 -4 85 -10 85 -6 0 -13 -6 -16 -13z"/>
<path d="M7057 4633 c-12 -11 -8 -23 8 -23 8 0 15 7 15 15 0 16 -12 20 -23 8z"/>
<path d="M7123 4628 c-21 -34 -31 -58 -23 -58 5 0 10 -26 12 -57 4 -81 28 -85 28 -5 0 39 5 62 13 66 10 5 10 7 0 12 -15 7 -17 34 -3 34 6 0 10 5 10 10 0 14 -27 12 -37 -2z"/>
<path d="M7397 4622 c-33 -37 -14 -68 52 -87 29 -9 36 -16 36 -35 0 -21 -5 -26 -32 -28 -24 -2 -34 2 -43 17 -12 24 -30 28 -30 8 0 -47 91 -66 122 -26 33 40 15 71 -53 89 -33 9 -40 15 -37 33 4 31 52 36 70 8 15 -24 28 -27 28 -7 0 43 -82 63 -113 28z"/>
<path d="M8120 4545 c0 -78 3 -95 15 -95 12 0 15 14 16 68 l0 67 23 -63 c13 -35 26 -66 29 -69 12 -11 26 9 44 60 l18 52 5 -54 c3 -31 10 -56 18 -59 9 -3 12 20 12 93 0 85 -2 96 -17 93 -10 -2 -26 -30 -43 -77 l-27 -75 -29 77 c-21 56 -33 77 -46 77 -16 0 -18 -11 -18 -95z"/>
<path d="M6330 4531 c0 -69 11 -82 69 -79 l41 1 0 69 c0 39 -4 68 -10 68 -5 0 -10 -19 -10 -43 0 -50 -18 -81 -46 -75 -16 3 -20 13 -22 61 -4 75 -22 74 -22 -2z"/>
<path d="M6470 4495 c0 -57 4 -95 10 -95 6 0 10 12 10 28 0 26 2 27 38 24 27 -3 42 1 52 13 18 22 19 87 1 109 -16 19 -62 21 -79 4 -9 -9 -12 -9 -12 0 0 7 -4 12 -10 12 -6 0 -10 -38 -10 -95z m88 63 c7 -7 12 -24 12 -38 0 -51 -53 -70 -70 -25 -19 51 24 97 58 63z"/>
<path d="M6635 4570 c-22 -24 -25 -81 -6 -104 18 -22 74 -20 94 2 21 23 21 32 3 32 -8 0 -16 -7 -20 -15 -7 -18 -37 -20 -54 -3 -22 22 -13 28 38 28 41 0 50 3 50 18 0 55 -69 82 -105 42z m73 -22 c3 -15 -4 -18 -32 -18 -38 0 -44 8 -24 28 17 17 52 11 56 -10z"/>
<path d="M6760 4518 c0 -51 3 -69 13 -66 7 3 13 26 15 56 2 40 7 52 23 57 31 10 22 24 -16 23 l-35 -1 0 -69z"/>
<path d="M7054 4576 c-10 -25 1 -119 14 -124 9 -3 12 15 12 67 0 66 -12 93 -26 57z"/>
<path d="M7190 4570 c-24 -24 -26 -67 -4 -98 12 -18 24 -22 51 -20 20 2 41 10 47 20 14 24 -3 37 -19 15 -16 -23 -58 -19 -63 6 -3 14 4 17 41 17 53 0 59 5 46 38 -18 47 -64 57 -99 22z m68 -12 c20 -20 14 -28 -23 -28 -24 0 -35 5 -35 14 0 24 39 33 58 14z"/>
<path d="M7540 4531 c0 -69 11 -82 69 -79 l41 1 0 69 c0 39 -4 68 -10 68 -5 0 -10 -15 -10 -34 0 -56 -16 -88 -43 -84 -19 3 -22 10 -25 61 -4 75 -22 74 -22 -2z"/>
<path d="M7680 4493 c0 -55 4 -93 10 -93 6 0 10 12 10 28 0 26 2 27 38 24 48 -5 67 15 67 70 0 50 -23 68 -82 66 l-43 -2 0 -93z m88 65 c7 -7 12 -24 12 -38 0 -51 -52 -69 -72 -25 -22 49 25 98 60 63z"/>
<path d="M7840 4563 c-16 -20 -20 -36 -16 -57 9 -44 25 -57 64 -54 35 3 64 30 48 45 -4 4 -12 0 -17 -10 -12 -20 -40 -22 -57 -5 -22 22 -13 28 39 28 51 0 51 0 44 27 -10 40 -24 53 -55 53 -19 0 -36 -9 -50 -27z m78 -15 c3 -15 -4 -18 -32 -18 -38 0 -44 8 -24 28 17 17 52 11 56 -10z"/>
<path d="M7970 4518 c0 -39 4 -68 10 -68 6 0 10 20 10 44 0 43 18 76 41 76 6 0 8 4 4 9 -3 5 -19 9 -35 9 l-30 -1 0 -69z"/>
<path d="M8340 4563 c-16 -20 -20 -36 -16 -57 9 -44 25 -57 64 -54 35 3 64 30 48 45 -4 4 -12 0 -17 -10 -12 -20 -40 -22 -57 -5 -22 22 -13 28 39 28 51 0 51 0 44 27 -10 40 -24 53 -55 53 -19 0 -36 -9 -50 -27z m78 -15 c3 -15 -4 -18 -32 -18 -38 0 -44 8 -24 28 17 17 52 11 56 -10z"/>
<path d="M8570 1940 l0 -140 140 0 140 0 0 140 0 140 -140 0 -140 0 0 -140z m240 -5 l0 -95 -100 0 -100 0 0 95 0 95 100 0 100 0 0 -95z"/>
<path d="M8650 1941 c0 -66 5 -70 83 -62 l37 3 0 59 0 59 -60 0 -60 0 0 -59z"/>
<path d="M9007 2073 c-4 -3 -7 -21 -7 -40 0 -31 -2 -33 -36 -33 -27 0 -37 -5 -41 -19 -3 -11 -13 -21 -24 -24 -29 -8 -24 -37 6 -37 18 0 25 5 25 20 0 11 7 20 15 20 11 0 15 -11 15 -40 l0 -40 40 0 40 0 0 -40 c0 -36 3 -40 25 -40 23 0 25 4 25 40 0 33 -3 40 -20 40 -13 0 -20 7 -20 19 0 15 7 19 35 19 28 0 35 -4 35 -19 0 -12 7 -19 20 -19 13 0 20 -7 20 -20 0 -13 -7 -20 -20 -20 -19 0 -20 -7 -20 -114 0 -105 -1 -114 -20 -119 -12 -3 -20 -14 -20 -26 0 -18 6 -21 45 -21 l45 0 0 40 c0 39 1 40 35 40 39 0 50 -24 15 -33 -12 -3 -20 -14 -20 -26 0 -19 6 -21 60 -21 57 0 60 1 60 25 0 18 -5 25 -20 25 -11 0 -20 7 -20 15 0 11 11 15 40 15 l40 0 0 -60 c0 -53 2 -60 20 -60 11 0 20 -7 20 -15 0 -8 -9 -15 -20 -15 -17 0 -20 -7 -20 -40 l0 -40 -40 0 c-33 0 -40 -3 -40 -20 0 -13 -7 -20 -20 -20 -13 0 -20 -7 -20 -20 0 -13 -7 -20 -20 -20 -17 0 -20 -7 -20 -40 0 -33 -3 -40 -20 -40 -13 0 -20 -7 -20 -20 0 -27 36 -27 43 0 3 11 12 20 20 20 8 0 17 8 19 18 5 16 17 19 82 20 69 1 76 0 76 -18 0 -17 7 -20 40 -20 33 0 40 3 40 20 0 17 -7 20 -40 20 -33 0 -40 3 -40 20 0 13 -7 20 -20 20 -11 0 -20 7 -20 15 0 8 9 15 20 15 11 0 20 -7 20 -15 0 -12 16 -15 80 -15 l80 0 0 55 c0 42 3 55 15 55 12 0 15 -13 15 -55 0 -48 2 -55 20 -55 13 0 20 -7 20 -19 0 -10 -9 -21 -20 -24 -11 -3 -20 -12 -20 -21 0 -9 8 -16 20 -16 13 0 20 -7 20 -20 0 -12 -7 -20 -16 -20 -9 0 -18 -9 -21 -20 -3 -11 -12 -20 -19 -20 -10 0 -14 16 -14 60 0 54 -2 60 -21 60 -12 0 -23 -8 -26 -20 -3 -11 -12 -20 -19 -20 -8 0 -14 -9 -14 -20 0 -17 -7 -20 -40 -20 -33 0 -40 -3 -40 -20 0 -13 7 -20 20 -20 17 0 20 -7 20 -40 0 -33 3 -40 20 -40 13 0 20 -7 20 -20 0 -11 7 -20 15 -20 8 0 15 -7 15 -15 0 -8 -7 -15 -15 -15 -8 0 -15 7 -15 15 0 11 -11 15 -40 15 l-40 0 0 40 0 40 -40 0 c-33 0 -40 3 -40 20 0 13 7 20 20 20 13 0 20 7 20 20 0 13 -7 20 -20 20 -13 0 -20 7 -20 20 0 13 -7 20 -20 20 -13 0 -20 -7 -20 -20 0 -13 -7 -20 -20 -20 -17 0 -20 -7 -20 -40 l0 -40 -40 0 -40 0 0 -40 0 -40 40 0 40 0 0 40 c0 33 3 40 20 40 17 0 20 -7 20 -40 0 -33 -3 -40 -20 -40 -11 0 -20 -6 -20 -14 0 -7 -9 -16 -20 -19 -11 -3 -20 -12 -20 -20 0 -8 -9 -17 -20 -20 -11 -3 -20 -12 -20 -21 0 -9 -7 -16 -15 -16 -12 0 -15 15 -15 75 0 73 -1 75 -25 75 -18 0 -25 -5 -25 -20 0 -13 -7 -20 -20 -20 -13 0 -20 -7 -20 -20 0 -13 7 -20 20 -20 11 0 20 -7 20 -15 0 -10 -11 -15 -35 -15 -33 0 -35 2 -35 35 0 28 -4 35 -20 35 -13 0 -20 7 -20 20 0 13 7 20 20 20 17 0 20 7 20 40 0 29 4 40 15 40 8 0 15 -9 15 -20 0 -15 7 -20 25 -20 18 0 25 5 25 20 0 13 -7 20 -20 20 -17 0 -20 7 -20 40 0 29 4 40 15 40 8 0 15 -9 15 -20 0 -15 7 -20 25 -20 23 0 25 4 25 40 0 33 -3 40 -20 40 -18 0 -20 7 -20 54 l0 55 38 3 c35 3 37 5 40 41 5 53 32 51 32 -3 0 -33 3 -40 20 -40 17 0 20 7 20 45 0 38 -3 45 -20 45 -13 0 -20 7 -20 20 0 18 -7 20 -56 20 -47 0 -57 -3 -61 -20 -3 -11 -14 -20 -24 -20 -12 0 -19 -7 -19 -20 0 -11 -7 -20 -15 -20 -10 0 -15 11 -15 35 0 29 4 35 21 35 15 0 20 5 17 23 -3 19 -9 22 -43 22 -39 0 -40 -1 -43 -37 -2 -25 -8 -38 -18 -38 -10 0 -14 14 -14 56 0 47 -3 57 -20 61 -25 7 -30 73 -5 73 8 0 15 -9 15 -20 0 -13 7 -20 20 -20 13 0 20 -7 20 -20 0 -15 7 -20 25 -20 18 0 25 5 25 20 0 13 7 20 20 20 13 0 20 7 20 20 0 13 7 20 20 20 13 0 20 7 20 20 0 15 -7 20 -25 20 -18 0 -25 -5 -25 -20 0 -13 -7 -20 -20 -20 -11 0 -20 -7 -20 -15 0 -8 -7 -15 -15 -15 -10 0 -15 11 -15 35 0 28 4 35 20 35 18 0 20 7 20 61 0 57 -1 60 -22 57 -20 -3 -23 -10 -26 -60 l-3 -58 -54 0 c-48 0 -55 2 -55 20 0 13 -7 20 -20 20 -13 0 -20 -7 -20 -20 0 -18 -7 -20 -60 -20 -53 0 -60 2 -60 20 0 17 -7 20 -40 20 -33 0 -40 -3 -40 -20 0 -13 -7 -20 -20 -20 -13 0 -20 -7 -20 -20 0 -13 7 -20 20 -20 13 0 20 7 20 20 0 17 7 20 40 20 33 0 40 -3 40 -20 0 -17 -7 -20 -40 -20 -27 0 -40 -4 -40 -14 0 -7 -9 -16 -20 -19 -18 -5 -20 -14 -20 -106 0 -94 1 -101 20 -101 13 0 20 -7 20 -20 0 -13 7 -20 20 -20 15 0 20 7 20 25 0 18 -5 25 -20 25 -16 0 -20 7 -20 35 0 34 1 35 40 35 l40 0 0 -95 0 -95 -60 0 c-53 0 -60 -2 -60 -20 0 -20 17 -25 63 -21 11 2 17 -5 17 -18 0 -14 -6 -21 -20 -21 -13 0 -20 -7 -20 -20 0 -13 -7 -20 -20 -20 -13 0 -20 -7 -20 -20 0 -17 7 -20 40 -20 33 0 40 -3 40 -20 0 -17 -7 -20 -40 -20 -33 0 -40 -3 -40 -20 0 -17 7 -20 40 -20 33 0 40 3 40 20 0 13 7 20 20 20 16 0 20 7 20 36 0 27 5 37 20 41 16 4 20 14 20 44 0 32 -3 39 -20 39 -12 0 -20 7 -20 16 0 9 9 18 20 21 11 3 20 12 20 19 0 8 9 14 20 14 17 0 20 7 20 40 0 33 3 40 20 40 13 0 20 -7 20 -20 0 -13 7 -20 20 -20 11 0 20 -7 20 -15 0 -8 -9 -15 -20 -15 -13 0 -20 -7 -20 -20 0 -17 -7 -20 -40 -20 -33 0 -40 -3 -40 -20 0 -13 7 -20 20 -20 13 0 20 -7 20 -20 0 -18 7 -20 60 -20 53 0 60 2 60 20 0 11 7 20 15 20 11 0 15 -11 15 -39 0 -30 -4 -40 -20 -44 -11 -3 -20 -12 -20 -21 0 -9 8 -16 20 -16 13 0 20 -7 20 -20 0 -13 -7 -20 -20 -20 -17 0 -20 -7 -20 -40 0 -33 3 -40 20 -40 17 0 20 -7 20 -40 l0 -40 40 0 c39 0 40 -1 40 -35 0 -39 -24 -50 -33 -15 -7 25 -37 26 -44 1 -3 -11 -13 -21 -24 -24 -14 -4 -19 -14 -19 -42 0 -28 5 -38 19 -42 11 -3 21 -13 24 -24 4 -16 15 -19 66 -19 54 0 61 2 61 19 0 16 8 20 38 23 29 2 37 7 37 23 0 16 -8 21 -37 23 -25 2 -38 8 -38 18 0 11 14 14 60 14 53 0 60 2 60 20 0 11 7 20 15 20 12 0 15 -13 15 -55 0 -48 -2 -55 -20 -55 -15 0 -20 -7 -20 -25 0 -18 5 -25 20 -25 13 0 20 7 20 20 0 13 7 20 20 20 13 0 20 7 20 20 0 13 7 20 20 20 15 0 20 7 20 25 0 18 -5 25 -20 25 -16 0 -20 7 -20 35 0 28 4 35 20 35 13 0 20 -7 20 -20 0 -18 7 -20 60 -20 53 0 60 -2 60 -20 0 -13 7 -20 20 -20 13 0 20 7 20 20 0 13 7 20 20 20 17 0 20 -7 20 -40 0 -28 4 -40 14 -40 10 0 16 -13 18 -37 2 -31 7 -39 26 -41 17 -3 22 2 22 17 0 27 26 27 33 1 4 -16 14 -20 46 -20 34 0 41 3 41 20 0 16 7 20 36 20 27 0 37 5 41 20 5 17 14 20 65 20 l59 0 -3 42 c-2 32 -8 44 -21 46 -12 3 -20 -4 -24 -17 -7 -27 -29 -27 -36 -1 -4 15 -14 20 -41 20 -34 0 -36 1 -36 35 0 33 2 35 35 35 28 0 35 -4 35 -20 0 -17 7 -20 45 -20 l45 0 0 160 0 160 -45 0 c-38 0 -45 -3 -45 -20 0 -16 -7 -20 -35 -20 -28 0 -35 4 -35 20 0 13 7 20 20 20 13 0 20 7 20 20 0 16 7 19 38 18 83 -1 82 -2 82 42 0 36 -2 40 -25 40 -18 0 -25 5 -25 20 0 13 -7 20 -20 20 -17 0 -20 -7 -20 -40 0 -28 -4 -40 -15 -40 -10 0 -15 15 -17 58 -3 50 -6 57 -25 60 -22 3 -23 1 -23 -77 l0 -81 -35 0 c-33 0 -35 2 -35 34 0 25 5 35 20 39 11 3 20 13 20 22 0 9 -9 19 -20 22 -11 3 -20 11 -20 18 0 7 9 15 20 18 17 4 20 14 20 61 l0 56 40 0 c33 0 40 3 40 20 0 13 7 20 20 20 13 0 20 7 20 20 0 13 -7 20 -20 20 -17 0 -20 7 -20 40 0 36 -2 40 -25 40 -24 0 -25 -3 -25 -55 l0 -55 -35 0 c-24 0 -35 5 -35 15 0 8 9 15 20 15 17 0 20 7 20 40 l0 40 -45 0 c-38 0 -45 -3 -45 -20 0 -11 -7 -20 -15 -20 -8 0 -15 9 -15 20 0 17 -7 20 -40 20 -33 0 -40 -3 -40 -20 0 -13 -7 -20 -20 -20 -13 0 -20 -7 -20 -20 0 -13 7 -20 20 -20 13 0 20 -7 20 -20 0 -13 7 -20 20 -20 13 0 20 7 20 20 0 16 7 20 35 20 28 0 35 -4 35 -20 0 -13 7 -20 20 -20 11 0 20 -6 20 -14 0 -7 -9 -16 -20 -19 -17 -4 -20 -14 -20 -61 0 -41 -4 -56 -14 -56 -7 0 -16 9 -19 20 -3 11 -12 20 -21 20 -9 0 -16 7 -16 15 0 9 9 15 21 15 15 0 20 5 17 22 -4 30 -38 37 -45 9 -7 -27 -33 -27 -33 -1 0 17 -7 20 -40 20 -33 0 -40 3 -40 20 0 13 -7 20 -20 20 -16 0 -20 7 -20 35 0 28 4 35 20 35 18 0 20 7 20 60 0 53 2 60 20 60 13 0 20 -7 20 -20 0 -13 7 -20 20 -20 18 0 20 7 20 60 0 47 3 60 15 60 8 0 15 -9 15 -20 0 -15 7 -20 25 -20 23 0 25 4 25 40 l0 40 -40 0 -40 0 0 60 0 60 -40 0 c-33 0 -40 -3 -40 -20 0 -13 -7 -20 -20 -20 -15 0 -20 -7 -20 -25 0 -18 5 -25 20 -25 16 0 20 -7 20 -35 0 -28 -4 -35 -20 -35 -13 0 -20 7 -20 20 0 17 -7 20 -40 20 -33 0 -40 -3 -40 -20 0 -17 -7 -20 -40 -20 -39 0 -40 1 -40 35 0 28 4 35 20 35 15 0 20 7 20 25 0 22 -4 25 -35 25 -28 0 -35 4 -35 20 0 15 -7 20 -25 20 -18 0 -25 -5 -25 -20 0 -11 -7 -20 -15 -20 -8 0 -15 9 -15 20 0 17 -7 20 -38 20 -21 0 -42 -3 -45 -7z m153 -98 c0 -42 -3 -55 -15 -55 -8 0 -15 9 -15 20 0 17 -7 20 -40 20 -29 0 -40 4 -40 15 0 11 11 15 36 15 27 0 37 5 41 20 3 11 12 20 19 20 10 0 14 -15 14 -55z m280 40 c0 -8 -9 -15 -20 -15 -11 0 -20 7 -20 15 0 8 9 15 20 15 11 0 20 -7 20 -15z m-400 -75 c0 -11 -7 -20 -15 -20 -8 0 -15 9 -15 20 0 11 7 20 15 20 8 0 15 -9 15 -20z m280 -40 c0 -17 7 -20 40 -20 33 0 40 3 40 20 0 13 7 20 20 20 13 0 20 -7 20 -20 0 -13 -7 -20 -20 -20 -13 0 -20 -7 -20 -20 0 -13 -7 -20 -20 -20 -18 0 -20 -7 -20 -60 0 -53 -2 -60 -20 -60 -13 0 -20 -7 -20 -20 0 -13 -7 -20 -20 -20 -13 0 -20 7 -20 20 0 13 -7 20 -20 20 -13 0 -20 -7 -20 -20 0 -16 -7 -20 -35 -20 -34 0 -35 1 -35 40 0 29 4 40 15 40 8 0 15 9 15 20 0 11 -7 20 -15 20 -8 0 -15 9 -15 20 0 11 7 20 15 20 8 0 15 -9 15 -20 0 -13 7 -20 20 -20 16 0 20 7 20 36 0 27 5 37 19 41 11 3 21 13 24 24 7 25 37 25 37 -1z m-470 -200 c0 -13 -7 -20 -20 -20 -13 0 -20 7 -20 20 0 13 7 20 20 20 13 0 20 -7 20 -20z m-80 -60 c0 -33 3 -40 20 -40 11 0 20 -7 20 -15 0 -11 -11 -15 -40 -15 -33 0 -40 -3 -40 -20 0 -13 -7 -20 -20 -20 -17 0 -20 7 -20 40 0 33 -3 40 -20 40 -11 0 -20 7 -20 15 0 8 9 15 20 15 13 0 20 7 20 20 0 17 7 20 40 20 l40 0 0 -40z m80 -15 c0 -8 -9 -15 -20 -15 -11 0 -20 7 -20 15 0 8 9 15 20 15 11 0 20 -7 20 -15z m30 -40 c0 -8 -7 -15 -15 -15 -8 0 -15 7 -15 15 0 8 7 15 15 15 8 0 15 -7 15 -15z m-30 -40 c0 -8 -9 -15 -20 -15 -11 0 -20 7 -20 15 0 8 9 15 20 15 11 0 20 -7 20 -15z m630 0 c0 -11 -11 -15 -40 -15 -29 0 -40 4 -40 15 0 11 11 15 40 15 29 0 40 -4 40 -15z m-670 -40 c0 -11 -11 -15 -40 -15 -29 0 -40 4 -40 15 0 11 11 15 40 15 29 0 40 -4 40 -15z m70 -60 c0 -24 -5 -35 -15 -35 -8 0 -15 9 -15 20 0 13 -7 20 -20 20 -11 0 -20 7 -20 15 0 10 11 15 35 15 33 0 35 -2 35 -35z m560 15 c0 -16 7 -20 35 -20 24 0 35 -5 35 -15 0 -10 -11 -15 -35 -15 -28 0 -35 -4 -35 -20 0 -13 -7 -20 -20 -20 -18 0 -20 7 -20 55 0 48 2 55 20 55 13 0 20 -7 20 -20z m110 5 c0 -8 -7 -15 -15 -15 -8 0 -15 7 -15 15 0 8 7 15 15 15 8 0 15 -7 15 -15z m-550 -41 c0 -9 9 -18 20 -21 17 -5 20 -14 20 -59 l0 -54 -35 0 c-28 0 -35 4 -35 20 0 17 -7 20 -41 20 -32 0 -42 -4 -46 -20 -4 -15 -14 -20 -39 -20 -27 0 -34 4 -34 20 0 13 7 20 20 20 11 0 20 7 20 15 0 8 9 15 20 15 13 0 20 7 20 20 0 17 7 20 40 20 33 0 40 3 40 20 0 11 7 20 15 20 8 0 15 -7 15 -16z m320 -79 c0 -8 -9 -15 -20 -15 -11 0 -20 7 -20 15 0 8 9 15 20 15 11 0 20 -7 20 -15z m350 -75 c0 -11 -7 -20 -15 -20 -8 0 -15 9 -15 20 0 11 7 20 15 20 8 0 15 -9 15 -20z m-980 -40 c0 -13 -7 -20 -20 -20 -19 0 -27 20 -13 33 13 14 33 6 33 -13z m1020 0 c0 -11 -7 -20 -15 -20 -8 0 -15 9 -15 20 0 11 7 20 15 20 8 0 15 -9 15 -20z m120 -20 c0 -33 -3 -40 -20 -40 -13 0 -20 -7 -20 -20 0 -11 -7 -20 -15 -20 -8 0 -15 9 -15 20 0 13 -7 20 -20 20 -14 0 -20 7 -20 21 0 13 6 20 18 18 45 -4 62 1 62 21 0 11 7 20 15 20 11 0 15 -11 15 -40z m-870 -20 c0 -11 -7 -20 -15 -20 -8 0 -15 9 -15 20 0 11 7 20 15 20 8 0 15 -9 15 -20z m710 -20 c0 -39 -1 -40 -35 -40 -28 0 -35 4 -35 20 0 13 7 20 20 20 13 0 20 7 20 20 0 11 7 20 15 20 11 0 15 -11 15 -40z m-120 -20 c0 -11 -7 -20 -15 -20 -8 0 -15 9 -15 20 0 11 7 20 15 20 8 0 15 -9 15 -20z m120 -115 l0 -55 -55 0 -55 0 0 55 0 55 55 0 55 0 0 -55z m120 35 c0 -16 -7 -20 -35 -20 -28 0 -35 4 -35 20 0 16 7 20 35 20 28 0 35 -4 35 -20z m-390 -40 c0 -17 7 -20 40 -20 29 0 40 -4 40 -15 0 -12 -13 -15 -60 -15 l-60 0 0 35 c0 28 4 35 20 35 13 0 20 -7 20 -20z m150 -135 c0 -24 -5 -35 -15 -35 -10 0 -15 11 -15 35 0 24 5 35 15 35 10 0 15 -11 15 -35z m120 21 c0 -7 -9 -16 -20 -19 -11 -3 -20 -13 -20 -22 0 -9 9 -19 20 -22 35 -9 24 -33 -15 -33 l-35 0 0 55 0 55 35 0 c23 0 35 -5 35 -14z m-707 -46 c4 -15 14 -20 41 -20 25 0 36 -4 36 -15 0 -12 -13 -15 -55 -15 l-55 0 0 35 c0 39 24 50 33 15z m787 5 c0 -8 -7 -15 -15 -15 -8 0 -15 7 -15 15 0 8 7 15 15 15 8 0 15 -7 15 -15z"/>
<path d="M9280 1780 c0 -53 2 -60 20 -60 18 0 20 7 20 60 0 53 -2 60 -20 60 -18 0 -20 -7 -20 -60z"/>
<path d="M9590 1030 c0 -15 7 -20 25 -20 18 0 25 5 25 20 0 15 -7 20 -25 20 -18 0 -25 -5 -25 -20z"/>
<path d="M9514 2065 c-8 -20 4 -35 27 -35 14 0 19 7 19 25 0 18 -5 25 -20 25 -11 0 -23 -7 -26 -15z"/>
<path d="M9597 2073 c-4 -3 -7 -66 -7 -140 l0 -133 145 0 145 0 0 140 0 140 -138 0 c-76 0 -142 -3 -145 -7z m233 -138 l0 -95 -95 0 -95 0 0 95 0 95 95 0 95 0 0 -95z"/>
<path d="M9670 1940 c0 -65 -3 -62 65 -62 69 0 66 -3 63 60 l-3 57 -62 3 -63 3 0 -61z"/>
<path d="M9280 2015 c0 -18 5 -25 20 -25 15 0 20 7 20 25 0 18 -5 25 -20 25 -15 0 -20 -7 -20 -25z"/>
<path d="M8887 1873 c-4 -3 -7 -30 -7 -60 0 -50 1 -53 25 -53 24 0 25 3 25 60 0 52 -3 60 -18 60 -10 0 -22 -3 -25 -7z"/>
<path d="M9517 1833 c-16 -15 -6 -33 18 -33 18 0 25 5 25 20 0 20 -28 28 -43 13z"/>
<path d="M9830 1666 c0 -45 -3 -54 -20 -59 -11 -3 -20 -12 -20 -20 0 -11 -12 -17 -37 -19 -31 -2 -39 -7 -41 -25 -3 -22 0 -23 57 -23 54 0 61 -2 61 -20 0 -15 7 -20 25 -20 l25 0 0 120 0 120 -25 0 c-24 0 -25 -3 -25 -54z"/>
<path d="M5399 1635 c-1 -5 -1 -13 0 -17 0 -5 -17 -8 -38 -8 -22 0 -43 -4 -46 -10 -4 -6 12 -10 39 -10 34 0 46 -4 46 -15 0 -10 -11 -15 -35 -15 l-35 0 0 -50 c0 -27 5 -50 10 -50 6 0 10 18 10 40 0 36 3 40 25 40 23 0 25 -3 25 -50 0 -27 5 -50 10 -50 6 0 10 23 10 50 0 47 2 50 25 50 21 0 25 -5 25 -30 0 -20 -5 -30 -15 -30 -8 0 -15 -5 -15 -11 0 -6 10 -9 23 -7 19 3 22 10 25 51 l3 47 -35 0 c-25 0 -36 4 -36 15 0 11 12 15 45 15 25 0 45 5 45 10 0 6 -19 10 -41 10 -28 0 -46 6 -55 18 -7 9 -14 13 -15 7z"/>
<path d="M5560 1626 c0 -9 -7 -16 -15 -16 -8 0 -15 -4 -15 -10 0 -5 7 -10 15 -10 25 0 17 -30 -7 -31 -22 -1 -22 -1 2 -8 19 -5 26 -14 28 -40 2 -22 0 -31 -7 -26 -6 3 -11 18 -11 33 0 38 -16 14 -24 -35 -4 -27 -2 -43 4 -43 5 0 10 7 10 15 0 14 3 14 30 0 32 -17 150 -21 150 -5 0 5 -30 10 -67 12 -55 2 -68 6 -71 21 -2 10 3 17 12 17 9 0 16 5 16 10 0 6 -7 10 -15 10 -21 0 -19 19 3 26 9 3 24 9 33 14 9 5 20 5 25 0 5 -4 19 -4 32 1 16 6 22 16 22 39 0 29 -1 30 -50 30 -27 0 -50 -4 -50 -10 0 -5 7 -10 15 -10 8 0 15 -4 15 -8 0 -12 -34 -42 -48 -42 -17 0 -15 28 3 32 11 2 8 9 -10 27 -20 18 -25 20 -25 7z m130 -36 c0 -13 -7 -20 -20 -20 -22 0 -23 1 -14 24 9 23 34 20 34 -4z"/>
<path d="M6385 1625 c-3 -11 -13 -36 -22 -55 -10 -23 -11 -36 -4 -38 6 -2 11 -24 11 -48 0 -36 3 -44 18 -44 10 0 22 4 28 10 5 5 24 6 49 0 53 -12 85 -12 85 0 0 6 -11 10 -25 10 -14 0 -25 5 -25 10 0 6 9 10 19 10 32 0 35 20 4 21 -23 2 -24 2 -5 6 12 2 22 8 22 13 0 5 -10 11 -22 13 -22 4 -22 4 -2 6 38 2 41 71 3 71 -11 0 -19 7 -19 17 0 15 -2 14 -19 -3 -10 -10 -14 -22 -9 -25 5 -3 -1 -10 -14 -14 l-23 -7 25 -7 c23 -6 23 -8 6 -14 -25 -10 -45 8 -28 25 20 20 14 38 -12 38 -13 0 -26 6 -29 13 -3 7 -7 5 -12 -8z m31 -47 c-20 -28 -20 -38 -1 -38 8 0 15 -7 15 -16 0 -14 -2 -14 -16 -3 -15 12 -16 10 -10 -18 4 -18 3 -34 -3 -38 -7 -4 -11 17 -11 64 0 65 2 71 21 71 19 0 19 -1 5 -22z m61 -44 c-3 -3 -12 -4 -19 -1 -8 3 -5 6 6 6 11 1 17 -2 13 -5z m-9 -32 c-22 -4 -24 -22 -3 -22 8 0 15 -4 15 -9 0 -5 -9 -7 -20 -4 -13 3 -20 14 -20 28 0 19 4 22 23 17 18 -5 19 -7 5 -10z"/>
<path d="M6641 1627 c-7 -10 -22 -17 -32 -17 -16 0 -19 -8 -19 -45 0 -33 -4 -45 -15 -45 -8 0 -15 -4 -15 -10 0 -5 26 -10 58 -12 l57 -3 -60 -21 c-43 -16 -55 -24 -43 -29 10 -4 41 5 77 22 55 27 61 28 61 11 0 -13 -7 -18 -25 -18 -14 0 -25 -5 -25 -11 0 -6 14 -9 33 -7 29 3 32 7 35 38 2 19 10 39 18 43 19 11 18 31 -1 23 -12 -4 -15 3 -15 29 0 33 -2 35 -34 35 -24 0 -36 5 -38 17 -3 15 -4 15 -17 0z m69 -37 c0 -5 -22 -10 -50 -10 -27 0 -50 5 -50 10 0 6 23 10 50 10 28 0 50 -4 50 -10z m0 -30 c0 -5 -22 -10 -50 -10 -27 0 -50 5 -50 10 0 6 23 10 50 10 28 0 50 -4 50 -10z m0 -30 c0 -5 -22 -10 -50 -10 -27 0 -50 5 -50 10 0 6 23 10 50 10 28 0 50 -4 50 -10z"/>
<path d="M6793 1618 c-18 -19 -21 -29 -14 -53 5 -17 10 -24 10 -17 1 9 22 11 79 10 l77 -2 -72 -3 -73 -4 0 -54 0 -55 70 0 c68 0 70 1 70 25 0 23 -4 24 -62 28 l-63 3 63 2 c55 2 62 4 62 22 0 11 5 20 10 20 6 0 10 9 10 20 0 11 -7 20 -15 20 -8 0 -15 5 -15 10 0 6 9 10 20 10 11 0 20 5 20 10 0 6 -13 10 -29 10 -16 0 -31 5 -33 12 -2 6 -14 -3 -27 -20 -22 -32 -41 -42 -41 -22 0 6 7 10 15 10 8 0 15 5 15 10 0 6 -11 10 -24 10 -13 0 -26 5 -28 11 -2 5 -13 0 -25 -13z m32 -28 c3 -5 -3 -10 -15 -10 -12 0 -18 5 -15 10 3 6 10 10 15 10 5 0 12 -4 15 -10z m90 0 c3 -5 -3 -10 -15 -10 -12 0 -18 5 -15 10 3 6 10 10 15 10 5 0 12 -4 15 -10z m-17 -67 c-16 -2 -40 -2 -55 0 -16 2 -3 4 27 4 30 0 43 -2 28 -4z m22 -53 c0 -5 -22 -10 -50 -10 -27 0 -50 5 -50 10 0 6 23 10 50 10 28 0 50 -4 50 -10z"/>
<path d="M7264 1626 c-4 -10 -19 -16 -40 -16 -19 0 -34 -4 -34 -10 0 -5 12 -10 26 -10 l26 0 -26 -34 c-31 -41 -33 -50 -6 -36 19 10 20 7 21 -37 1 -26 4 -38 6 -25 4 19 11 22 54 22 27 0 49 -4 49 -10 0 -5 -9 -10 -20 -10 -11 0 -20 -5 -20 -11 0 -6 12 -9 28 -7 26 3 27 6 30 66 l3 62 -51 0 c-27 0 -50 5 -50 10 0 6 27 10 60 10 33 0 60 4 60 10 0 6 -23 10 -51 10 -28 0 -48 4 -44 9 3 5 1 12 -5 16 -6 3 -13 -1 -16 -9z m76 -76 c0 -5 -23 -10 -51 -10 -31 0 -48 4 -44 10 3 6 26 10 51 10 24 0 44 -4 44 -10z m0 -40 c0 -5 -22 -10 -50 -10 -27 0 -50 5 -50 10 0 6 23 10 50 10 28 0 50 -4 50 -10z"/>
<path d="M4915 1610 c10 -11 22 -17 28 -13 6 4 3 12 -8 20 -28 20 -41 16 -20 -7z"/>
<path d="M5130 1614 c0 -9 -8 -23 -17 -30 -17 -13 -17 -13 0 -14 23 0 25 -70 2 -70 -8 0 -15 -5 -15 -11 0 -7 12 -8 33 -4 37 8 47 16 30 22 -7 3 -13 17 -13 33 0 16 6 31 13 34 10 5 10 7 0 12 -7 3 -13 14 -13 25 0 10 -4 19 -10 19 -5 0 -10 -7 -10 -16z"/>
<path d="M5180 1562 c0 -44 -5 -75 -15 -88 -17 -22 -19 -34 -5 -34 5 0 16 13 25 30 17 33 21 160 5 160 -6 0 -10 -29 -10 -68z"/>
<path d="M5230 1546 c0 -51 4 -86 10 -86 6 0 10 33 10 79 0 44 -4 83 -10 86 -6 4 -10 -25 -10 -79z"/>
<path d="M5270 1535 c0 -57 4 -95 10 -95 6 0 10 38 10 95 0 57 -4 95 -10 95 -6 0 -10 -38 -10 -95z"/>
<path d="M5745 1600 c-20 -38 -19 -51 3 -43 15 6 15 4 -2 -16 -12 -13 -16 -25 -10 -31 11 -11 54 -2 54 11 0 5 -8 5 -17 2 -14 -5 -13 0 6 31 13 20 20 40 16 44 -3 4 -11 -1 -16 -11 -6 -9 -15 -17 -21 -17 -6 0 -3 11 6 25 19 28 20 35 6 35 -5 0 -16 -13 -25 -30z"/>
<path d="M5940 1621 c0 -6 5 -13 11 -17 8 -4 8 -9 0 -17 -16 -16 -13 -30 4 -23 19 7 19 -14 0 -40 -21 -28 -18 -40 5 -19 20 18 20 17 20 -9 0 -19 -6 -29 -20 -33 -27 -7 -25 -25 2 -21 16 2 24 12 28 33 4 20 8 26 13 18 5 -7 19 -13 33 -13 36 0 29 -18 -8 -23 -18 -2 1 -4 42 -4 41 0 60 2 43 4 -38 5 -44 20 -10 26 l22 4 -22 2 c-31 2 -29 21 2 21 14 0 25 5 25 10 0 6 -11 10 -25 10 -14 0 -25 5 -25 10 0 6 9 10 20 10 17 0 20 7 20 40 l0 40 -56 0 -56 0 2 -47 c3 -62 2 -73 -9 -73 -11 0 -19 80 -9 86 17 10 7 25 -12 19 -11 -4 -20 -2 -20 4 0 6 -4 11 -10 11 -5 0 -10 -4 -10 -9z m165 -21 c-3 -5 -22 -10 -41 -10 -19 0 -34 5 -34 10 0 6 18 10 41 10 24 0 38 -4 34 -10z m0 -30 c-3 -5 -22 -10 -41 -10 -19 0 -34 5 -34 10 0 6 18 10 41 10 24 0 38 -4 34 -10z m-45 -30 c0 -5 -4 -10 -10 -10 -5 0 -10 5 -10 10 0 6 5 10 10 10 6 0 10 -4 10 -10z m0 -40 c0 -5 -12 -10 -26 -10 -14 0 -23 4 -19 10 3 6 15 10 26 10 10 0 19 -4 19 -10z"/>
<path d="M6155 1610 c4 -12 1 -28 -7 -37 -11 -15 -10 -16 10 -11 28 8 29 -12 2 -37 -11 -10 -17 -22 -14 -27 3 -5 15 -2 25 8 17 15 19 15 19 1 0 -26 -11 -47 -26 -47 -8 0 -14 -5 -14 -11 0 -6 10 -9 23 -7 14 2 23 11 25 26 3 16 8 22 19 18 8 -3 23 -6 34 -6 32 0 21 -18 -13 -23 -18 -2 -1 -4 37 -4 39 0 58 2 43 4 -34 5 -37 20 -5 26 l22 4 -22 2 c-31 2 -29 21 2 21 14 0 25 5 25 10 0 6 -11 10 -25 10 -14 0 -25 5 -25 10 0 6 9 10 20 10 17 0 20 7 20 40 l0 40 -56 0 -57 0 5 -50 c3 -33 1 -54 -7 -60 -16 -14 -27 56 -13 83 8 16 7 18 -11 12 -12 -4 -21 -2 -21 4 0 6 -5 11 -11 11 -6 0 -8 -9 -4 -20z m155 -10 c0 -5 -16 -10 -35 -10 -19 0 -35 5 -35 10 0 6 16 10 35 10 19 0 35 -4 35 -10z m0 -30 c0 -5 -16 -10 -35 -10 -19 0 -35 5 -35 10 0 6 16 10 35 10 19 0 35 -4 35 -10z m-40 -30 c0 -5 -4 -10 -10 -10 -5 0 -10 5 -10 10 0 6 5 10 10 10 6 0 10 -4 10 -10z m0 -40 c0 -5 -12 -10 -26 -10 -14 0 -23 4 -19 10 3 6 15 10 26 10 10 0 19 -4 19 -10z"/>
<path d="M7023 1623 c-24 -2 -43 -8 -43 -14 0 -5 5 -9 10 -9 14 0 12 -47 -2 -54 -10 -5 -10 -7 0 -12 15 -7 16 -46 0 -62 -9 -9 -5 -12 20 -12 20 0 35 6 38 15 4 8 17 15 30 15 15 0 24 -6 24 -15 0 -10 -10 -15 -30 -15 -16 0 -30 -4 -30 -10 0 -6 30 -10 70 -10 40 0 70 4 70 10 0 6 -13 10 -30 10 -39 0 -41 27 -2 33 l27 4 -27 2 c-34 1 -37 18 -5 23 19 3 22 9 22 53 l0 50 -50 1 c-27 1 -69 -1 -92 -3z m77 -28 c0 -8 -7 -15 -15 -15 -8 0 -15 7 -15 15 0 8 7 15 15 15 8 0 15 -7 15 -15z m50 0 c0 -8 -7 -15 -15 -15 -8 0 -15 7 -15 15 0 8 7 15 15 15 8 0 15 -7 15 -15z m-100 -20 c0 -16 -6 -25 -15 -25 -9 0 -15 9 -15 25 0 16 6 25 15 25 9 0 15 -9 15 -25z m50 -20 c0 -8 -7 -15 -15 -15 -8 0 -15 7 -15 15 0 8 7 15 15 15 8 0 15 -7 15 -15z m50 0 c0 -8 -7 -15 -15 -15 -8 0 -15 7 -15 15 0 8 7 15 15 15 8 0 15 -7 15 -15z m-68 -35 c10 0 18 -4 18 -10 0 -5 -11 -10 -24 -10 -14 0 -28 -4 -31 -10 -11 -18 -25 -10 -25 14 0 26 19 39 35 25 5 -5 17 -9 27 -9z"/>
<path d="M7407 1624 c-11 -11 -8 -184 3 -184 6 0 10 6 10 13 0 7 10 17 23 22 16 7 21 17 19 35 -5 43 -5 84 -1 100 4 16 -40 27 -54 14z m31 -51 c0 -21 3 -48 7 -60 6 -18 4 -23 -9 -23 -13 0 -16 11 -16 60 0 33 4 60 10 60 5 0 9 -17 8 -37z"/>
<path d="M7478 1538 c-2 -51 -2 -95 -1 -97 5 -7 53 18 53 28 0 5 -9 7 -20 4 -16 -4 -20 0 -20 20 0 38 14 40 33 4 19 -34 55 -63 65 -52 4 3 -4 15 -17 24 l-24 19 21 6 c12 4 22 12 22 18 0 6 -8 7 -17 3 -29 -11 -35 -11 -40 3 -3 7 5 12 22 12 25 0 26 2 23 48 l-3 47 -47 3 -47 3 -3 -93z m80 60 c-3 -7 -17 -13 -33 -13 -16 0 -30 6 -32 13 -3 8 7 12 32 12 25 0 35 -4 33 -12z m0 -40 c-3 -7 -17 -13 -33 -13 -16 0 -30 6 -32 13 -3 8 7 12 32 12 25 0 35 -4 33 -12z"/>
<path d="M7646 1590 c-14 -22 -31 -40 -36 -40 -6 0 -10 -4 -10 -10 0 -21 29 -9 52 23 35 47 39 55 29 61 -5 3 -20 -12 -35 -34z"/>
<path d="M7720 1617 c0 -19 66 -94 75 -85 4 4 -6 23 -24 43 -17 20 -31 40 -31 45 0 6 -4 10 -10 10 -5 0 -10 -6 -10 -13z"/>
<path d="M7825 1620 c-4 -6 23 -10 74 -10 l81 0 0 -75 c0 -73 -1 -75 -25 -75 -14 0 -25 -5 -25 -11 0 -6 14 -9 33 -7 l32 3 3 93 3 92 -85 0 c-47 0 -88 -4 -91 -10z"/>
<path d="M4960 1598 c1 -21 2 -21 11 -5 14 23 99 25 99 1 0 -11 -6 -14 -22 -8 -23 7 -23 6 -4 -15 22 -24 41 -28 33 -6 -4 8 -2 17 3 20 6 4 10 13 10 21 0 11 -15 14 -65 14 -61 0 -65 -1 -65 -22z"/>
<path d="M5809 1606 c15 -18 0 -127 -17 -125 -27 4 -62 -3 -62 -12 0 -7 11 -9 30 -6 23 5 28 3 23 -8 -3 -8 -1 -15 5 -15 11 0 42 60 42 82 1 7 7 2 15 -12 13 -23 12 -27 -8 -42 -28 -21 -15 -35 14 -15 19 14 24 14 44 1 28 -18 40 -6 14 15 -19 15 -19 18 -5 53 20 46 20 48 1 48 -11 0 -14 7 -9 25 6 24 5 25 -46 25 -44 0 -51 -2 -41 -14z m61 -15 c-14 -27 -13 -41 5 -41 17 0 19 -18 5 -40 -7 -11 -14 -4 -30 33 -23 51 -20 67 11 67 16 0 18 -3 9 -19z"/>
<path d="M4976 1575 c-11 -8 -16 -18 -12 -22 3 -4 16 3 29 15 24 25 12 29 -17 7z"/>
<path d="M7815 1580 c-4 -6 23 -10 75 -10 52 0 79 4 75 10 -3 6 -37 10 -75 10 -38 0 -72 -4 -75 -10z"/>
<path d="M4900 1572 c0 -10 21 -32 32 -32 16 0 8 19 -12 30 -11 6 -20 7 -20 2z"/>
<path d="M5010 1550 c0 -5 -13 -10 -30 -10 -16 0 -30 -4 -30 -10 0 -5 12 -10 28 -10 l27 -1 -32 -28 c-18 -15 -33 -31 -33 -34 0 -14 18 -7 44 18 l26 24 0 -29 c0 -17 5 -30 10 -30 6 0 10 12 10 26 l0 25 29 -20 c40 -29 46 -15 8 20 l-32 28 28 1 c15 0 27 5 27 10 0 6 -13 10 -30 10 -16 0 -30 5 -30 10 0 6 -4 10 -10 10 -5 0 -10 -4 -10 -10z"/>
<path d="M7659 1512 c-19 -26 -36 -51 -38 -55 -2 -5 29 -7 68 -6 39 1 74 -1 78 -4 9 -9 23 -9 23 1 -1 11 -61 74 -67 69 -2 -3 0 -15 7 -26 10 -20 8 -21 -31 -21 -41 0 -41 0 -25 23 29 41 36 56 28 61 -5 3 -24 -16 -43 -42z"/>
<path d="M7830 1504 c0 -38 3 -45 16 -40 9 3 33 6 55 6 39 0 39 0 39 40 l0 40 -55 0 -55 0 0 -46z m90 6 c0 -16 -7 -20 -35 -20 -28 0 -35 4 -35 20 0 16 7 20 35 20 28 0 35 -4 35 -20z"/>
<path d="M5620 1504 l0 -35 43 3 c39 3 42 5 45 36 3 32 3 32 -42 32 -46 0 -46 0 -46 -36z m70 6 c0 -15 -7 -20 -25 -20 -18 0 -25 5 -25 20 0 15 7 20 25 20 18 0 25 -5 25 -20z"/>
<path d="M4911 1489 c-13 -39 -14 -49 -2 -49 5 0 12 11 15 24 3 13 9 31 12 40 3 9 2 16 -4 16 -6 0 -15 -14 -21 -31z"/>
<path d="M9280 1465 c0 -18 5 -25 20 -25 15 0 20 7 20 25 0 18 -5 25 -20 25 -15 0 -20 -7 -20 -25z"/>
<path d="M5130 1276 c0 -16 -6 -26 -15 -26 -8 0 -15 -4 -15 -10 0 -5 7 -10 15 -10 22 0 20 -59 -2 -76 -28 -20 -12 -24 27 -7 19 8 29 17 23 20 -7 3 -13 17 -13 33 0 16 6 31 13 34 10 5 10 7 0 12 -7 3 -13 14 -13 24 0 10 -4 22 -10 25 -6 4 -10 -5 -10 -19z"/>
<path d="M5390 1288 c0 -14 -9 -18 -40 -18 -22 0 -40 -4 -40 -10 0 -5 18 -10 40 -10 29 0 40 -4 40 -15 0 -10 -10 -15 -30 -15 -29 0 -30 -2 -30 -45 0 -25 5 -45 10 -45 6 0 10 16 10 35 0 28 4 35 20 35 17 0 20 -7 20 -44 0 -25 5 -48 10 -51 6 -4 10 13 10 44 0 48 2 51 25 51 20 0 25 -5 25 -25 0 -16 -6 -25 -15 -25 -8 0 -15 -5 -15 -11 0 -6 10 -9 23 -7 18 2 23 10 25 46 l3 42 -35 0 c-25 0 -36 4 -36 15 0 11 12 15 46 15 27 0 43 4 39 10 -3 6 -22 10 -42 10 -22 0 -41 7 -49 18 -13 16 -13 16 -14 0z"/>
<path d="M5583 1265 c-30 -31 -35 -58 -6 -34 10 9 13 6 13 -15 0 -14 5 -26 10 -26 6 0 10 17 10 38 0 21 5 43 11 49 6 6 7 13 2 15 -4 3 -22 -9 -40 -27z"/>
<path d="M5790 1270 c-7 -16 -18 -35 -26 -41 -19 -15 -18 -33 1 -25 12 4 15 -5 15 -49 0 -30 5 -55 10 -55 6 0 10 18 10 40 0 27 4 40 13 40 8 0 22 9 32 20 10 11 23 20 30 20 7 0 20 -9 30 -20 10 -11 25 -20 34 -20 12 0 9 6 -9 20 -20 16 -22 20 -7 20 9 0 17 5 17 10 0 6 -13 10 -30 10 -20 0 -30 5 -30 15 0 8 9 15 19 15 11 0 23 5 27 12 5 8 -7 9 -46 5 -31 -4 -59 -2 -66 3 -8 8 -15 2 -24 -20z m56 -3 c8 3 14 -1 14 -11 0 -11 -9 -16 -30 -16 -33 0 -33 0 -24 25 4 11 10 13 17 6 5 -5 16 -7 23 -4z m-6 -53 c0 -2 -9 -8 -20 -14 -17 -9 -20 -8 -20 9 0 14 5 18 20 14 11 -3 20 -7 20 -9z"/>
<path d="M5988 1294 c-5 -4 -8 -15 -8 -25 0 -9 -6 -20 -12 -23 -10 -5 -10 -7 0 -12 6 -3 12 -23 12 -44 0 -22 -5 -40 -12 -43 -7 -2 -10 -7 -7 -11 3 -4 18 -2 33 4 25 9 26 8 21 -18 l-6 -27 17 23 c9 12 25 22 35 22 12 0 19 7 19 20 0 11 5 20 10 20 17 0 11 -22 -11 -46 -11 -12 -16 -25 -11 -28 5 -3 15 1 22 9 11 13 14 13 25 -1 15 -21 35 -10 34 19 0 21 -1 21 -9 2 -6 -17 -9 -17 -14 -4 -4 8 0 31 9 51 8 21 11 39 6 43 -5 3 -14 -7 -19 -22 -10 -28 -10 -27 -11 10 -1 31 2 37 19 37 26 0 25 15 -2 34 -28 20 -38 20 -38 1 0 -10 -10 -15 -30 -15 -29 0 -30 -1 -30 -49 0 -34 -4 -51 -15 -55 -12 -4 -15 2 -15 28 0 19 6 37 13 39 9 4 9 8 1 14 -7 4 -14 19 -15 31 -2 13 -7 20 -11 16z m102 -59 c0 -8 -9 -15 -20 -15 -11 0 -20 7 -20 15 0 8 9 15 20 15 11 0 20 -7 20 -15z m-20 -60 c0 -14 -6 -25 -14 -25 -9 0 -12 8 -8 25 2 14 8 25 13 25 5 0 9 -11 9 -25z"/>
<path d="M6220 1293 c0 -6 -14 -26 -31 -44 -17 -18 -26 -35 -20 -37 6 -2 11 -26 11 -53 0 -43 3 -49 24 -55 42 -10 71 -1 74 24 2 12 -2 22 -8 22 -11 0 -10 13 5 70 2 8 -9 31 -26 50 -16 19 -29 29 -29 23z m28 -45 c20 -20 14 -28 -25 -28 -35 0 -36 0 -18 20 21 23 27 24 43 8z m2 -57 c0 -5 -7 -17 -16 -25 -14 -15 -14 -16 5 -16 12 0 21 -6 21 -15 0 -10 -10 -15 -30 -15 -28 0 -30 2 -30 40 0 36 3 40 25 40 14 0 25 -4 25 -9z"/>
<path d="M6450 1290 c0 -5 -16 -10 -35 -10 -39 0 -48 -16 -12 -23 19 -4 18 -4 -5 -6 -29 -1 -40 -21 -13 -21 10 0 15 -11 15 -35 0 -27 4 -35 18 -35 10 0 28 -8 42 -17 22 -16 23 -16 17 0 -5 14 0 17 23 17 28 0 30 3 30 35 0 19 5 35 10 35 21 0 9 20 -12 21 -17 1 -19 2 -5 6 30 8 18 23 -18 23 -19 0 -35 5 -35 10 0 6 -4 10 -10 10 -5 0 -10 -4 -10 -10z m33 -37 c-7 -2 -21 -2 -30 0 -10 3 -4 5 12 5 17 0 24 -2 18 -5z m10 -50 c-13 -2 -35 -2 -50 0 -16 2 -5 4 22 4 28 0 40 -2 28 -4z m0 -30 c-13 -2 -35 -2 -50 0 -16 2 -5 4 22 4 28 0 40 -2 28 -4z"/>
<path d="M6890 1274 c-14 -14 -35 -27 -47 -30 -27 -7 -31 -26 -5 -23 45 4 72 -2 72 -16 0 -11 -11 -15 -40 -15 -22 0 -40 -2 -40 -5 0 -3 10 -15 22 -27 22 -22 22 -23 3 -26 -11 -2 -24 -8 -29 -13 -6 -5 29 -9 87 -9 58 0 97 4 97 10 0 6 -9 10 -20 10 -24 0 -26 13 -5 34 22 22 19 26 -20 26 -24 0 -35 5 -35 15 0 11 12 15 44 15 25 0 48 -5 51 -10 4 -7 12 -7 24 0 17 9 18 6 11 -26 -5 -19 -16 -44 -25 -54 -10 -11 -12 -20 -6 -24 6 -4 18 6 28 21 9 15 18 29 19 31 1 2 11 -2 23 -9 15 -10 17 -16 9 -26 -6 -8 -8 -17 -4 -21 4 -4 17 5 28 21 l20 27 20 -25 c11 -14 24 -23 29 -19 5 3 -2 19 -16 36 -14 16 -25 41 -25 54 0 21 3 23 19 14 13 -6 22 -7 26 0 3 5 -8 16 -24 25 -16 8 -37 25 -45 37 l-16 22 -32 -31 c-18 -17 -40 -33 -48 -34 -20 -4 -100 38 -107 56 -7 20 -14 18 -43 -11z m50 -19 c11 -13 8 -15 -20 -15 -28 0 -31 2 -20 15 7 8 16 15 20 15 4 0 13 -7 20 -15z m198 -65 c-12 -45 -18 -48 -40 -22 -18 20 -17 54 2 76 12 15 14 15 30 1 15 -13 16 -22 8 -55z m-228 -40 c0 -11 -4 -20 -10 -20 -5 0 -14 9 -20 20 -9 17 -8 20 10 20 13 0 20 -7 20 -20z m50 16 c0 -2 -3 -11 -6 -20 -9 -23 -24 -20 -24 4 0 11 7 20 15 20 8 0 15 -2 15 -4z"/>
<path d="M4923 1273 c9 -9 19 -14 23 -11 10 10 -6 28 -24 28 -15 0 -15 -1 1 -17z"/>
<path d="M4960 1263 c1 -25 2 -26 14 -10 8 10 26 17 46 17 20 0 38 -7 46 -17 12 -16 13 -15 14 10 0 26 -1 27 -60 27 -59 0 -60 -1 -60 -27z"/>
<path d="M5178 1218 c-3 -40 -8 -81 -12 -90 -5 -11 -4 -18 2 -18 16 0 32 59 32 121 0 84 -17 73 -22 -13z"/>
<path d="M5260 1200 c0 -53 4 -90 10 -90 6 0 10 37 10 90 0 53 -4 90 -10 90 -6 0 -10 -37 -10 -90z"/>
<path d="M5650 1274 c0 -9 -8 -23 -17 -30 -16 -12 -16 -13 -2 -14 9 0 19 -9 22 -20 4 -15 14 -20 41 -20 36 0 59 21 41 38 -4 4 -10 1 -12 -5 -6 -18 -53 -17 -53 1 0 7 14 19 30 26 17 7 30 17 30 22 0 6 -7 7 -15 4 -8 -3 -22 -9 -30 -12 -10 -4 -15 0 -15 10 0 9 -4 16 -10 16 -5 0 -10 -7 -10 -16z"/>
<path d="M6330 1205 c0 -81 -1 -85 -22 -85 -16 0 -19 -3 -11 -11 6 -6 20 -8 32 -4 19 6 21 14 21 96 0 53 -4 89 -10 89 -6 0 -10 -35 -10 -85z"/>
<path d="M6574 1277 c-3 -8 -4 -49 -2 -91 l3 -77 88 -2 87 -2 0 93 0 92 -85 0 c-62 0 -87 -4 -91 -13z m156 -32 c0 -24 -2 -25 -65 -25 -37 0 -65 -4 -65 -10 0 -5 9 -10 20 -10 23 0 24 -4 10 -31 -6 -10 -17 -19 -25 -19 -12 0 -15 14 -15 60 l0 60 70 0 c68 0 70 -1 70 -25z m-27 -108 c19 -2 9 -4 -25 -5 l-57 -2 22 33 22 34 3 -28 c3 -23 9 -29 35 -32z m27 52 c0 -11 -24 -39 -34 -39 -3 0 -6 11 -6 25 0 18 5 25 20 25 11 0 20 -5 20 -11z"/>
<path d="M6615 1240 c3 -5 26 -10 50 -10 24 0 47 5 50 10 4 6 -15 10 -50 10 -35 0 -54 -4 -50 -10z"/>
<path d="M7489 1233 l0 -58 -16 38 c-14 35 -42 55 -29 21 3 -9 9 -27 12 -40 3 -13 12 -24 20 -24 8 0 14 -9 14 -20 0 -16 -7 -20 -31 -20 -17 0 -28 -4 -24 -10 3 -5 46 -10 96 -10 53 0 89 4 89 10 0 6 -13 10 -30 10 -37 0 -39 20 -5 54 14 14 25 34 25 46 0 29 -7 25 -29 -17 l-20 -38 -1 58 c0 31 -4 57 -10 57 -6 0 -10 -33 -10 -80 0 -64 -3 -80 -15 -80 -12 0 -15 16 -15 80 0 47 -4 80 -10 80 -5 0 -10 -26 -11 -57z"/>
<path d="M7720 1206 c0 -80 -1 -85 -22 -89 -20 -3 -21 -4 -5 -11 39 -18 47 -1 47 94 0 53 -4 90 -10 90 -6 0 -10 -35 -10 -84z"/>
<path d="M7850 1200 l0 -90 90 0 c53 0 90 4 90 10 0 6 -33 10 -80 10 l-80 0 0 70 0 70 80 0 c47 0 80 4 80 10 0 6 -37 10 -90 10 l-90 0 0 -90z"/>
<path d="M5220 1205 c0 -43 4 -75 10 -75 6 0 10 32 10 75 0 43 -4 75 -10 75 -6 0 -10 -32 -10 -75z"/>
<path d="M6290 1210 c0 -33 4 -60 10 -60 6 0 10 27 10 60 0 33 -4 60 -10 60 -6 0 -10 -27 -10 -60z"/>
<path d="M7240 1260 c0 -5 16 -10 35 -10 l35 0 0 -55 0 -55 -40 0 c-22 0 -40 -4 -40 -10 0 -6 38 -10 95 -10 57 0 95 4 95 10 0 6 -20 10 -45 10 l-45 0 0 55 0 55 40 0 c22 0 40 5 40 10 0 6 -35 10 -85 10 -50 0 -85 -4 -85 -10z"/>
<path d="M4977 1235 c-10 -14 -14 -25 -9 -25 10 0 42 33 42 43 0 14 -16 5 -33 -18z"/>
<path d="M5030 1253 c0 -12 38 -48 45 -41 3 2 -6 15 -20 28 -14 13 -25 19 -25 13z"/>
<path d="M7970 1240 c-13 -24 -33 -26 -50 -5 -7 8 -17 15 -23 15 -6 0 0 -12 14 -26 l24 -26 -29 -24 c-37 -32 -25 -44 15 -15 l31 23 23 -22 c13 -12 26 -17 29 -12 3 5 -3 17 -14 27 -24 22 -25 38 -5 55 17 14 20 30 5 30 -5 0 -14 -9 -20 -20z"/>
<path d="M7777 1244 c-7 -8 34 -94 46 -94 10 0 1 32 -20 73 -14 29 -16 30 -26 21z"/>
<path d="M4900 1232 c0 -11 37 -32 44 -25 3 3 -2 12 -12 19 -19 15 -32 18 -32 6z"/>
<path d="M7660 1225 c0 -9 -7 -29 -15 -45 -9 -17 -11 -30 -6 -30 13 0 27 20 39 58 9 26 8 32 -4 32 -7 0 -14 -7 -14 -15z"/>
<path d="M5010 1210 c0 -5 -11 -10 -25 -10 -14 0 -25 -4 -25 -10 0 -5 10 -10 22 -10 21 0 21 -1 -7 -30 -22 -23 -25 -30 -12 -30 9 0 23 10 31 22 16 22 16 22 16 -10 0 -17 5 -32 10 -32 6 0 10 12 10 27 0 25 1 25 18 10 33 -30 47 -19 17 13 -28 29 -28 30 -7 30 12 0 22 5 22 10 0 6 -11 10 -25 10 -14 0 -25 5 -25 10 0 6 -4 10 -10 10 -5 0 -10 -4 -10 -10z"/>
<path d="M8730 1150 l0 -60 60 0 c53 0 60 2 60 20 0 17 -7 20 -40 20 l-40 0 0 40 c0 33 -3 40 -20 40 -18 0 -20 -7 -20 -60z"/>
<path d="M8810 1190 c0 -13 7 -20 20 -20 13 0 20 7 20 20 0 13 -7 20 -20 20 -13 0 -20 -7 -20 -20z"/>
<path d="M5640 1180 c0 -5 -20 -10 -45 -10 -25 0 -45 -4 -45 -10 0 -5 20 -10 45 -10 41 0 45 -2 45 -25 0 -14 5 -25 10 -25 6 0 10 11 10 25 0 23 4 25 40 25 22 0 40 5 40 10 0 6 -18 10 -40 10 -22 0 -40 5 -40 10 0 6 -4 10 -10 10 -5 0 -10 -4 -10 -10z"/>
<path d="M5840 1172 c0 -10 -7 -27 -15 -38 -17 -22 -19 -34 -5 -34 11 0 40 53 40 75 0 8 -4 15 -10 15 -5 0 -10 -8 -10 -18z"/>
<path d="M5890 1145 c0 -25 5 -45 10 -45 6 0 10 20 10 45 0 25 -4 45 -10 45 -5 0 -10 -20 -10 -45z"/>
<path d="M4920 1150 c-17 -41 -6 -50 14 -11 18 35 19 41 7 41 -5 0 -14 -14 -21 -30z"/>
<path d="M6382 1130 c-10 -17 -10 -20 3 -20 8 0 15 2 15 4 0 2 3 11 6 20 9 23 -9 20 -24 -4z"/>
<path d="M6422 1128 c2 -19 10 -24 41 -26 33 -3 39 0 44 19 6 21 7 21 19 4 16 -21 27 -16 18 9 -8 20 -28 21 -48 1 -8 -8 -24 -15 -35 -15 -12 0 -21 6 -21 15 0 8 -5 15 -11 15 -6 0 -9 -10 -7 -22z"/>
<path d="M8570 910 l0 -140 140 0 140 0 0 140 0 140 -140 0 -140 0 0 -140z m240 5 l0 -95 -100 0 -100 0 0 95 0 95 100 0 100 0 0 -95z"/>
<path d="M8657 973 c-4 -3 -7 -33 -7 -65 l0 -58 60 0 60 0 0 65 0 65 -53 0 c-30 0 -57 -3 -60 -7z"/>
<path d="M5260 986 c0 -16 -6 -26 -15 -26 -18 0 -20 -17 -3 -22 10 -4 10 -10 0 -32 -18 -39 -15 -68 3 -36 14 25 14 24 15 -18 0 -26 4 -41 10 -37 6 3 10 24 10 46 0 38 1 39 35 39 33 0 35 -2 35 -35 0 -26 -4 -35 -17 -35 -13 0 -14 -3 -6 -11 22 -22 43 -2 43 41 0 33 3 40 20 40 11 0 20 5 20 10 0 6 -7 10 -16 10 -9 0 -23 8 -30 18 -13 16 -13 16 -14 0 0 -10 -5 -18 -11 -18 -6 0 -8 7 -5 16 3 9 6 18 6 20 0 2 18 4 40 4 22 0 40 5 40 10 0 6 -15 10 -34 10 -19 0 -37 6 -39 13 -4 8 -8 8 -14 2 -4 -5 -18 -16 -30 -23 -20 -11 -23 -10 -23 7 0 11 -4 23 -10 26 -6 4 -10 -5 -10 -19z m60 -32 c0 -3 -5 -15 -11 -26 -8 -15 -13 -17 -19 -8 -4 7 -3 19 3 26 12 14 27 18 27 8z"/>
<path d="M5890 1002 c0 -7 -16 -12 -40 -12 -33 0 -40 -3 -40 -20 0 -14 10 -22 33 -28 31 -8 32 -9 10 -21 -33 -17 -29 -34 7 -26 19 4 30 3 30 -4 0 -6 -13 -11 -29 -11 -17 0 -33 -4 -36 -10 -4 -6 8 -10 29 -10 20 0 36 -4 36 -10 0 -5 -18 -10 -40 -10 -22 0 -40 -4 -40 -10 0 -6 39 -10 96 -10 61 0 93 4 89 10 -3 6 -24 10 -46 10 -21 0 -39 5 -39 10 0 6 16 10 36 10 21 0 33 4 29 10 -3 6 -19 10 -36 10 -16 0 -29 5 -29 11 0 7 12 10 30 7 34 -5 36 -2 15 23 -15 15 -14 17 10 23 16 4 25 13 25 26 0 16 -7 20 -38 20 -21 0 -43 5 -50 12 -9 9 -12 9 -12 0z m48 -39 c-21 -2 -55 -2 -75 0 -21 2 -4 4 37 4 41 0 58 -2 38 -4z m-8 -33 c0 -5 -6 -10 -14 -10 -8 0 -23 -3 -33 -7 -16 -6 -16 -5 -4 10 15 18 51 23 51 7z"/>
<path d="M4913 983 c-24 -9 -13 -21 20 -19 30 1 32 -1 30 -28 -1 -17 -15 -43 -33 -61 -16 -17 -30 -34 -30 -38 0 -4 23 -7 50 -7 28 0 50 5 50 10 0 6 -13 10 -30 10 l-29 0 24 36 c27 40 32 73 13 92 -12 12 -43 15 -65 5z"/>
<path d="M5027 972 c-24 -26 -23 -104 1 -125 25 -23 48 -21 66 5 48 68 -15 178 -67 120z m58 -32 c10 -44 -3 -90 -25 -90 -20 0 -30 19 -30 60 0 41 10 60 30 60 12 0 21 -10 25 -30z"/>
<path d="M5140 980 c-12 -8 -12 -10 3 -16 23 -8 25 -114 3 -114 -8 0 -18 -4 -21 -10 -4 -6 12 -10 39 -10 25 0 46 5 46 10 0 6 -7 10 -15 10 -12 0 -15 14 -15 70 0 71 -7 81 -40 60z"/>
<path d="M5480 950 c0 -38 2 -40 29 -40 35 0 45 -12 36 -41 -6 -18 -13 -20 -41 -16 -37 6 -47 -8 -13 -18 35 -11 68 3 75 32 9 34 -6 57 -40 61 -36 5 -31 36 7 40 42 5 32 22 -13 22 l-40 0 0 -40z"/>
<path d="M5600 971 c-5 -11 -10 -38 -10 -61 0 -54 15 -80 45 -80 30 0 45 26 45 80 0 54 -15 80 -45 80 -14 0 -29 -8 -35 -19z m54 -17 c15 -39 3 -104 -19 -104 -16 0 -25 22 -25 60 0 38 9 60 25 60 7 0 16 -7 19 -16z"/>
<path d="M5720 980 c-12 -8 -12 -10 3 -16 23 -8 25 -114 3 -114 -8 0 -18 -4 -21 -10 -4 -6 12 -10 39 -10 25 0 46 5 46 10 0 6 -7 10 -15 10 -12 0 -15 14 -15 70 0 71 -7 81 -40 60z"/>
<path d="M831 862 c-39 -61 -39 -72 -1 -72 20 0 30 -5 30 -15 0 -8 5 -15 10 -15 6 0 10 6 10 14 0 8 6 17 13 20 10 5 10 7 0 12 -8 3 -13 25 -13 55 0 27 -4 49 -9 49 -5 0 -23 -22 -40 -48z m29 -22 c0 -24 -4 -30 -21 -30 -20 0 -20 1 -2 30 9 17 19 30 20 30 2 0 3 -13 3 -30z"/>
<path d="M926 888 c-19 -27 -21 -88 -3 -110 12 -17 27 -21 59 -19 34 2 45 100 15 139 -15 19 -54 14 -71 -10z m64 -17 c14 -28 13 -64 -4 -87 -31 -40 -68 19 -52 82 8 29 41 32 56 5z"/>
<path d="M1046 894 c-10 -10 -16 -33 -16 -64 0 -42 4 -52 25 -66 23 -15 27 -15 50 0 21 14 25 24 25 66 0 52 -17 80 -50 80 -10 0 -26 -7 -34 -16z m62 -55 c3 -50 -13 -74 -42 -63 -12 4 -16 19 -16 53 0 54 5 63 35 59 16 -2 21 -12 23 -49z"/>
<path d="M1216 894 c-34 -33 -8 -90 37 -82 30 6 37 -12 12 -32 -13 -10 -19 -10 -34 4 -12 11 -21 13 -25 7 -9 -14 32 -40 54 -34 11 3 25 12 31 20 16 19 16 98 -1 117 -16 20 -54 20 -74 0z m59 -34 c0 -18 -6 -26 -23 -28 -13 -2 -25 3 -28 12 -10 26 4 48 28 44 17 -2 23 -10 23 -28z"/>
<path d="M1330 891 c-5 -11 -10 -40 -10 -65 0 -38 4 -48 25 -62 23 -15 27 -15 50 0 21 14 25 24 25 66 0 55 -18 80 -55 80 -14 0 -29 -8 -35 -19z m68 -52 c3 -50 -13 -74 -42 -63 -12 4 -16 19 -16 53 0 54 5 63 35 59 16 -2 21 -12 23 -49z"/>
<path d="M1444 885 c-18 -27 -15 -98 4 -117 14 -14 61 -13 75 1 16 16 15 104 -2 124 -20 25 -58 21 -77 -8z m64 -7 c25 -25 8 -108 -23 -108 -8 0 -19 9 -25 19 -29 55 10 127 48 89z"/>
<path d="M1622 898 c-17 -17 -15 -63 3 -78 8 -7 26 -10 40 -7 31 5 32 -19 2 -37 -14 -9 -21 -7 -31 7 -16 21 -26 22 -26 2 0 -18 38 -35 60 -27 42 14 57 104 22 135 -22 20 -53 22 -70 5z m62 -23 c9 -25 -4 -45 -30 -45 -18 0 -24 5 -24 23 0 13 3 27 7 30 12 12 41 7 47 -8z"/>
<path d="M1763 891 c-22 -18 -22 -19 -3 -24 17 -4 20 -14 20 -56 0 -28 5 -51 10 -51 6 0 10 32 10 75 0 41 -3 75 -7 75 -5 -1 -18 -9 -30 -19z"/>
<path d="M1855 886 c-24 -37 -16 -107 13 -122 47 -23 84 12 67 65 -5 16 -15 21 -42 21 -28 0 -34 3 -29 16 3 9 6 18 6 20 0 9 37 3 48 -8 17 -17 28 -2 12 17 -19 23 -57 18 -75 -9z m60 -81 c0 -23 -5 -30 -19 -30 -28 0 -43 29 -26 50 21 25 45 14 45 -20z"/>
<path d="M1983 903 c-7 -2 -17 -22 -23 -43 -18 -69 20 -122 71 -97 51 26 30 92 -26 85 -27 -3 -31 -1 -27 15 6 25 30 33 54 18 26 -16 34 -8 13 13 -16 16 -38 19 -62 9z m51 -86 c8 -12 7 -21 -6 -33 -22 -22 -48 -11 -48 20 0 37 34 45 54 13z"/>
<path d="M9327 893 c-15 -15 -7 -43 13 -43 15 0 20 7 20 25 0 24 -18 34 -33 18z"/>
<path d="M5302 855 c-14 -29 2 -34 18 -6 12 24 13 31 2 31 -5 0 -14 -11 -20 -25z"/>
<path d="M5380 872 c0 -15 28 -47 35 -40 8 8 -13 48 -25 48 -6 0 -10 -4 -10 -8z"/>
<path d="M9280 795 c0 -24 3 -25 60 -25 57 0 60 1 60 25 0 24 -3 25 -60 25 -57 0 -60 -1 -60 -25z"/>
<path d="M9830 795 c0 -20 5 -25 25 -25 20 0 25 5 25 25 0 20 -5 25 -25 25 -20 0 -25 -5 -25 -25z"/>
</g>
<!--Generated by the Batik Graphics2D SVG Generator--><defs id="genericDefs"/><g><g font-family="'思源黑体 Normal'" font-size="80px"><path d="M77.5938 70 L77.5938 6.3125 L84.0781 6.3125 L84.0781 24 L83.8438 33.0469 Q87.5156 29.5156 90.4062 27.8438 Q94.2344 25.6875 98.3125 25.6875 Q111.5156 25.6875 111.5156 42.5625 L111.5156 70 L104.9531 70 L104.9531 43.3594 Q104.9531 37.125 102.9141 34.2422 Q100.875 31.3594 96.4062 31.3594 Q93.125 31.3594 90.2344 33.125 Q87.6875 34.6406 84.0781 38.4062 L84.0781 70 L77.5938 70 ZM122.3863 48.4844 Q122.3863 38.3125 128.3082 31.7656 Q133.9175 25.6875 141.6675 25.6875 Q149.7457 25.6875 154.23 31.0859 Q158.7144 36.4844 158.7144 45.9219 Q158.7144 48.4844 158.3863 49.8438 L128.8707 49.8438 Q129.1988 57.0469 133.1988 61.4453 Q137.1988 65.8438 143.6675 65.8438 Q149.4332 65.8438 154.6363 62.3125 L157.0269 66.6406 Q150.1519 71.0469 142.8707 71.0469 Q134.0738 71.0469 128.3863 65.0469 Q122.3863 58.7969 122.3863 48.4844 ZM128.7925 45.125 L152.9488 45.125 Q152.9488 38.2344 150.0269 34.5938 Q147.105 30.9531 141.7457 30.9531 Q136.7925 30.9531 133.1988 34.6406 Q129.4332 38.5625 128.7925 45.125 ZM169.6583 62.0781 L169.6583 6.3125 L176.1427 6.3125 L176.1427 62.5625 Q176.1427 65.5938 178.1427 65.5938 Q178.8614 65.5938 179.6583 65.4375 L180.627 70.4844 Q178.7833 71.0469 176.7052 71.0469 Q169.6583 71.0469 169.6583 62.0781 ZM191.9745 62.0781 L191.9745 6.3125 L198.4589 6.3125 L198.4589 62.5625 Q198.4589 65.5938 200.4589 65.5938 Q201.1777 65.5938 201.9745 65.4375 L202.9433 70.4844 Q201.0995 71.0469 199.0214 71.0469 Q191.9745 71.0469 191.9745 62.0781 ZM210.9314 48.4844 Q210.9314 38 216.9314 31.6875 Q222.4627 25.6875 230.7752 25.6875 Q239.1033 25.6875 244.6971 31.6875 Q250.6971 38 250.6971 48.4844 Q250.6971 58.7969 244.6971 65.125 Q239.1033 71.0469 230.8221 71.0469 Q222.5408 71.0469 216.9314 65.125 Q210.9314 58.7969 210.9314 48.4844 ZM221.2908 60.875 Q224.9314 65.5938 230.7752 65.5938 Q236.6189 65.5938 240.2986 60.875 Q243.9783 56.1562 243.9783 48.4766 Q243.9783 40.7969 240.2986 36 Q236.6189 31.2031 230.7752 31.2031 Q224.9314 31.2031 221.2908 35.9609 Q217.6502 40.7188 217.6502 48.4375 Q217.6502 56.1562 221.2908 60.875 ZM274.8422 26.7969 L281.4828 26.7969 L288.2797 52.4844 Q288.9203 55.3594 290.1235 60.875 Q290.686 63.2031 290.9203 64.4062 L291.2485 64.4062 Q291.6391 62.7969 292.4516 59.6875 Q293.6391 54.9531 294.2797 52.4844 L301.2485 26.7969 L307.811 26.7969 L314.8422 52.4844 Q315.1703 53.8438 315.8891 56.4062 Q317.1703 61.6875 317.8891 64.4062 L318.2016 64.4062 Q318.6078 62.7969 319.3266 59.6875 Q320.3735 54.9531 320.9985 52.4844 L327.6391 26.7969 L333.8891 26.7969 L322.0453 70 L314.1235 70 L307.561 45.9219 Q306.686 42.875 305.3266 36.9531 Q304.8422 34.6406 304.5297 33.4375 L304.1235 33.4375 Q304.1235 33.5156 304.0453 33.7656 Q302.2797 42 300.9985 46 L294.686 70 L286.9985 70 L274.8422 26.7969 ZM340.1897 48.4844 Q340.1897 38 346.1897 31.6875 Q351.721 25.6875 360.0335 25.6875 Q368.3616 25.6875 373.9554 31.6875 Q379.9554 38 379.9554 48.4844 Q379.9554 58.7969 373.9554 65.125 Q368.3616 71.0469 360.0804 71.0469 Q351.7991 71.0469 346.1897 65.125 Q340.1897 58.7969 340.1897 48.4844 ZM350.5491 60.875 Q354.1897 65.5938 360.0335 65.5938 Q365.8772 65.5938 369.5569 60.875 Q373.2366 56.1562 373.2366 48.4766 Q373.2366 40.7969 369.5569 36 Q365.8772 31.2031 360.0335 31.2031 Q354.1897 31.2031 350.5491 35.9609 Q346.9085 40.7188 346.9085 48.4375 Q346.9085 56.1562 350.5491 60.875 ZM391.701 70 L391.701 26.7969 L396.9823 26.7969 L397.6229 34.7188 L397.8729 34.7188 Q400.1073 30.5625 403.3104 28.1562 Q406.5135 25.6875 410.1073 25.6875 Q412.7479 25.6875 414.6698 26.6406 L413.3885 32.3125 Q411.2323 31.5938 409.3104 31.5938 Q406.2635 31.5938 403.4666 33.9219 Q400.2635 36.5625 398.1854 41.8438 L398.1854 70 L391.701 70 ZM422.0159 62.0781 L422.0159 6.3125 L428.5003 6.3125 L428.5003 62.5625 Q428.5003 65.5938 430.5003 65.5938 Q431.2191 65.5938 432.0159 65.4375 L432.9847 70.4844 Q431.1409 71.0469 429.0628 71.0469 Q422.0159 71.0469 422.0159 62.0781 ZM441.0509 48.4844 Q441.0509 38.3125 446.7384 31.8438 Q452.0978 25.6875 459.8634 25.6875 Q463.4572 25.6875 466.5041 27.0469 Q469.0509 28.1562 472.2541 30.7969 L471.9416 23.2812 L471.9416 6.3125 L478.4259 6.3125 L478.4259 70 L473.0509 70 L472.4259 64.7969 L472.2541 64.7969 Q466.0197 71.0469 458.8947 71.0469 Q450.6603 71.0469 445.9416 65.125 Q441.0509 59.2031 441.0509 48.4844 ZM451.0978 60.9609 Q454.3322 65.5156 460.2541 65.5156 Q466.1759 65.5156 471.9416 59.3594 L471.9416 36 Q466.5041 31.2031 460.8947 31.2031 Q455.3009 31.2031 451.5822 36.0391 Q447.8634 40.875 447.8634 48.4062 Q447.8634 56.4062 451.0978 60.9609 Z" stroke="none"/></g></g></svg>