<?xml version="1.0" encoding="utf-8"?>
<!-- Generator: Adobe Illustrator 21.0.0, SVG Export Plug-In . SVG Version: 6.00 Build 0)  -->
<svg version="1.1" id="图层_1" xmlns="http://www.w3.org/2000/svg" xmlns:xlink="http://www.w3.org/1999/xlink" x="0px" y="0px"
	 viewBox="0 0 255.1 141.7" style="enable-background:new 0 0 255.1 141.7;" xml:space="preserve">
<style type="text/css">
	.st0{fill:#FFFFFF;}
</style>
<rect x="56.7" y="-56.7" transform="matrix(-1.836970e-16 1 -1 -1.836970e-16 198.4252 -56.6929)" class="st0" width="141.7" height="255.1"/>
<g>
	<rect x="205.7" y="92.1" width="0.9" height="0.9"/>
	<rect x="205.7" y="93.1" width="0.9" height="0.9"/>
	<rect x="205.7" y="94" width="0.9" height="0.9"/>
	<rect x="205.7" y="95" width="0.9" height="0.9"/>
	<rect x="205.7" y="95.9" width="0.9" height="0.9"/>
	<rect x="205.7" y="96.8" width="0.9" height="0.9"/>
	<rect x="205.7" y="97.8" width="0.9" height="0.9"/>
	<rect x="205.7" y="98.7" class="st0" width="0.9" height="0.9"/>
	<rect x="205.7" y="99.7" class="st0" width="0.9" height="0.9"/>
	<rect x="205.7" y="100.6" width="0.9" height="0.9"/>
	<rect x="205.7" y="101.6" class="st0" width="0.9" height="0.9"/>
	<rect x="205.7" y="102.5" width="0.9" height="0.9"/>
	<rect x="205.7" y="103.5" width="0.9" height="0.9"/>
	<rect x="205.7" y="104.4" width="0.9" height="0.9"/>
	<rect x="205.7" y="105.3" width="0.9" height="0.9"/>
	<rect x="205.7" y="106.3" width="0.9" height="0.9"/>
	<rect x="205.7" y="107.2" class="st0" width="0.9" height="0.9"/>
	<rect x="205.7" y="108.2" class="st0" width="0.9" height="0.9"/>
	<rect x="205.7" y="109.1" class="st0" width="0.9" height="0.9"/>
	<rect x="205.7" y="110.1" width="0.9" height="0.9"/>
	<rect x="205.7" y="111" class="st0" width="0.9" height="0.9"/>
	<rect x="205.7" y="112" class="st0" width="0.9" height="0.9"/>
	<rect x="205.7" y="112.9" width="0.9" height="0.9"/>
	<rect x="205.7" y="113.8" class="st0" width="0.9" height="0.9"/>
	<rect x="205.7" y="114.8" width="0.9" height="0.9"/>
	<rect x="205.7" y="115.7" class="st0" width="0.9" height="0.9"/>
	<rect x="205.7" y="116.7" width="0.9" height="0.9"/>
	<rect x="205.7" y="117.6" width="0.9" height="0.9"/>
	<rect x="205.7" y="118.6" width="0.9" height="0.9"/>
	<rect x="205.7" y="119.5" width="0.9" height="0.9"/>
	<rect x="205.7" y="120.5" width="0.9" height="0.9"/>
	<rect x="205.7" y="121.4" width="0.9" height="0.9"/>
	<rect x="205.7" y="122.4" width="0.9" height="0.9"/>
	<rect x="206.6" y="92.1" width="0.9" height="0.9"/>
	<rect x="206.6" y="93.1" class="st0" width="0.9" height="0.9"/>
	<rect x="206.6" y="94" class="st0" width="0.9" height="0.9"/>
	<rect x="206.6" y="95" class="st0" width="0.9" height="0.9"/>
	<rect x="206.6" y="95.9" class="st0" width="0.9" height="0.9"/>
	<rect x="206.6" y="96.8" class="st0" width="0.9" height="0.9"/>
	<rect x="206.6" y="97.8" width="0.9" height="0.9"/>
	<rect x="206.6" y="98.7" class="st0" width="0.9" height="0.9"/>
	<rect x="206.6" y="99.7" width="0.9" height="0.9"/>
	<rect x="206.6" y="100.6" class="st0" width="0.9" height="0.9"/>
	<rect x="206.6" y="101.6" width="0.9" height="0.9"/>
	<rect x="206.6" y="102.5" width="0.9" height="0.9"/>
	<rect x="206.6" y="103.5" width="0.9" height="0.9"/>
	<rect x="206.6" y="104.4" width="0.9" height="0.9"/>
	<rect x="206.6" y="105.3" class="st0" width="0.9" height="0.9"/>
	<rect x="206.6" y="106.3" class="st0" width="0.9" height="0.9"/>
	<rect x="206.6" y="107.2" width="0.9" height="0.9"/>
	<rect x="206.6" y="108.2" class="st0" width="0.9" height="0.9"/>
	<rect x="206.6" y="109.1" class="st0" width="0.9" height="0.9"/>
	<rect x="206.6" y="110.1" width="0.9" height="0.9"/>
	<rect x="206.6" y="111" class="st0" width="0.9" height="0.9"/>
	<rect x="206.6" y="112" width="0.9" height="0.9"/>
	<rect x="206.6" y="112.9" width="0.9" height="0.9"/>
	<rect x="206.6" y="113.8" class="st0" width="0.9" height="0.9"/>
	<rect x="206.6" y="114.8" width="0.9" height="0.9"/>
	<rect x="206.6" y="115.7" class="st0" width="0.9" height="0.9"/>
	<rect x="206.6" y="116.7" width="0.9" height="0.9"/>
	<rect x="206.6" y="117.6" class="st0" width="0.9" height="0.9"/>
	<rect x="206.6" y="118.6" class="st0" width="0.9" height="0.9"/>
	<rect x="206.6" y="119.5" class="st0" width="0.9" height="0.9"/>
	<rect x="206.6" y="120.5" class="st0" width="0.9" height="0.9"/>
	<rect x="206.6" y="121.4" class="st0" width="0.9" height="0.9"/>
	<rect x="206.6" y="122.4" width="0.9" height="0.9"/>
	<rect x="207.6" y="92.1" width="0.9" height="0.9"/>
	<rect x="207.6" y="93.1" class="st0" width="0.9" height="0.9"/>
	<rect x="207.6" y="94" width="0.9" height="0.9"/>
	<rect x="207.6" y="95" width="0.9" height="0.9"/>
	<rect x="207.6" y="95.9" width="0.9" height="0.9"/>
	<rect x="207.6" y="96.8" class="st0" width="0.9" height="0.9"/>
	<rect x="207.6" y="97.8" width="0.9" height="0.9"/>
	<rect x="207.6" y="98.7" class="st0" width="0.9" height="0.9"/>
	<rect x="207.6" y="99.7" width="0.9" height="0.9"/>
	<rect x="207.6" y="100.6" class="st0" width="0.9" height="0.9"/>
	<rect x="207.6" y="101.6" width="0.9" height="0.9"/>
	<rect x="207.6" y="102.5" class="st0" width="0.9" height="0.9"/>
	<rect x="207.6" y="103.5" width="0.9" height="0.9"/>
	<rect x="207.6" y="104.4" width="0.9" height="0.9"/>
	<rect x="207.6" y="105.3" class="st0" width="0.9" height="0.9"/>
	<rect x="207.6" y="106.3" class="st0" width="0.9" height="0.9"/>
	<rect x="207.6" y="107.2" class="st0" width="0.9" height="0.9"/>
	<rect x="207.6" y="108.2" class="st0" width="0.9" height="0.9"/>
	<rect x="207.6" y="109.1" class="st0" width="0.9" height="0.9"/>
	<rect x="207.6" y="110.1" width="0.9" height="0.9"/>
	<rect x="207.6" y="111" width="0.9" height="0.9"/>
	<rect x="207.6" y="112" class="st0" width="0.9" height="0.9"/>
	<rect x="207.6" y="112.9" width="0.9" height="0.9"/>
	<rect x="207.6" y="113.8" width="0.9" height="0.9"/>
	<rect x="207.6" y="114.8" class="st0" width="0.9" height="0.9"/>
	<rect x="207.6" y="115.7" class="st0" width="0.9" height="0.9"/>
	<rect x="207.6" y="116.7" width="0.9" height="0.9"/>
	<rect x="207.6" y="117.6" class="st0" width="0.9" height="0.9"/>
	<rect x="207.6" y="118.6" width="0.9" height="0.9"/>
	<rect x="207.6" y="119.5" width="0.9" height="0.9"/>
	<rect x="207.6" y="120.5" width="0.9" height="0.9"/>
	<rect x="207.6" y="121.4" class="st0" width="0.9" height="0.9"/>
	<rect x="207.6" y="122.4" width="0.9" height="0.9"/>
	<rect x="208.5" y="92.1" width="0.9" height="0.9"/>
	<rect x="208.5" y="93.1" class="st0" width="0.9" height="0.9"/>
	<rect x="208.5" y="94" width="0.9" height="0.9"/>
	<rect x="208.5" y="95" width="0.9" height="0.9"/>
	<rect x="208.5" y="95.9" width="0.9" height="0.9"/>
	<rect x="208.5" y="96.8" class="st0" width="0.9" height="0.9"/>
	<rect x="208.5" y="97.8" width="0.9" height="0.9"/>
	<rect x="208.5" y="98.7" class="st0" width="0.9" height="0.9"/>
	<rect x="208.5" y="99.7" class="st0" width="0.9" height="0.9"/>
	<rect x="208.5" y="100.6" width="0.9" height="0.9"/>
	<rect x="208.5" y="101.6" class="st0" width="0.9" height="0.9"/>
	<rect x="208.5" y="102.5" class="st0" width="0.9" height="0.9"/>
	<rect x="208.5" y="103.5" class="st0" width="0.9" height="0.9"/>
	<rect x="208.5" y="104.4" class="st0" width="0.9" height="0.9"/>
	<rect x="208.5" y="105.3" width="0.9" height="0.9"/>
	<rect x="208.5" y="106.3" width="0.9" height="0.9"/>
	<rect x="208.5" y="107.2" width="0.9" height="0.9"/>
	<rect x="208.5" y="108.2" width="0.9" height="0.9"/>
	<rect x="208.5" y="109.1" width="0.9" height="0.9"/>
	<rect x="208.5" y="110.1" class="st0" width="0.9" height="0.9"/>
	<rect x="208.5" y="111" width="0.9" height="0.9"/>
	<rect x="208.5" y="112" width="0.9" height="0.9"/>
	<rect x="208.5" y="112.9" class="st0" width="0.9" height="0.9"/>
	<rect x="208.5" y="113.8" class="st0" width="0.9" height="0.9"/>
	<rect x="208.5" y="114.8" class="st0" width="0.9" height="0.9"/>
	<rect x="208.5" y="115.7" class="st0" width="0.9" height="0.9"/>
	<rect x="208.5" y="116.7" width="0.9" height="0.9"/>
	<rect x="208.5" y="117.6" class="st0" width="0.9" height="0.9"/>
	<rect x="208.5" y="118.6" width="0.9" height="0.9"/>
	<rect x="208.5" y="119.5" width="0.9" height="0.9"/>
	<rect x="208.5" y="120.5" width="0.9" height="0.9"/>
	<rect x="208.5" y="121.4" class="st0" width="0.9" height="0.9"/>
	<rect x="208.5" y="122.4" width="0.9" height="0.9"/>
	<rect x="209.5" y="92.1" width="0.9" height="0.9"/>
	<rect x="209.5" y="93.1" class="st0" width="0.9" height="0.9"/>
	<rect x="209.5" y="94" width="0.9" height="0.9"/>
	<rect x="209.5" y="95" width="0.9" height="0.9"/>
	<rect x="209.5" y="95.9" width="0.9" height="0.9"/>
	<rect x="209.5" y="96.8" class="st0" width="0.9" height="0.9"/>
	<rect x="209.5" y="97.8" width="0.9" height="0.9"/>
	<rect x="209.5" y="98.7" class="st0" width="0.9" height="0.9"/>
	<rect x="209.5" y="99.7" class="st0" width="0.9" height="0.9"/>
	<rect x="209.5" y="100.6" width="0.9" height="0.9"/>
	<rect x="209.5" y="101.6" class="st0" width="0.9" height="0.9"/>
	<rect x="209.5" y="102.5" class="st0" width="0.9" height="0.9"/>
	<rect x="209.5" y="103.5" class="st0" width="0.9" height="0.9"/>
	<rect x="209.5" y="104.4" width="0.9" height="0.9"/>
	<rect x="209.5" y="105.3" class="st0" width="0.9" height="0.9"/>
	<rect x="209.5" y="106.3" width="0.9" height="0.9"/>
	<rect x="209.5" y="107.2" width="0.9" height="0.9"/>
	<rect x="209.5" y="108.2" width="0.9" height="0.9"/>
	<rect x="209.5" y="109.1" class="st0" width="0.9" height="0.9"/>
	<rect x="209.5" y="110.1" width="0.9" height="0.9"/>
	<rect x="209.5" y="111" class="st0" width="0.9" height="0.9"/>
	<rect x="209.5" y="112" class="st0" width="0.9" height="0.9"/>
	<rect x="209.5" y="112.9" width="0.9" height="0.9"/>
	<rect x="209.5" y="113.8" width="0.9" height="0.9"/>
	<rect x="209.5" y="114.8" width="0.9" height="0.9"/>
	<rect x="209.5" y="115.7" class="st0" width="0.9" height="0.9"/>
	<rect x="209.5" y="116.7" width="0.9" height="0.9"/>
	<rect x="209.5" y="117.6" class="st0" width="0.9" height="0.9"/>
	<rect x="209.5" y="118.6" width="0.9" height="0.9"/>
	<rect x="209.5" y="119.5" width="0.9" height="0.9"/>
	<rect x="209.5" y="120.5" width="0.9" height="0.9"/>
	<rect x="209.5" y="121.4" class="st0" width="0.9" height="0.9"/>
	<rect x="209.5" y="122.4" width="0.9" height="0.9"/>
	<rect x="210.4" y="92.1" width="0.9" height="0.9"/>
	<rect x="210.4" y="93.1" class="st0" width="0.9" height="0.9"/>
	<rect x="210.4" y="94" class="st0" width="0.9" height="0.9"/>
	<rect x="210.4" y="95" class="st0" width="0.9" height="0.9"/>
	<rect x="210.4" y="95.9" class="st0" width="0.9" height="0.9"/>
	<rect x="210.4" y="96.8" class="st0" width="0.9" height="0.9"/>
	<rect x="210.4" y="97.8" width="0.9" height="0.9"/>
	<rect x="210.4" y="98.7" class="st0" width="0.9" height="0.9"/>
	<rect x="210.4" y="99.7" class="st0" width="0.9" height="0.9"/>
	<rect x="210.4" y="100.6" width="0.9" height="0.9"/>
	<rect x="210.4" y="101.6" width="0.9" height="0.9"/>
	<rect x="210.4" y="102.5" width="0.9" height="0.9"/>
	<rect x="210.4" y="103.5" class="st0" width="0.9" height="0.9"/>
	<rect x="210.4" y="104.4" width="0.9" height="0.9"/>
	<rect x="210.4" y="105.3" class="st0" width="0.9" height="0.9"/>
	<rect x="210.4" y="106.3" width="0.9" height="0.9"/>
	<rect x="210.4" y="107.2" class="st0" width="0.9" height="0.9"/>
	<rect x="210.4" y="108.2" class="st0" width="0.9" height="0.9"/>
	<rect x="210.4" y="109.1" class="st0" width="0.9" height="0.9"/>
	<rect x="210.4" y="110.1" width="0.9" height="0.9"/>
	<rect x="210.4" y="111" width="0.9" height="0.9"/>
	<rect x="210.4" y="112" class="st0" width="0.9" height="0.9"/>
	<rect x="210.4" y="112.9" class="st0" width="0.9" height="0.9"/>
	<rect x="210.4" y="113.8" class="st0" width="0.9" height="0.9"/>
	<rect x="210.4" y="114.8" width="0.9" height="0.9"/>
	<rect x="210.4" y="115.7" class="st0" width="0.9" height="0.9"/>
	<rect x="210.4" y="116.7" width="0.9" height="0.9"/>
	<rect x="210.4" y="117.6" class="st0" width="0.9" height="0.9"/>
	<rect x="210.4" y="118.6" class="st0" width="0.9" height="0.9"/>
	<rect x="210.4" y="119.5" class="st0" width="0.9" height="0.9"/>
	<rect x="210.4" y="120.5" class="st0" width="0.9" height="0.9"/>
	<rect x="210.4" y="121.4" class="st0" width="0.9" height="0.9"/>
	<rect x="210.4" y="122.4" width="0.9" height="0.9"/>
	<rect x="211.4" y="92.1" width="0.9" height="0.9"/>
	<rect x="211.4" y="93.1" width="0.9" height="0.9"/>
	<rect x="211.4" y="94" width="0.9" height="0.9"/>
	<rect x="211.4" y="95" width="0.9" height="0.9"/>
	<rect x="211.4" y="95.9" width="0.9" height="0.9"/>
	<rect x="211.4" y="96.8" width="0.9" height="0.9"/>
	<rect x="211.4" y="97.8" width="0.9" height="0.9"/>
	<rect x="211.4" y="98.7" class="st0" width="0.9" height="0.9"/>
	<rect x="211.4" y="99.7" width="0.9" height="0.9"/>
	<rect x="211.4" y="100.6" class="st0" width="0.9" height="0.9"/>
	<rect x="211.4" y="101.6" width="0.9" height="0.9"/>
	<rect x="211.4" y="102.5" class="st0" width="0.9" height="0.9"/>
	<rect x="211.4" y="103.5" width="0.9" height="0.9"/>
	<rect x="211.4" y="104.4" class="st0" width="0.9" height="0.9"/>
	<rect x="211.4" y="105.3" width="0.9" height="0.9"/>
	<rect x="211.4" y="106.3" class="st0" width="0.9" height="0.9"/>
	<rect x="211.4" y="107.2" width="0.9" height="0.9"/>
	<rect x="211.4" y="108.2" class="st0" width="0.9" height="0.9"/>
	<rect x="211.4" y="109.1" width="0.9" height="0.9"/>
	<rect x="211.4" y="110.1" class="st0" width="0.9" height="0.9"/>
	<rect x="211.4" y="111" width="0.9" height="0.9"/>
	<rect x="211.4" y="112" class="st0" width="0.9" height="0.9"/>
	<rect x="211.4" y="112.9" width="0.9" height="0.9"/>
	<rect x="211.4" y="113.8" class="st0" width="0.9" height="0.9"/>
	<rect x="211.4" y="114.8" width="0.9" height="0.9"/>
	<rect x="211.4" y="115.7" class="st0" width="0.9" height="0.9"/>
	<rect x="211.4" y="116.7" width="0.9" height="0.9"/>
	<rect x="211.4" y="117.6" width="0.9" height="0.9"/>
	<rect x="211.4" y="118.6" width="0.9" height="0.9"/>
	<rect x="211.4" y="119.5" width="0.9" height="0.9"/>
	<rect x="211.4" y="120.5" width="0.9" height="0.9"/>
	<rect x="211.4" y="121.4" width="0.9" height="0.9"/>
	<rect x="211.4" y="122.4" width="0.9" height="0.9"/>
	<rect x="212.3" y="92.1" class="st0" width="0.9" height="0.9"/>
	<rect x="212.3" y="93.1" class="st0" width="0.9" height="0.9"/>
	<rect x="212.3" y="94" class="st0" width="0.9" height="0.9"/>
	<rect x="212.3" y="95" class="st0" width="0.9" height="0.9"/>
	<rect x="212.3" y="95.9" class="st0" width="0.9" height="0.9"/>
	<rect x="212.3" y="96.8" class="st0" width="0.9" height="0.9"/>
	<rect x="212.3" y="97.8" class="st0" width="0.9" height="0.9"/>
	<rect x="212.3" y="98.7" class="st0" width="0.9" height="0.9"/>
	<rect x="212.3" y="99.7" class="st0" width="0.9" height="0.9"/>
	<rect x="212.3" y="100.6" width="0.9" height="0.9"/>
	<rect x="212.3" y="101.6" width="0.9" height="0.9"/>
	<rect x="212.3" y="102.5" width="0.9" height="0.9"/>
	<rect x="212.3" y="103.5" class="st0" width="0.9" height="0.9"/>
	<rect x="212.3" y="104.4" width="0.9" height="0.9"/>
	<rect x="212.3" y="105.3" width="0.9" height="0.9"/>
	<rect x="212.3" y="106.3" class="st0" width="0.9" height="0.9"/>
	<rect x="212.3" y="107.2" class="st0" width="0.9" height="0.9"/>
	<rect x="212.3" y="108.2" width="0.9" height="0.9"/>
	<rect x="212.3" y="109.1" class="st0" width="0.9" height="0.9"/>
	<rect x="212.3" y="110.1" class="st0" width="0.9" height="0.9"/>
	<rect x="212.3" y="111" width="0.9" height="0.9"/>
	<rect x="212.3" y="112" class="st0" width="0.9" height="0.9"/>
	<rect x="212.3" y="112.9" class="st0" width="0.9" height="0.9"/>
	<rect x="212.3" y="113.8" class="st0" width="0.9" height="0.9"/>
	<rect x="212.3" y="114.8" class="st0" width="0.9" height="0.9"/>
	<rect x="212.3" y="115.7" class="st0" width="0.9" height="0.9"/>
	<rect x="212.3" y="116.7" class="st0" width="0.9" height="0.9"/>
	<rect x="212.3" y="117.6" class="st0" width="0.9" height="0.9"/>
	<rect x="212.3" y="118.6" class="st0" width="0.9" height="0.9"/>
	<rect x="212.3" y="119.5" class="st0" width="0.9" height="0.9"/>
	<rect x="212.3" y="120.5" class="st0" width="0.9" height="0.9"/>
	<rect x="212.3" y="121.4" class="st0" width="0.9" height="0.9"/>
	<rect x="212.3" y="122.4" class="st0" width="0.9" height="0.9"/>
	<rect x="213.2" y="92.1" class="st0" width="0.9" height="0.9"/>
	<rect x="213.2" y="93.1" class="st0" width="0.9" height="0.9"/>
	<rect x="213.2" y="94" class="st0" width="0.9" height="0.9"/>
	<rect x="213.2" y="95" width="0.9" height="0.9"/>
	<rect x="213.2" y="95.9" class="st0" width="0.9" height="0.9"/>
	<rect x="213.2" y="96.8" width="0.9" height="0.9"/>
	<rect x="213.2" y="97.8" width="0.9" height="0.9"/>
	<rect x="213.2" y="98.7" width="0.9" height="0.9"/>
	<rect x="213.2" y="99.7" class="st0" width="0.9" height="0.9"/>
	<rect x="213.2" y="100.6" width="0.9" height="0.9"/>
	<rect x="213.2" y="101.6" class="st0" width="0.9" height="0.9"/>
	<rect x="213.2" y="102.5" class="st0" width="0.9" height="0.9"/>
	<rect x="213.2" y="103.5" width="0.9" height="0.9"/>
	<rect x="213.2" y="104.4" width="0.9" height="0.9"/>
	<rect x="213.2" y="105.3" width="0.9" height="0.9"/>
	<rect x="213.2" y="106.3" width="0.9" height="0.9"/>
	<rect x="213.2" y="107.2" width="0.9" height="0.9"/>
	<rect x="213.2" y="108.2" class="st0" width="0.9" height="0.9"/>
	<rect x="213.2" y="109.1" class="st0" width="0.9" height="0.9"/>
	<rect x="213.2" y="110.1" width="0.9" height="0.9"/>
	<rect x="213.2" y="111" class="st0" width="0.9" height="0.9"/>
	<rect x="213.2" y="112" class="st0" width="0.9" height="0.9"/>
	<rect x="213.2" y="112.9" width="0.9" height="0.9"/>
	<rect x="213.2" y="113.8" class="st0" width="0.9" height="0.9"/>
	<rect x="213.2" y="114.8" width="0.9" height="0.9"/>
	<rect x="213.2" y="115.7" width="0.9" height="0.9"/>
	<rect x="213.2" y="116.7" class="st0" width="0.9" height="0.9"/>
	<rect x="213.2" y="117.6" class="st0" width="0.9" height="0.9"/>
	<rect x="213.2" y="118.6" class="st0" width="0.9" height="0.9"/>
	<rect x="213.2" y="119.5" class="st0" width="0.9" height="0.9"/>
	<rect x="213.2" y="120.5" width="0.9" height="0.9"/>
	<rect x="213.2" y="121.4" width="0.9" height="0.9"/>
	<rect x="213.2" y="122.4" class="st0" width="0.9" height="0.9"/>
	<rect x="214.2" y="92.1" class="st0" width="0.9" height="0.9"/>
	<rect x="214.2" y="93.1" class="st0" width="0.9" height="0.9"/>
	<rect x="214.2" y="94" width="0.9" height="0.9"/>
	<rect x="214.2" y="95" class="st0" width="0.9" height="0.9"/>
	<rect x="214.2" y="95.9" class="st0" width="0.9" height="0.9"/>
	<rect x="214.2" y="96.8" class="st0" width="0.9" height="0.9"/>
	<rect x="214.2" y="97.8" class="st0" width="0.9" height="0.9"/>
	<rect x="214.2" y="98.7" class="st0" width="0.9" height="0.9"/>
	<rect x="214.2" y="99.7" class="st0" width="0.9" height="0.9"/>
	<rect x="214.2" y="100.6" width="0.9" height="0.9"/>
	<rect x="214.2" y="101.6" width="0.9" height="0.9"/>
	<rect x="214.2" y="102.5" class="st0" width="0.9" height="0.9"/>
	<rect x="214.2" y="103.5" class="st0" width="0.9" height="0.9"/>
	<rect x="214.2" y="104.4" class="st0" width="0.9" height="0.9"/>
	<rect x="214.2" y="105.3" class="st0" width="0.9" height="0.9"/>
	<rect x="214.2" y="106.3" width="0.9" height="0.9"/>
	<rect x="214.2" y="107.2" width="0.9" height="0.9"/>
	<rect x="214.2" y="108.2" class="st0" width="0.9" height="0.9"/>
	<rect x="214.2" y="109.1" class="st0" width="0.9" height="0.9"/>
	<rect x="214.2" y="110.1" width="0.9" height="0.9"/>
	<rect x="214.2" y="111" width="0.9" height="0.9"/>
	<rect x="214.2" y="112" width="0.9" height="0.9"/>
	<rect x="214.2" y="112.9" class="st0" width="0.9" height="0.9"/>
	<rect x="214.2" y="113.8" width="0.9" height="0.9"/>
	<rect x="214.2" y="114.8" width="0.9" height="0.9"/>
	<rect x="214.2" y="115.7" width="0.9" height="0.9"/>
	<rect x="214.2" y="116.7" width="0.9" height="0.9"/>
	<rect x="214.2" y="117.6" width="0.9" height="0.9"/>
	<rect x="214.2" y="118.6" class="st0" width="0.9" height="0.9"/>
	<rect x="214.2" y="119.5" width="0.9" height="0.9"/>
	<rect x="214.2" y="120.5" class="st0" width="0.9" height="0.9"/>
	<rect x="214.2" y="121.4" class="st0" width="0.9" height="0.9"/>
	<rect x="214.2" y="122.4" width="0.9" height="0.9"/>
	<rect x="215.1" y="92.1" class="st0" width="0.9" height="0.9"/>
	<rect x="215.1" y="93.1" class="st0" width="0.9" height="0.9"/>
	<rect x="215.1" y="94" width="0.9" height="0.9"/>
	<rect x="215.1" y="95" width="0.9" height="0.9"/>
	<rect x="215.1" y="95.9" width="0.9" height="0.9"/>
	<rect x="215.1" y="96.8" class="st0" width="0.9" height="0.9"/>
	<rect x="215.1" y="97.8" width="0.9" height="0.9"/>
	<rect x="215.1" y="98.7" width="0.9" height="0.9"/>
	<rect x="215.1" y="99.7" width="0.9" height="0.9"/>
	<rect x="215.1" y="100.6" class="st0" width="0.9" height="0.9"/>
	<rect x="215.1" y="101.6" class="st0" width="0.9" height="0.9"/>
	<rect x="215.1" y="102.5" width="0.9" height="0.9"/>
	<rect x="215.1" y="103.5" class="st0" width="0.9" height="0.9"/>
	<rect x="215.1" y="104.4" width="0.9" height="0.9"/>
	<rect x="215.1" y="105.3" width="0.9" height="0.9"/>
	<rect x="215.1" y="106.3" width="0.9" height="0.9"/>
	<rect x="215.1" y="107.2" class="st0" width="0.9" height="0.9"/>
	<rect x="215.1" y="108.2" class="st0" width="0.9" height="0.9"/>
	<rect x="215.1" y="109.1" class="st0" width="0.9" height="0.9"/>
	<rect x="215.1" y="110.1" class="st0" width="0.9" height="0.9"/>
	<rect x="215.1" y="111" width="0.9" height="0.9"/>
	<rect x="215.1" y="112" width="0.9" height="0.9"/>
	<rect x="215.1" y="112.9" width="0.9" height="0.9"/>
	<rect x="215.1" y="113.8" width="0.9" height="0.9"/>
	<rect x="215.1" y="114.8" width="0.9" height="0.9"/>
	<rect x="215.1" y="115.7" class="st0" width="0.9" height="0.9"/>
	<rect x="215.1" y="116.7" width="0.9" height="0.9"/>
	<rect x="215.1" y="117.6" width="0.9" height="0.9"/>
	<rect x="215.1" y="118.6" class="st0" width="0.9" height="0.9"/>
	<rect x="215.1" y="119.5" class="st0" width="0.9" height="0.9"/>
	<rect x="215.1" y="120.5" width="0.9" height="0.9"/>
	<rect x="215.1" y="121.4" class="st0" width="0.9" height="0.9"/>
	<rect x="215.1" y="122.4" width="0.9" height="0.9"/>
	<rect x="216.1" y="92.1" width="0.9" height="0.9"/>
	<rect x="216.1" y="93.1" width="0.9" height="0.9"/>
	<rect x="216.1" y="94" width="0.9" height="0.9"/>
	<rect x="216.1" y="95" class="st0" width="0.9" height="0.9"/>
	<rect x="216.1" y="95.9" width="0.9" height="0.9"/>
	<rect x="216.1" y="96.8" class="st0" width="0.9" height="0.9"/>
	<rect x="216.1" y="97.8" class="st0" width="0.9" height="0.9"/>
	<rect x="216.1" y="98.7" class="st0" width="0.9" height="0.9"/>
	<rect x="216.1" y="99.7" class="st0" width="0.9" height="0.9"/>
	<rect x="216.1" y="100.6" class="st0" width="0.9" height="0.9"/>
	<rect x="216.1" y="101.6" width="0.9" height="0.9"/>
	<rect x="216.1" y="102.5" class="st0" width="0.9" height="0.9"/>
	<rect x="216.1" y="103.5" class="st0" width="0.9" height="0.9"/>
	<rect x="216.1" y="104.4" width="0.9" height="0.9"/>
	<rect x="216.1" y="105.3" class="st0" width="0.9" height="0.9"/>
	<rect x="216.1" y="106.3" class="st0" width="0.9" height="0.9"/>
	<rect x="216.1" y="107.2" width="0.9" height="0.9"/>
	<rect x="216.1" y="108.2" class="st0" width="0.9" height="0.9"/>
	<rect x="216.1" y="109.1" class="st0" width="0.9" height="0.9"/>
	<rect x="216.1" y="110.1" class="st0" width="0.9" height="0.9"/>
	<rect x="216.1" y="111" width="0.9" height="0.9"/>
	<rect x="216.1" y="112" width="0.9" height="0.9"/>
	<rect x="216.1" y="112.9" width="0.9" height="0.9"/>
	<rect x="216.1" y="113.8" class="st0" width="0.9" height="0.9"/>
	<rect x="216.1" y="114.8" class="st0" width="0.9" height="0.9"/>
	<rect x="216.1" y="115.7" class="st0" width="0.9" height="0.9"/>
	<rect x="216.1" y="116.7" class="st0" width="0.9" height="0.9"/>
	<rect x="216.1" y="117.6" class="st0" width="0.9" height="0.9"/>
	<rect x="216.1" y="118.6" width="0.9" height="0.9"/>
	<rect x="216.1" y="119.5" width="0.9" height="0.9"/>
	<rect x="216.1" y="120.5" width="0.9" height="0.9"/>
	<rect x="216.1" y="121.4" class="st0" width="0.9" height="0.9"/>
	<rect x="216.1" y="122.4" width="0.9" height="0.9"/>
	<rect x="217" y="92.1" width="0.9" height="0.9"/>
	<rect x="217" y="93.1" width="0.9" height="0.9"/>
	<rect x="217" y="94" class="st0" width="0.9" height="0.9"/>
	<rect x="217" y="95" width="0.9" height="0.9"/>
	<rect x="217" y="95.9" class="st0" width="0.9" height="0.9"/>
	<rect x="217" y="96.8" width="0.9" height="0.9"/>
	<rect x="217" y="97.8" width="0.9" height="0.9"/>
	<rect x="217" y="98.7" class="st0" width="0.9" height="0.9"/>
	<rect x="217" y="99.7" class="st0" width="0.9" height="0.9"/>
	<rect x="217" y="100.6" width="0.9" height="0.9"/>
	<rect x="217" y="101.6" class="st0" width="0.9" height="0.9"/>
	<rect x="217" y="102.5" class="st0" width="0.9" height="0.9"/>
	<rect x="217" y="103.5" class="st0" width="0.9" height="0.9"/>
	<rect x="217" y="104.4" class="st0" width="0.9" height="0.9"/>
	<rect x="217" y="105.3" class="st0" width="0.9" height="0.9"/>
	<rect x="217" y="106.3" width="0.9" height="0.9"/>
	<rect x="217" y="107.2" width="0.9" height="0.9"/>
	<rect x="217" y="108.2" width="0.9" height="0.9"/>
	<rect x="217" y="109.1" width="0.9" height="0.9"/>
	<rect x="217" y="110.1" width="0.9" height="0.9"/>
	<rect x="217" y="111" width="0.9" height="0.9"/>
	<rect x="217" y="112" class="st0" width="0.9" height="0.9"/>
	<rect x="217" y="112.9" class="st0" width="0.9" height="0.9"/>
	<rect x="217" y="113.8" width="0.9" height="0.9"/>
	<rect x="217" y="114.8" class="st0" width="0.9" height="0.9"/>
	<rect x="217" y="115.7" class="st0" width="0.9" height="0.9"/>
	<rect x="217" y="116.7" width="0.9" height="0.9"/>
	<rect x="217" y="117.6" class="st0" width="0.9" height="0.9"/>
	<rect x="217" y="118.6" width="0.9" height="0.9"/>
	<rect x="217" y="119.5" width="0.9" height="0.9"/>
	<rect x="217" y="120.5" class="st0" width="0.9" height="0.9"/>
	<rect x="217" y="121.4" width="0.9" height="0.9"/>
	<rect x="217" y="122.4" class="st0" width="0.9" height="0.9"/>
	<rect x="218" y="92.1" class="st0" width="0.9" height="0.9"/>
	<rect x="218" y="93.1" width="0.9" height="0.9"/>
	<rect x="218" y="94" class="st0" width="0.9" height="0.9"/>
	<rect x="218" y="95" width="0.9" height="0.9"/>
	<rect x="218" y="95.9" class="st0" width="0.9" height="0.9"/>
	<rect x="218" y="96.8" class="st0" width="0.9" height="0.9"/>
	<rect x="218" y="97.8" class="st0" width="0.9" height="0.9"/>
	<rect x="218" y="98.7" class="st0" width="0.9" height="0.9"/>
	<rect x="218" y="99.7" class="st0" width="0.9" height="0.9"/>
	<rect x="218" y="100.6" class="st0" width="0.9" height="0.9"/>
	<rect x="218" y="101.6" class="st0" width="0.9" height="0.9"/>
	<rect x="218" y="102.5" class="st0" width="0.9" height="0.9"/>
	<rect x="218" y="103.5" width="0.9" height="0.9"/>
	<rect x="218" y="104.4" class="st0" width="0.9" height="0.9"/>
	<rect x="218" y="105.3" width="0.9" height="0.9"/>
	<rect x="218" y="106.3" width="0.9" height="0.9"/>
	<rect x="218" y="107.2" width="0.9" height="0.9"/>
	<rect x="218" y="108.2" class="st0" width="0.9" height="0.9"/>
	<rect x="218" y="109.1" class="st0" width="0.9" height="0.9"/>
	<rect x="218" y="110.1" class="st0" width="0.9" height="0.9"/>
	<rect x="218" y="111" width="0.9" height="0.9"/>
	<rect x="218" y="112" width="0.9" height="0.9"/>
	<rect x="218" y="112.9" class="st0" width="0.9" height="0.9"/>
	<rect x="218" y="113.8" class="st0" width="0.9" height="0.9"/>
	<rect x="218" y="114.8" class="st0" width="0.9" height="0.9"/>
	<rect x="218" y="115.7" width="0.9" height="0.9"/>
	<rect x="218" y="116.7" width="0.9" height="0.9"/>
	<rect x="218" y="117.6" width="0.9" height="0.9"/>
	<rect x="218" y="118.6" width="0.9" height="0.9"/>
	<rect x="218" y="119.5" width="0.9" height="0.9"/>
	<rect x="218" y="120.5" class="st0" width="0.9" height="0.9"/>
	<rect x="218" y="121.4" width="0.9" height="0.9"/>
	<rect x="218" y="122.4" class="st0" width="0.9" height="0.9"/>
	<rect x="218.9" y="92.1" width="0.9" height="0.9"/>
	<rect x="218.9" y="93.1" class="st0" width="0.9" height="0.9"/>
	<rect x="218.9" y="94" class="st0" width="0.9" height="0.9"/>
	<rect x="218.9" y="95" class="st0" width="0.9" height="0.9"/>
	<rect x="218.9" y="95.9" width="0.9" height="0.9"/>
	<rect x="218.9" y="96.8" class="st0" width="0.9" height="0.9"/>
	<rect x="218.9" y="97.8" width="0.9" height="0.9"/>
	<rect x="218.9" y="98.7" width="0.9" height="0.9"/>
	<rect x="218.9" y="99.7" width="0.9" height="0.9"/>
	<rect x="218.9" y="100.6" width="0.9" height="0.9"/>
	<rect x="218.9" y="101.6" width="0.9" height="0.9"/>
	<rect x="218.9" y="102.5" width="0.9" height="0.9"/>
	<rect x="218.9" y="103.5" width="0.9" height="0.9"/>
	<rect x="218.9" y="104.4" class="st0" width="0.9" height="0.9"/>
	<rect x="218.9" y="105.3" width="0.9" height="0.9"/>
	<rect x="218.9" y="106.3" width="0.9" height="0.9"/>
	<rect x="218.9" y="107.2" width="0.9" height="0.9"/>
	<rect x="218.9" y="108.2" class="st0" width="0.9" height="0.9"/>
	<rect x="218.9" y="109.1" class="st0" width="0.9" height="0.9"/>
	<rect x="218.9" y="110.1" class="st0" width="0.9" height="0.9"/>
	<rect x="218.9" y="111" class="st0" width="0.9" height="0.9"/>
	<rect x="218.9" y="112" class="st0" width="0.9" height="0.9"/>
	<rect x="218.9" y="112.9" class="st0" width="0.9" height="0.9"/>
	<rect x="218.9" y="113.8" class="st0" width="0.9" height="0.9"/>
	<rect x="218.9" y="114.8" class="st0" width="0.9" height="0.9"/>
	<rect x="218.9" y="115.7" class="st0" width="0.9" height="0.9"/>
	<rect x="218.9" y="116.7" class="st0" width="0.9" height="0.9"/>
	<rect x="218.9" y="117.6" class="st0" width="0.9" height="0.9"/>
	<rect x="218.9" y="118.6" class="st0" width="0.9" height="0.9"/>
	<rect x="218.9" y="119.5" width="0.9" height="0.9"/>
	<rect x="218.9" y="120.5" class="st0" width="0.9" height="0.9"/>
	<rect x="218.9" y="121.4" class="st0" width="0.9" height="0.9"/>
	<rect x="218.9" y="122.4" class="st0" width="0.9" height="0.9"/>
	<rect x="219.9" y="92.1" class="st0" width="0.9" height="0.9"/>
	<rect x="219.9" y="93.1" width="0.9" height="0.9"/>
	<rect x="219.9" y="94" width="0.9" height="0.9"/>
	<rect x="219.9" y="95" width="0.9" height="0.9"/>
	<rect x="219.9" y="95.9" width="0.9" height="0.9"/>
	<rect x="219.9" y="96.8" width="0.9" height="0.9"/>
	<rect x="219.9" y="97.8" class="st0" width="0.9" height="0.9"/>
	<rect x="219.9" y="98.7" width="0.9" height="0.9"/>
	<rect x="219.9" y="99.7" class="st0" width="0.9" height="0.9"/>
	<rect x="219.9" y="100.6" class="st0" width="0.9" height="0.9"/>
	<rect x="219.9" y="101.6" width="0.9" height="0.9"/>
	<rect x="219.9" y="102.5" class="st0" width="0.9" height="0.9"/>
	<rect x="219.9" y="103.5" class="st0" width="0.9" height="0.9"/>
	<rect x="219.9" y="104.4" class="st0" width="0.9" height="0.9"/>
	<rect x="219.9" y="105.3" width="0.9" height="0.9"/>
	<rect x="219.9" y="106.3" class="st0" width="0.9" height="0.9"/>
	<rect x="219.9" y="107.2" class="st0" width="0.9" height="0.9"/>
	<rect x="219.9" y="108.2" class="st0" width="0.9" height="0.9"/>
	<rect x="219.9" y="109.1" class="st0" width="0.9" height="0.9"/>
	<rect x="219.9" y="110.1" class="st0" width="0.9" height="0.9"/>
	<rect x="219.9" y="111" class="st0" width="0.9" height="0.9"/>
	<rect x="219.9" y="112" width="0.9" height="0.9"/>
	<rect x="219.9" y="112.9" class="st0" width="0.9" height="0.9"/>
	<rect x="219.9" y="113.8" class="st0" width="0.9" height="0.9"/>
	<rect x="219.9" y="114.8" width="0.9" height="0.9"/>
	<rect x="219.9" y="115.7" width="0.9" height="0.9"/>
	<rect x="219.9" y="116.7" class="st0" width="0.9" height="0.9"/>
	<rect x="219.9" y="117.6" class="st0" width="0.9" height="0.9"/>
	<rect x="219.9" y="118.6" width="0.9" height="0.9"/>
	<rect x="219.9" y="119.5" class="st0" width="0.9" height="0.9"/>
	<rect x="219.9" y="120.5" class="st0" width="0.9" height="0.9"/>
	<rect x="219.9" y="121.4" class="st0" width="0.9" height="0.9"/>
	<rect x="219.9" y="122.4" width="0.9" height="0.9"/>
	<rect x="220.8" y="92.1" class="st0" width="0.9" height="0.9"/>
	<rect x="220.8" y="93.1" width="0.9" height="0.9"/>
	<rect x="220.8" y="94" class="st0" width="0.9" height="0.9"/>
	<rect x="220.8" y="95" class="st0" width="0.9" height="0.9"/>
	<rect x="220.8" y="95.9" width="0.9" height="0.9"/>
	<rect x="220.8" y="96.8" width="0.9" height="0.9"/>
	<rect x="220.8" y="97.8" width="0.9" height="0.9"/>
	<rect x="220.8" y="98.7" class="st0" width="0.9" height="0.9"/>
	<rect x="220.8" y="99.7" class="st0" width="0.9" height="0.9"/>
	<rect x="220.8" y="100.6" class="st0" width="0.9" height="0.9"/>
	<rect x="220.8" y="101.6" width="0.9" height="0.9"/>
	<rect x="220.8" y="102.5" class="st0" width="0.9" height="0.9"/>
	<rect x="220.8" y="103.5" width="0.9" height="0.9"/>
	<rect x="220.8" y="104.4" class="st0" width="0.9" height="0.9"/>
	<rect x="220.8" y="105.3" class="st0" width="0.9" height="0.9"/>
	<rect x="220.8" y="106.3" width="0.9" height="0.9"/>
	<rect x="220.8" y="107.2" width="0.9" height="0.9"/>
	<rect x="220.8" y="108.2" class="st0" width="0.9" height="0.9"/>
	<rect x="220.8" y="109.1" class="st0" width="0.9" height="0.9"/>
	<rect x="220.8" y="110.1" width="0.9" height="0.9"/>
	<rect x="220.8" y="111" width="0.9" height="0.9"/>
	<rect x="220.8" y="112" class="st0" width="0.9" height="0.9"/>
	<rect x="220.8" y="112.9" class="st0" width="0.9" height="0.9"/>
	<rect x="220.8" y="113.8" class="st0" width="0.9" height="0.9"/>
	<rect x="220.8" y="114.8" width="0.9" height="0.9"/>
	<rect x="220.8" y="115.7" width="0.9" height="0.9"/>
	<rect x="220.8" y="116.7" class="st0" width="0.9" height="0.9"/>
	<rect x="220.8" y="117.6" width="0.9" height="0.9"/>
	<rect x="220.8" y="118.6" width="0.9" height="0.9"/>
	<rect x="220.8" y="119.5" width="0.9" height="0.9"/>
	<rect x="220.8" y="120.5" width="0.9" height="0.9"/>
	<rect x="220.8" y="121.4" width="0.9" height="0.9"/>
	<rect x="220.8" y="122.4" class="st0" width="0.9" height="0.9"/>
	<rect x="221.7" y="92.1" class="st0" width="0.9" height="0.9"/>
	<rect x="221.7" y="93.1" class="st0" width="0.9" height="0.9"/>
	<rect x="221.7" y="94" class="st0" width="0.9" height="0.9"/>
	<rect x="221.7" y="95" class="st0" width="0.9" height="0.9"/>
	<rect x="221.7" y="95.9" width="0.9" height="0.9"/>
	<rect x="221.7" y="96.8" class="st0" width="0.9" height="0.9"/>
	<rect x="221.7" y="97.8" class="st0" width="0.9" height="0.9"/>
	<rect x="221.7" y="98.7" class="st0" width="0.9" height="0.9"/>
	<rect x="221.7" y="99.7" class="st0" width="0.9" height="0.9"/>
	<rect x="221.7" y="100.6" width="0.9" height="0.9"/>
	<rect x="221.7" y="101.6" width="0.9" height="0.9"/>
	<rect x="221.7" y="102.5" width="0.9" height="0.9"/>
	<rect x="221.7" y="103.5" width="0.9" height="0.9"/>
	<rect x="221.7" y="104.4" class="st0" width="0.9" height="0.9"/>
	<rect x="221.7" y="105.3" class="st0" width="0.9" height="0.9"/>
	<rect x="221.7" y="106.3" class="st0" width="0.9" height="0.9"/>
	<rect x="221.7" y="107.2" class="st0" width="0.9" height="0.9"/>
	<rect x="221.7" y="108.2" class="st0" width="0.9" height="0.9"/>
	<rect x="221.7" y="109.1" width="0.9" height="0.9"/>
	<rect x="221.7" y="110.1" width="0.9" height="0.9"/>
	<rect x="221.7" y="111" class="st0" width="0.9" height="0.9"/>
	<rect x="221.7" y="112" class="st0" width="0.9" height="0.9"/>
	<rect x="221.7" y="112.9" width="0.9" height="0.9"/>
	<rect x="221.7" y="113.8" width="0.9" height="0.9"/>
	<rect x="221.7" y="114.8" class="st0" width="0.9" height="0.9"/>
	<rect x="221.7" y="115.7" class="st0" width="0.9" height="0.9"/>
	<rect x="221.7" y="116.7" width="0.9" height="0.9"/>
	<rect x="221.7" y="117.6" width="0.9" height="0.9"/>
	<rect x="221.7" y="118.6" class="st0" width="0.9" height="0.9"/>
	<rect x="221.7" y="119.5" class="st0" width="0.9" height="0.9"/>
	<rect x="221.7" y="120.5" width="0.9" height="0.9"/>
	<rect x="221.7" y="121.4" class="st0" width="0.9" height="0.9"/>
	<rect x="221.7" y="122.4" class="st0" width="0.9" height="0.9"/>
	<rect x="222.7" y="92.1" class="st0" width="0.9" height="0.9"/>
	<rect x="222.7" y="93.1" width="0.9" height="0.9"/>
	<rect x="222.7" y="94" class="st0" width="0.9" height="0.9"/>
	<rect x="222.7" y="95" width="0.9" height="0.9"/>
	<rect x="222.7" y="95.9" class="st0" width="0.9" height="0.9"/>
	<rect x="222.7" y="96.8" class="st0" width="0.9" height="0.9"/>
	<rect x="222.7" y="97.8" width="0.9" height="0.9"/>
	<rect x="222.7" y="98.7" width="0.9" height="0.9"/>
	<rect x="222.7" y="99.7" width="0.9" height="0.9"/>
	<rect x="222.7" y="100.6" class="st0" width="0.9" height="0.9"/>
	<rect x="222.7" y="101.6" width="0.9" height="0.9"/>
	<rect x="222.7" y="102.5" class="st0" width="0.9" height="0.9"/>
	<rect x="222.7" y="103.5" width="0.9" height="0.9"/>
	<rect x="222.7" y="104.4" class="st0" width="0.9" height="0.9"/>
	<rect x="222.7" y="105.3" class="st0" width="0.9" height="0.9"/>
	<rect x="222.7" y="106.3" width="0.9" height="0.9"/>
	<rect x="222.7" y="107.2" class="st0" width="0.9" height="0.9"/>
	<rect x="222.7" y="108.2" width="0.9" height="0.9"/>
	<rect x="222.7" y="109.1" class="st0" width="0.9" height="0.9"/>
	<rect x="222.7" y="110.1" width="0.9" height="0.9"/>
	<rect x="222.7" y="111" class="st0" width="0.9" height="0.9"/>
	<rect x="222.7" y="112" width="0.9" height="0.9"/>
	<rect x="222.7" y="112.9" width="0.9" height="0.9"/>
	<rect x="222.7" y="113.8" width="0.9" height="0.9"/>
	<rect x="222.7" y="114.8" width="0.9" height="0.9"/>
	<rect x="222.7" y="115.7" width="0.9" height="0.9"/>
	<rect x="222.7" y="116.7" width="0.9" height="0.9"/>
	<rect x="222.7" y="117.6" width="0.9" height="0.9"/>
	<rect x="222.7" y="118.6" width="0.9" height="0.9"/>
	<rect x="222.7" y="119.5" class="st0" width="0.9" height="0.9"/>
	<rect x="222.7" y="120.5" class="st0" width="0.9" height="0.9"/>
	<rect x="222.7" y="121.4" class="st0" width="0.9" height="0.9"/>
	<rect x="222.7" y="122.4" width="0.9" height="0.9"/>
	<rect x="223.6" y="92.1" class="st0" width="0.9" height="0.9"/>
	<rect x="223.6" y="93.1" class="st0" width="0.9" height="0.9"/>
	<rect x="223.6" y="94" class="st0" width="0.9" height="0.9"/>
	<rect x="223.6" y="95" width="0.9" height="0.9"/>
	<rect x="223.6" y="95.9" width="0.9" height="0.9"/>
	<rect x="223.6" y="96.8" class="st0" width="0.9" height="0.9"/>
	<rect x="223.6" y="97.8" class="st0" width="0.9" height="0.9"/>
	<rect x="223.6" y="98.7" class="st0" width="0.9" height="0.9"/>
	<rect x="223.6" y="99.7" class="st0" width="0.9" height="0.9"/>
	<rect x="223.6" y="100.6" width="0.9" height="0.9"/>
	<rect x="223.6" y="101.6" width="0.9" height="0.9"/>
	<rect x="223.6" y="102.5" class="st0" width="0.9" height="0.9"/>
	<rect x="223.6" y="103.5" class="st0" width="0.9" height="0.9"/>
	<rect x="223.6" y="104.4" class="st0" width="0.9" height="0.9"/>
	<rect x="223.6" y="105.3" class="st0" width="0.9" height="0.9"/>
	<rect x="223.6" y="106.3" class="st0" width="0.9" height="0.9"/>
	<rect x="223.6" y="107.2" class="st0" width="0.9" height="0.9"/>
	<rect x="223.6" y="108.2" width="0.9" height="0.9"/>
	<rect x="223.6" y="109.1" width="0.9" height="0.9"/>
	<rect x="223.6" y="110.1" width="0.9" height="0.9"/>
	<rect x="223.6" y="111" class="st0" width="0.9" height="0.9"/>
	<rect x="223.6" y="112" class="st0" width="0.9" height="0.9"/>
	<rect x="223.6" y="112.9" width="0.9" height="0.9"/>
	<rect x="223.6" y="113.8" class="st0" width="0.9" height="0.9"/>
	<rect x="223.6" y="114.8" width="0.9" height="0.9"/>
	<rect x="223.6" y="115.7" width="0.9" height="0.9"/>
	<rect x="223.6" y="116.7" width="0.9" height="0.9"/>
	<rect x="223.6" y="117.6" width="0.9" height="0.9"/>
	<rect x="223.6" y="118.6" width="0.9" height="0.9"/>
	<rect x="223.6" y="119.5" class="st0" width="0.9" height="0.9"/>
	<rect x="223.6" y="120.5" width="0.9" height="0.9"/>
	<rect x="223.6" y="121.4" class="st0" width="0.9" height="0.9"/>
	<rect x="223.6" y="122.4" width="0.9" height="0.9"/>
	<rect x="224.6" y="92.1" class="st0" width="0.9" height="0.9"/>
	<rect x="224.6" y="93.1" width="0.9" height="0.9"/>
	<rect x="224.6" y="94" class="st0" width="0.9" height="0.9"/>
	<rect x="224.6" y="95" class="st0" width="0.9" height="0.9"/>
	<rect x="224.6" y="95.9" width="0.9" height="0.9"/>
	<rect x="224.6" y="96.8" class="st0" width="0.9" height="0.9"/>
	<rect x="224.6" y="97.8" width="0.9" height="0.9"/>
	<rect x="224.6" y="98.7" width="0.9" height="0.9"/>
	<rect x="224.6" y="99.7" width="0.9" height="0.9"/>
	<rect x="224.6" y="100.6" class="st0" width="0.9" height="0.9"/>
	<rect x="224.6" y="101.6" class="st0" width="0.9" height="0.9"/>
	<rect x="224.6" y="102.5" width="0.9" height="0.9"/>
	<rect x="224.6" y="103.5" width="0.9" height="0.9"/>
	<rect x="224.6" y="104.4" width="0.9" height="0.9"/>
	<rect x="224.6" y="105.3" class="st0" width="0.9" height="0.9"/>
	<rect x="224.6" y="106.3" width="0.9" height="0.9"/>
	<rect x="224.6" y="107.2" width="0.9" height="0.9"/>
	<rect x="224.6" y="108.2" width="0.9" height="0.9"/>
	<rect x="224.6" y="109.1" class="st0" width="0.9" height="0.9"/>
	<rect x="224.6" y="110.1" width="0.9" height="0.9"/>
	<rect x="224.6" y="111" class="st0" width="0.9" height="0.9"/>
	<rect x="224.6" y="112" class="st0" width="0.9" height="0.9"/>
	<rect x="224.6" y="112.9" class="st0" width="0.9" height="0.9"/>
	<rect x="224.6" y="113.8" class="st0" width="0.9" height="0.9"/>
	<rect x="224.6" y="114.8" width="0.9" height="0.9"/>
	<rect x="224.6" y="115.7" width="0.9" height="0.9"/>
	<rect x="224.6" y="116.7" class="st0" width="0.9" height="0.9"/>
	<rect x="224.6" y="117.6" class="st0" width="0.9" height="0.9"/>
	<rect x="224.6" y="118.6" width="0.9" height="0.9"/>
	<rect x="224.6" y="119.5" class="st0" width="0.9" height="0.9"/>
	<rect x="224.6" y="120.5" class="st0" width="0.9" height="0.9"/>
	<rect x="224.6" y="121.4" class="st0" width="0.9" height="0.9"/>
	<rect x="224.6" y="122.4" width="0.9" height="0.9"/>
	<rect x="225.5" y="92.1" width="0.9" height="0.9"/>
	<rect x="225.5" y="93.1" class="st0" width="0.9" height="0.9"/>
	<rect x="225.5" y="94" width="0.9" height="0.9"/>
	<rect x="225.5" y="95" width="0.9" height="0.9"/>
	<rect x="225.5" y="95.9" class="st0" width="0.9" height="0.9"/>
	<rect x="225.5" y="96.8" width="0.9" height="0.9"/>
	<rect x="225.5" y="97.8" class="st0" width="0.9" height="0.9"/>
	<rect x="225.5" y="98.7" class="st0" width="0.9" height="0.9"/>
	<rect x="225.5" y="99.7" class="st0" width="0.9" height="0.9"/>
	<rect x="225.5" y="100.6" class="st0" width="0.9" height="0.9"/>
	<rect x="225.5" y="101.6" class="st0" width="0.9" height="0.9"/>
	<rect x="225.5" y="102.5" class="st0" width="0.9" height="0.9"/>
	<rect x="225.5" y="103.5" width="0.9" height="0.9"/>
	<rect x="225.5" y="104.4" class="st0" width="0.9" height="0.9"/>
	<rect x="225.5" y="105.3" width="0.9" height="0.9"/>
	<rect x="225.5" y="106.3" class="st0" width="0.9" height="0.9"/>
	<rect x="225.5" y="107.2" class="st0" width="0.9" height="0.9"/>
	<rect x="225.5" y="108.2" class="st0" width="0.9" height="0.9"/>
	<rect x="225.5" y="109.1" width="0.9" height="0.9"/>
	<rect x="225.5" y="110.1" class="st0" width="0.9" height="0.9"/>
	<rect x="225.5" y="111" width="0.9" height="0.9"/>
	<rect x="225.5" y="112" class="st0" width="0.9" height="0.9"/>
	<rect x="225.5" y="112.9" width="0.9" height="0.9"/>
	<rect x="225.5" y="113.8" class="st0" width="0.9" height="0.9"/>
	<rect x="225.5" y="114.8" class="st0" width="0.9" height="0.9"/>
	<rect x="225.5" y="115.7" class="st0" width="0.9" height="0.9"/>
	<rect x="225.5" y="116.7" width="0.9" height="0.9"/>
	<rect x="225.5" y="117.6" class="st0" width="0.9" height="0.9"/>
	<rect x="225.5" y="118.6" width="0.9" height="0.9"/>
	<rect x="225.5" y="119.5" width="0.9" height="0.9"/>
	<rect x="225.5" y="120.5" class="st0" width="0.9" height="0.9"/>
	<rect x="225.5" y="121.4" class="st0" width="0.9" height="0.9"/>
	<rect x="225.5" y="122.4" class="st0" width="0.9" height="0.9"/>
	<rect x="226.5" y="92.1" width="0.9" height="0.9"/>
	<rect x="226.5" y="93.1" width="0.9" height="0.9"/>
	<rect x="226.5" y="94" width="0.9" height="0.9"/>
	<rect x="226.5" y="95" width="0.9" height="0.9"/>
	<rect x="226.5" y="95.9" width="0.9" height="0.9"/>
	<rect x="226.5" y="96.8" width="0.9" height="0.9"/>
	<rect x="226.5" y="97.8" width="0.9" height="0.9"/>
	<rect x="226.5" y="98.7" class="st0" width="0.9" height="0.9"/>
	<rect x="226.5" y="99.7" class="st0" width="0.9" height="0.9"/>
	<rect x="226.5" y="100.6" width="0.9" height="0.9"/>
	<rect x="226.5" y="101.6" class="st0" width="0.9" height="0.9"/>
	<rect x="226.5" y="102.5" class="st0" width="0.9" height="0.9"/>
	<rect x="226.5" y="103.5" width="0.9" height="0.9"/>
	<rect x="226.5" y="104.4" class="st0" width="0.9" height="0.9"/>
	<rect x="226.5" y="105.3" width="0.9" height="0.9"/>
	<rect x="226.5" y="106.3" width="0.9" height="0.9"/>
	<rect x="226.5" y="107.2" class="st0" width="0.9" height="0.9"/>
	<rect x="226.5" y="108.2" width="0.9" height="0.9"/>
	<rect x="226.5" y="109.1" width="0.9" height="0.9"/>
	<rect x="226.5" y="110.1" class="st0" width="0.9" height="0.9"/>
	<rect x="226.5" y="111" width="0.9" height="0.9"/>
	<rect x="226.5" y="112" class="st0" width="0.9" height="0.9"/>
	<rect x="226.5" y="112.9" width="0.9" height="0.9"/>
	<rect x="226.5" y="113.8" width="0.9" height="0.9"/>
	<rect x="226.5" y="114.8" width="0.9" height="0.9"/>
	<rect x="226.5" y="115.7" class="st0" width="0.9" height="0.9"/>
	<rect x="226.5" y="116.7" width="0.9" height="0.9"/>
	<rect x="226.5" y="117.6" class="st0" width="0.9" height="0.9"/>
	<rect x="226.5" y="118.6" width="0.9" height="0.9"/>
	<rect x="226.5" y="119.5" class="st0" width="0.9" height="0.9"/>
	<rect x="226.5" y="120.5" class="st0" width="0.9" height="0.9"/>
	<rect x="226.5" y="121.4" class="st0" width="0.9" height="0.9"/>
	<rect x="226.5" y="122.4" class="st0" width="0.9" height="0.9"/>
	<rect x="227.4" y="92.1" class="st0" width="0.9" height="0.9"/>
	<rect x="227.4" y="93.1" class="st0" width="0.9" height="0.9"/>
	<rect x="227.4" y="94" class="st0" width="0.9" height="0.9"/>
	<rect x="227.4" y="95" width="0.9" height="0.9"/>
	<rect x="227.4" y="95.9" class="st0" width="0.9" height="0.9"/>
	<rect x="227.4" y="96.8" class="st0" width="0.9" height="0.9"/>
	<rect x="227.4" y="97.8" class="st0" width="0.9" height="0.9"/>
	<rect x="227.4" y="98.7" class="st0" width="0.9" height="0.9"/>
	<rect x="227.4" y="99.7" width="0.9" height="0.9"/>
	<rect x="227.4" y="100.6" width="0.9" height="0.9"/>
	<rect x="227.4" y="101.6" width="0.9" height="0.9"/>
	<rect x="227.4" y="102.5" class="st0" width="0.9" height="0.9"/>
	<rect x="227.4" y="103.5" class="st0" width="0.9" height="0.9"/>
	<rect x="227.4" y="104.4" width="0.9" height="0.9"/>
	<rect x="227.4" y="105.3" width="0.9" height="0.9"/>
	<rect x="227.4" y="106.3" width="0.9" height="0.9"/>
	<rect x="227.4" y="107.2" class="st0" width="0.9" height="0.9"/>
	<rect x="227.4" y="108.2" width="0.9" height="0.9"/>
	<rect x="227.4" y="109.1" width="0.9" height="0.9"/>
	<rect x="227.4" y="110.1" class="st0" width="0.9" height="0.9"/>
	<rect x="227.4" y="111" class="st0" width="0.9" height="0.9"/>
	<rect x="227.4" y="112" width="0.9" height="0.9"/>
	<rect x="227.4" y="112.9" width="0.9" height="0.9"/>
	<rect x="227.4" y="113.8" width="0.9" height="0.9"/>
	<rect x="227.4" y="114.8" width="0.9" height="0.9"/>
	<rect x="227.4" y="115.7" width="0.9" height="0.9"/>
	<rect x="227.4" y="116.7" class="st0" width="0.9" height="0.9"/>
	<rect x="227.4" y="117.6" width="0.9" height="0.9"/>
	<rect x="227.4" y="118.6" width="0.9" height="0.9"/>
	<rect x="227.4" y="119.5" width="0.9" height="0.9"/>
	<rect x="227.4" y="120.5" width="0.9" height="0.9"/>
	<rect x="227.4" y="121.4" class="st0" width="0.9" height="0.9"/>
	<rect x="227.4" y="122.4" class="st0" width="0.9" height="0.9"/>
	<rect x="228.4" y="92.1" width="0.9" height="0.9"/>
	<rect x="228.4" y="93.1" class="st0" width="0.9" height="0.9"/>
	<rect x="228.4" y="94" class="st0" width="0.9" height="0.9"/>
	<rect x="228.4" y="95" width="0.9" height="0.9"/>
	<rect x="228.4" y="95.9" width="0.9" height="0.9"/>
	<rect x="228.4" y="96.8" class="st0" width="0.9" height="0.9"/>
	<rect x="228.4" y="97.8" width="0.9" height="0.9"/>
	<rect x="228.4" y="98.7" class="st0" width="0.9" height="0.9"/>
	<rect x="228.4" y="99.7" width="0.9" height="0.9"/>
	<rect x="228.4" y="100.6" width="0.9" height="0.9"/>
	<rect x="228.4" y="101.6" class="st0" width="0.9" height="0.9"/>
	<rect x="228.4" y="102.5" class="st0" width="0.9" height="0.9"/>
	<rect x="228.4" y="103.5" width="0.9" height="0.9"/>
	<rect x="228.4" y="104.4" class="st0" width="0.9" height="0.9"/>
	<rect x="228.4" y="105.3" width="0.9" height="0.9"/>
	<rect x="228.4" y="106.3" class="st0" width="0.9" height="0.9"/>
	<rect x="228.4" y="107.2" width="0.9" height="0.9"/>
	<rect x="228.4" y="108.2" width="0.9" height="0.9"/>
	<rect x="228.4" y="109.1" width="0.9" height="0.9"/>
	<rect x="228.4" y="110.1" class="st0" width="0.9" height="0.9"/>
	<rect x="228.4" y="111" width="0.9" height="0.9"/>
	<rect x="228.4" y="112" width="0.9" height="0.9"/>
	<rect x="228.4" y="112.9" width="0.9" height="0.9"/>
	<rect x="228.4" y="113.8" class="st0" width="0.9" height="0.9"/>
	<rect x="228.4" y="114.8" width="0.9" height="0.9"/>
	<rect x="228.4" y="115.7" width="0.9" height="0.9"/>
	<rect x="228.4" y="116.7" width="0.9" height="0.9"/>
	<rect x="228.4" y="117.6" width="0.9" height="0.9"/>
	<rect x="228.4" y="118.6" width="0.9" height="0.9"/>
	<rect x="228.4" y="119.5" class="st0" width="0.9" height="0.9"/>
	<rect x="228.4" y="120.5" class="st0" width="0.9" height="0.9"/>
	<rect x="228.4" y="121.4" width="0.9" height="0.9"/>
	<rect x="228.4" y="122.4" width="0.9" height="0.9"/>
	<rect x="229.3" y="92.1" class="st0" width="0.9" height="0.9"/>
	<rect x="229.3" y="93.1" class="st0" width="0.9" height="0.9"/>
	<rect x="229.3" y="94" class="st0" width="0.9" height="0.9"/>
	<rect x="229.3" y="95" class="st0" width="0.9" height="0.9"/>
	<rect x="229.3" y="95.9" class="st0" width="0.9" height="0.9"/>
	<rect x="229.3" y="96.8" class="st0" width="0.9" height="0.9"/>
	<rect x="229.3" y="97.8" class="st0" width="0.9" height="0.9"/>
	<rect x="229.3" y="98.7" class="st0" width="0.9" height="0.9"/>
	<rect x="229.3" y="99.7" class="st0" width="0.9" height="0.9"/>
	<rect x="229.3" y="100.6" width="0.9" height="0.9"/>
	<rect x="229.3" y="101.6" class="st0" width="0.9" height="0.9"/>
	<rect x="229.3" y="102.5" class="st0" width="0.9" height="0.9"/>
	<rect x="229.3" y="103.5" class="st0" width="0.9" height="0.9"/>
	<rect x="229.3" y="104.4" class="st0" width="0.9" height="0.9"/>
	<rect x="229.3" y="105.3" class="st0" width="0.9" height="0.9"/>
	<rect x="229.3" y="106.3" width="0.9" height="0.9"/>
	<rect x="229.3" y="107.2" class="st0" width="0.9" height="0.9"/>
	<rect x="229.3" y="108.2" class="st0" width="0.9" height="0.9"/>
	<rect x="229.3" y="109.1" class="st0" width="0.9" height="0.9"/>
	<rect x="229.3" y="110.1" class="st0" width="0.9" height="0.9"/>
	<rect x="229.3" y="111" class="st0" width="0.9" height="0.9"/>
	<rect x="229.3" y="112" class="st0" width="0.9" height="0.9"/>
	<rect x="229.3" y="112.9" class="st0" width="0.9" height="0.9"/>
	<rect x="229.3" y="113.8" width="0.9" height="0.9"/>
	<rect x="229.3" y="114.8" width="0.9" height="0.9"/>
	<rect x="229.3" y="115.7" class="st0" width="0.9" height="0.9"/>
	<rect x="229.3" y="116.7" class="st0" width="0.9" height="0.9"/>
	<rect x="229.3" y="117.6" class="st0" width="0.9" height="0.9"/>
	<rect x="229.3" y="118.6" width="0.9" height="0.9"/>
	<rect x="229.3" y="119.5" width="0.9" height="0.9"/>
	<rect x="229.3" y="120.5" width="0.9" height="0.9"/>
	<rect x="229.3" y="121.4" width="0.9" height="0.9"/>
	<rect x="229.3" y="122.4" class="st0" width="0.9" height="0.9"/>
	<rect x="230.3" y="92.1" width="0.9" height="0.9"/>
	<rect x="230.3" y="93.1" width="0.9" height="0.9"/>
	<rect x="230.3" y="94" width="0.9" height="0.9"/>
	<rect x="230.3" y="95" width="0.9" height="0.9"/>
	<rect x="230.3" y="95.9" width="0.9" height="0.9"/>
	<rect x="230.3" y="96.8" width="0.9" height="0.9"/>
	<rect x="230.3" y="97.8" width="0.9" height="0.9"/>
	<rect x="230.3" y="98.7" class="st0" width="0.9" height="0.9"/>
	<rect x="230.3" y="99.7" width="0.9" height="0.9"/>
	<rect x="230.3" y="100.6" width="0.9" height="0.9"/>
	<rect x="230.3" y="101.6" width="0.9" height="0.9"/>
	<rect x="230.3" y="102.5" class="st0" width="0.9" height="0.9"/>
	<rect x="230.3" y="103.5" width="0.9" height="0.9"/>
	<rect x="230.3" y="104.4" width="0.9" height="0.9"/>
	<rect x="230.3" y="105.3" width="0.9" height="0.9"/>
	<rect x="230.3" y="106.3" width="0.9" height="0.9"/>
	<rect x="230.3" y="107.2" width="0.9" height="0.9"/>
	<rect x="230.3" y="108.2" width="0.9" height="0.9"/>
	<rect x="230.3" y="109.1" width="0.9" height="0.9"/>
	<rect x="230.3" y="110.1" class="st0" width="0.9" height="0.9"/>
	<rect x="230.3" y="111" width="0.9" height="0.9"/>
	<rect x="230.3" y="112" class="st0" width="0.9" height="0.9"/>
	<rect x="230.3" y="112.9" width="0.9" height="0.9"/>
	<rect x="230.3" y="113.8" class="st0" width="0.9" height="0.9"/>
	<rect x="230.3" y="114.8" width="0.9" height="0.9"/>
	<rect x="230.3" y="115.7" class="st0" width="0.9" height="0.9"/>
	<rect x="230.3" y="116.7" width="0.9" height="0.9"/>
	<rect x="230.3" y="117.6" class="st0" width="0.9" height="0.9"/>
	<rect x="230.3" y="118.6" width="0.9" height="0.9"/>
	<rect x="230.3" y="119.5" class="st0" width="0.9" height="0.9"/>
	<rect x="230.3" y="120.5" class="st0" width="0.9" height="0.9"/>
	<rect x="230.3" y="121.4" class="st0" width="0.9" height="0.9"/>
	<rect x="230.3" y="122.4" width="0.9" height="0.9"/>
	<rect x="231.2" y="92.1" width="0.9" height="0.9"/>
	<rect x="231.2" y="93.1" class="st0" width="0.9" height="0.9"/>
	<rect x="231.2" y="94" class="st0" width="0.9" height="0.9"/>
	<rect x="231.2" y="95" class="st0" width="0.9" height="0.9"/>
	<rect x="231.2" y="95.9" class="st0" width="0.9" height="0.9"/>
	<rect x="231.2" y="96.8" class="st0" width="0.9" height="0.9"/>
	<rect x="231.2" y="97.8" width="0.9" height="0.9"/>
	<rect x="231.2" y="98.7" class="st0" width="0.9" height="0.9"/>
	<rect x="231.2" y="99.7" width="0.9" height="0.9"/>
	<rect x="231.2" y="100.6" width="0.9" height="0.9"/>
	<rect x="231.2" y="101.6" class="st0" width="0.9" height="0.9"/>
	<rect x="231.2" y="102.5" width="0.9" height="0.9"/>
	<rect x="231.2" y="103.5" width="0.9" height="0.9"/>
	<rect x="231.2" y="104.4" width="0.9" height="0.9"/>
	<rect x="231.2" y="105.3" width="0.9" height="0.9"/>
	<rect x="231.2" y="106.3" class="st0" width="0.9" height="0.9"/>
	<rect x="231.2" y="107.2" width="0.9" height="0.9"/>
	<rect x="231.2" y="108.2" class="st0" width="0.9" height="0.9"/>
	<rect x="231.2" y="109.1" class="st0" width="0.9" height="0.9"/>
	<rect x="231.2" y="110.1" width="0.9" height="0.9"/>
	<rect x="231.2" y="111" class="st0" width="0.9" height="0.9"/>
	<rect x="231.2" y="112" width="0.9" height="0.9"/>
	<rect x="231.2" y="112.9" class="st0" width="0.9" height="0.9"/>
	<rect x="231.2" y="113.8" class="st0" width="0.9" height="0.9"/>
	<rect x="231.2" y="114.8" width="0.9" height="0.9"/>
	<rect x="231.2" y="115.7" class="st0" width="0.9" height="0.9"/>
	<rect x="231.2" y="116.7" class="st0" width="0.9" height="0.9"/>
	<rect x="231.2" y="117.6" class="st0" width="0.9" height="0.9"/>
	<rect x="231.2" y="118.6" width="0.9" height="0.9"/>
	<rect x="231.2" y="119.5" class="st0" width="0.9" height="0.9"/>
	<rect x="231.2" y="120.5" width="0.9" height="0.9"/>
	<rect x="231.2" y="121.4" class="st0" width="0.9" height="0.9"/>
	<rect x="231.2" y="122.4" width="0.9" height="0.9"/>
	<rect x="232.1" y="92.1" width="0.9" height="0.9"/>
	<rect x="232.1" y="93.1" class="st0" width="0.9" height="0.9"/>
	<rect x="232.1" y="94" width="0.9" height="0.9"/>
	<rect x="232.1" y="95" width="0.9" height="0.9"/>
	<rect x="232.1" y="95.9" width="0.9" height="0.9"/>
	<rect x="232.1" y="96.8" class="st0" width="0.9" height="0.9"/>
	<rect x="232.1" y="97.8" width="0.9" height="0.9"/>
	<rect x="232.1" y="98.7" class="st0" width="0.9" height="0.9"/>
	<rect x="232.1" y="99.7" class="st0" width="0.9" height="0.9"/>
	<rect x="232.1" y="100.6" class="st0" width="0.9" height="0.9"/>
	<rect x="232.1" y="101.6" class="st0" width="0.9" height="0.9"/>
	<rect x="232.1" y="102.5" width="0.9" height="0.9"/>
	<rect x="232.1" y="103.5" class="st0" width="0.9" height="0.9"/>
	<rect x="232.1" y="104.4" class="st0" width="0.9" height="0.9"/>
	<rect x="232.1" y="105.3" class="st0" width="0.9" height="0.9"/>
	<rect x="232.1" y="106.3" class="st0" width="0.9" height="0.9"/>
	<rect x="232.1" y="107.2" class="st0" width="0.9" height="0.9"/>
	<rect x="232.1" y="108.2" class="st0" width="0.9" height="0.9"/>
	<rect x="232.1" y="109.1" class="st0" width="0.9" height="0.9"/>
	<rect x="232.1" y="110.1" width="0.9" height="0.9"/>
	<rect x="232.1" y="111" width="0.9" height="0.9"/>
	<rect x="232.1" y="112" class="st0" width="0.9" height="0.9"/>
	<rect x="232.1" y="112.9" width="0.9" height="0.9"/>
	<rect x="232.1" y="113.8" width="0.9" height="0.9"/>
	<rect x="232.1" y="114.8" width="0.9" height="0.9"/>
	<rect x="232.1" y="115.7" width="0.9" height="0.9"/>
	<rect x="232.1" y="116.7" width="0.9" height="0.9"/>
	<rect x="232.1" y="117.6" width="0.9" height="0.9"/>
	<rect x="232.1" y="118.6" width="0.9" height="0.9"/>
	<rect x="232.1" y="119.5" width="0.9" height="0.9"/>
	<rect x="232.1" y="120.5" width="0.9" height="0.9"/>
	<rect x="232.1" y="121.4" width="0.9" height="0.9"/>
	<rect x="232.1" y="122.4" class="st0" width="0.9" height="0.9"/>
	<rect x="233.1" y="92.1" width="0.9" height="0.9"/>
	<rect x="233.1" y="93.1" class="st0" width="0.9" height="0.9"/>
	<rect x="233.1" y="94" width="0.9" height="0.9"/>
	<rect x="233.1" y="95" width="0.9" height="0.9"/>
	<rect x="233.1" y="95.9" width="0.9" height="0.9"/>
	<rect x="233.1" y="96.8" class="st0" width="0.9" height="0.9"/>
	<rect x="233.1" y="97.8" width="0.9" height="0.9"/>
	<rect x="233.1" y="98.7" class="st0" width="0.9" height="0.9"/>
	<rect x="233.1" y="99.7" width="0.9" height="0.9"/>
	<rect x="233.1" y="100.6" width="0.9" height="0.9"/>
	<rect x="233.1" y="101.6" width="0.9" height="0.9"/>
	<rect x="233.1" y="102.5" width="0.9" height="0.9"/>
	<rect x="233.1" y="103.5" class="st0" width="0.9" height="0.9"/>
	<rect x="233.1" y="104.4" width="0.9" height="0.9"/>
	<rect x="233.1" y="105.3" class="st0" width="0.9" height="0.9"/>
	<rect x="233.1" y="106.3" width="0.9" height="0.9"/>
	<rect x="233.1" y="107.2" width="0.9" height="0.9"/>
	<rect x="233.1" y="108.2" width="0.9" height="0.9"/>
	<rect x="233.1" y="109.1" width="0.9" height="0.9"/>
	<rect x="233.1" y="110.1" width="0.9" height="0.9"/>
	<rect x="233.1" y="111" class="st0" width="0.9" height="0.9"/>
	<rect x="233.1" y="112" width="0.9" height="0.9"/>
	<rect x="233.1" y="112.9" class="st0" width="0.9" height="0.9"/>
	<rect x="233.1" y="113.8" width="0.9" height="0.9"/>
	<rect x="233.1" y="114.8" width="0.9" height="0.9"/>
	<rect x="233.1" y="115.7" class="st0" width="0.9" height="0.9"/>
	<rect x="233.1" y="116.7" width="0.9" height="0.9"/>
	<rect x="233.1" y="117.6" class="st0" width="0.9" height="0.9"/>
	<rect x="233.1" y="118.6" class="st0" width="0.9" height="0.9"/>
	<rect x="233.1" y="119.5" width="0.9" height="0.9"/>
	<rect x="233.1" y="120.5" class="st0" width="0.9" height="0.9"/>
	<rect x="233.1" y="121.4" width="0.9" height="0.9"/>
	<rect x="233.1" y="122.4" class="st0" width="0.9" height="0.9"/>
	<rect x="234" y="92.1" width="0.9" height="0.9"/>
	<rect x="234" y="93.1" class="st0" width="0.9" height="0.9"/>
	<rect x="234" y="94" width="0.9" height="0.9"/>
	<rect x="234" y="95" width="0.9" height="0.9"/>
	<rect x="234" y="95.9" width="0.9" height="0.9"/>
	<rect x="234" y="96.8" class="st0" width="0.9" height="0.9"/>
	<rect x="234" y="97.8" width="0.9" height="0.9"/>
	<rect x="234" y="98.7" class="st0" width="0.9" height="0.9"/>
	<rect x="234" y="99.7" class="st0" width="0.9" height="0.9"/>
	<rect x="234" y="100.6" class="st0" width="0.9" height="0.9"/>
	<rect x="234" y="101.6" width="0.9" height="0.9"/>
	<rect x="234" y="102.5" class="st0" width="0.9" height="0.9"/>
	<rect x="234" y="103.5" class="st0" width="0.9" height="0.9"/>
	<rect x="234" y="104.4" width="0.9" height="0.9"/>
	<rect x="234" y="105.3" class="st0" width="0.9" height="0.9"/>
	<rect x="234" y="106.3" class="st0" width="0.9" height="0.9"/>
	<rect x="234" y="107.2" class="st0" width="0.9" height="0.9"/>
	<rect x="234" y="108.2" class="st0" width="0.9" height="0.9"/>
	<rect x="234" y="109.1" width="0.9" height="0.9"/>
	<rect x="234" y="110.1" class="st0" width="0.9" height="0.9"/>
	<rect x="234" y="111" class="st0" width="0.9" height="0.9"/>
	<rect x="234" y="112" width="0.9" height="0.9"/>
	<rect x="234" y="112.9" class="st0" width="0.9" height="0.9"/>
	<rect x="234" y="113.8" class="st0" width="0.9" height="0.9"/>
	<rect x="234" y="114.8" width="0.9" height="0.9"/>
	<rect x="234" y="115.7" class="st0" width="0.9" height="0.9"/>
	<rect x="234" y="116.7" width="0.9" height="0.9"/>
	<rect x="234" y="117.6" class="st0" width="0.9" height="0.9"/>
	<rect x="234" y="118.6" class="st0" width="0.9" height="0.9"/>
	<rect x="234" y="119.5" width="0.9" height="0.9"/>
	<rect x="234" y="120.5" width="0.9" height="0.9"/>
	<rect x="234" y="121.4" class="st0" width="0.9" height="0.9"/>
	<rect x="234" y="122.4" class="st0" width="0.9" height="0.9"/>
	<rect x="235" y="92.1" width="0.9" height="0.9"/>
	<rect x="235" y="93.1" class="st0" width="0.9" height="0.9"/>
	<rect x="235" y="94" class="st0" width="0.9" height="0.9"/>
	<rect x="235" y="95" class="st0" width="0.9" height="0.9"/>
	<rect x="235" y="95.9" class="st0" width="0.9" height="0.9"/>
	<rect x="235" y="96.8" class="st0" width="0.9" height="0.9"/>
	<rect x="235" y="97.8" width="0.9" height="0.9"/>
	<rect x="235" y="98.7" class="st0" width="0.9" height="0.9"/>
	<rect x="235" y="99.7" class="st0" width="0.9" height="0.9"/>
	<rect x="235" y="100.6" class="st0" width="0.9" height="0.9"/>
	<rect x="235" y="101.6" class="st0" width="0.9" height="0.9"/>
	<rect x="235" y="102.5" class="st0" width="0.9" height="0.9"/>
	<rect x="235" y="103.5" width="0.9" height="0.9"/>
	<rect x="235" y="104.4" width="0.9" height="0.9"/>
	<rect x="235" y="105.3" class="st0" width="0.9" height="0.9"/>
	<rect x="235" y="106.3" class="st0" width="0.9" height="0.9"/>
	<rect x="235" y="107.2" width="0.9" height="0.9"/>
	<rect x="235" y="108.2" width="0.9" height="0.9"/>
	<rect x="235" y="109.1" width="0.9" height="0.9"/>
	<rect x="235" y="110.1" class="st0" width="0.9" height="0.9"/>
	<rect x="235" y="111" width="0.9" height="0.9"/>
	<rect x="235" y="112" class="st0" width="0.9" height="0.9"/>
	<rect x="235" y="112.9" class="st0" width="0.9" height="0.9"/>
	<rect x="235" y="113.8" width="0.9" height="0.9"/>
	<rect x="235" y="114.8" width="0.9" height="0.9"/>
	<rect x="235" y="115.7" width="0.9" height="0.9"/>
	<rect x="235" y="116.7" width="0.9" height="0.9"/>
	<rect x="235" y="117.6" width="0.9" height="0.9"/>
	<rect x="235" y="118.6" class="st0" width="0.9" height="0.9"/>
	<rect x="235" y="119.5" class="st0" width="0.9" height="0.9"/>
	<rect x="235" y="120.5" width="0.9" height="0.9"/>
	<rect x="235" y="121.4" class="st0" width="0.9" height="0.9"/>
	<rect x="235" y="122.4" class="st0" width="0.9" height="0.9"/>
	<rect x="235.9" y="92.1" width="0.9" height="0.9"/>
	<rect x="235.9" y="93.1" width="0.9" height="0.9"/>
	<rect x="235.9" y="94" width="0.9" height="0.9"/>
	<rect x="235.9" y="95" width="0.9" height="0.9"/>
	<rect x="235.9" y="95.9" width="0.9" height="0.9"/>
	<rect x="235.9" y="96.8" width="0.9" height="0.9"/>
	<rect x="235.9" y="97.8" width="0.9" height="0.9"/>
	<rect x="235.9" y="98.7" class="st0" width="0.9" height="0.9"/>
	<rect x="235.9" y="99.7" class="st0" width="0.9" height="0.9"/>
	<rect x="235.9" y="100.6" width="0.9" height="0.9"/>
	<rect x="235.9" y="101.6" width="0.9" height="0.9"/>
	<rect x="235.9" y="102.5" width="0.9" height="0.9"/>
	<rect x="235.9" y="103.5" width="0.9" height="0.9"/>
	<rect x="235.9" y="104.4" width="0.9" height="0.9"/>
	<rect x="235.9" y="105.3" width="0.9" height="0.9"/>
	<rect x="235.9" y="106.3" class="st0" width="0.9" height="0.9"/>
	<rect x="235.9" y="107.2" class="st0" width="0.9" height="0.9"/>
	<rect x="235.9" y="108.2" width="0.9" height="0.9"/>
	<rect x="235.9" y="109.1" width="0.9" height="0.9"/>
	<rect x="235.9" y="110.1" class="st0" width="0.9" height="0.9"/>
	<rect x="235.9" y="111" width="0.9" height="0.9"/>
	<rect x="235.9" y="112" width="0.9" height="0.9"/>
	<rect x="235.9" y="112.9" width="0.9" height="0.9"/>
	<rect x="235.9" y="113.8" width="0.9" height="0.9"/>
	<rect x="235.9" y="114.8" width="0.9" height="0.9"/>
	<rect x="235.9" y="115.7" width="0.9" height="0.9"/>
	<rect x="235.9" y="116.7" width="0.9" height="0.9"/>
	<rect x="235.9" y="117.6" width="0.9" height="0.9"/>
	<rect x="235.9" y="118.6" class="st0" width="0.9" height="0.9"/>
	<rect x="235.9" y="119.5" width="0.9" height="0.9"/>
	<rect x="235.9" y="120.5" width="0.9" height="0.9"/>
	<rect x="235.9" y="121.4" class="st0" width="0.9" height="0.9"/>
	<rect x="235.9" y="122.4" width="0.9" height="0.9"/>
</g>
<path d="M118.2,104.9c-0.2-0.2-0.5-0.4-0.8-0.6l0.2-0.2c0,0,0.1,0,0.1,0.1c0.2,0.2,0.5,0.3,0.7,0.5L118.2,104.9z M117.8,107.3
	l-0.3-0.1c0.1-0.3,0.2-0.7,0.4-1.3c0.1-0.2,0.1-0.4,0.2-0.5c0.1,0,0.2,0.1,0.3,0.1C118.1,106.3,117.9,106.9,117.8,107.3z
	 M118.4,103.6c-0.2-0.1-0.4-0.3-0.7-0.6c-0.1,0-0.1,0-0.1-0.1l0.2-0.2c0.1,0.1,0.2,0.1,0.3,0.3c0.2,0.2,0.4,0.3,0.5,0.4L118.4,103.6
	z M118.8,105.3v-0.3h1.4v-0.6h0.3v0.6h1.5v0.3h-1.4c0.4,0.5,0.9,1,1.5,1.4c-0.1,0.1-0.2,0.1-0.2,0.2c-0.6-0.4-1.1-0.8-1.4-1.3v1.8
	h-0.3v-1.8c-0.4,0.6-0.9,1.1-1.5,1.4c0,0,0,0,0,0c0-0.1-0.1-0.1-0.2-0.2c0.7-0.4,1.2-0.9,1.6-1.4H118.8z M119,104.7
	c-0.1-0.1-0.1-0.2-0.2-0.2c0.3-0.2,0.7-0.5,1.1-0.8l0.2,0.2C119.7,104.2,119.4,104.5,119,104.7z M118.9,103.8V103h3v0.8h-0.3v-0.5
	h-2.4v0.5H118.9z M121.7,104.7c-0.3-0.2-0.7-0.5-1.1-0.8l0.2-0.2c0.2,0.1,0.4,0.3,0.7,0.5c0.2,0.1,0.3,0.2,0.4,0.3L121.7,104.7z"/>
<path d="M122.5,104.2v-0.3h0.6v-1.2h0.3v1.2h0.6v0.3h-0.6v1.6c0.1,0,0.2-0.1,0.4-0.1c0.1,0,0.2,0,0.2-0.1c0,0.1,0,0.2,0,0.3
	c-0.5,0.1-1,0.3-1.6,0.4l0-0.4c0.2,0,0.4-0.1,0.6-0.2v-1.7H122.5z M123.8,107.3c-0.1-0.1-0.2-0.2-0.3-0.2c0.4-0.3,0.6-0.7,0.7-1
	c0.1-0.3,0.2-0.9,0.2-1.8v-1.5h0.3v1.5c0,0.9-0.1,1.5-0.2,1.9C124.4,106.5,124.1,106.9,123.8,107.3z M125.4,106.9v-4h0.3v4H125.4z
	 M126.5,107.3v-4.5h0.3v4.5H126.5z"/>
<path d="M127.5,103.7v-0.3h2.2l-0.3-0.6l0.3-0.1c0,0.1,0.1,0.2,0.2,0.3c0.1,0.1,0.1,0.3,0.2,0.3l-0.2,0.1h2.2v0.3h-2.2v0.7h1.8v1.7
	c0,0.4-0.2,0.6-0.6,0.6c-0.1,0-0.3,0-0.6,0c0-0.1,0-0.2-0.1-0.3c0.2,0,0.4,0,0.6,0c0.2,0,0.4-0.1,0.4-0.4v-1.3h-1.4v2.6h-0.3v-2.6
	h-1.4v2.1h-0.3v-2.4h1.7v-0.7H127.5z"/>
<path d="M132.6,103.6v-0.3h0.8v-0.7h0.3v0.7h0.7v0.3h-0.7v0.8h0.8v0.3h-0.7v0.8h0.6v0.3h-0.6v1c0.2,0.1,0.6,0.1,1,0.1
	c1.1,0,1.9,0,2.2,0c0,0,0,0.1,0,0.1c0,0,0,0.1-0.1,0.2c-1.1,0-1.8,0-2.2,0c-0.9,0-1.5-0.3-1.8-0.9c0,0.3-0.2,0.6-0.4,1
	c0,0-0.1,0-0.1-0.1c-0.1,0-0.1-0.1-0.1-0.1c0.3-0.5,0.4-1.1,0.4-2.1h0.3c0,0.1,0,0.2,0,0.4c0,0.2,0,0.3,0,0.4
	c0.2,0.3,0.3,0.5,0.5,0.7v-1.9h-1.1v-0.3h1v-0.8H132.6z M135.7,104.5l-0.1-0.3c0.1,0,0.2,0,0.5,0c0.3,0,0.4-0.1,0.4-0.4
	c0-0.1,0-0.2,0-0.3c0-0.2,0-0.3,0-0.4h-1c0,0.7-0.3,1.2-0.8,1.4c-0.1-0.1-0.1-0.2-0.2-0.2c0.5-0.2,0.7-0.6,0.7-1.2h-0.7v-0.3h2.2
	c0,0.2,0,0.6-0.1,1c0,0.4-0.2,0.6-0.6,0.6C136,104.5,135.8,104.5,135.7,104.5z M134.8,106.4v-1.5h2v1.5H134.8z M135.1,105.2v1h1.4
	v-1H135.1z"/>
<path d="M137.6,105.8l-0.1-0.3c0.1-0.1,0.2-0.2,0.4-0.4c0.1-0.2,0.3-0.4,0.4-0.6c-0.3,0-0.6,0-0.8,0.1l-0.1-0.3
	c0.1-0.1,0.2-0.2,0.3-0.4c0.2-0.3,0.4-0.7,0.6-1.1l0.3,0.1c-0.2,0.4-0.5,0.9-0.8,1.3c0.1,0,0.2,0,0.3,0c0.2,0,0.3,0,0.4,0
	c0.1-0.1,0.2-0.2,0.3-0.4c0-0.1,0.1-0.1,0.1-0.2l0.3,0.1c-0.3,0.5-0.7,1.1-1.2,1.7c0.1,0,0.3,0,0.5-0.1c0.2,0,0.4,0,0.5,0
	c0,0.2,0,0.3,0,0.3c-0.1,0-0.2,0-0.3,0C138.1,105.7,137.8,105.7,137.6,105.8z M137.5,106.8l-0.1-0.3c0.6-0.1,1.1-0.2,1.5-0.3
	c0,0.1,0,0.2,0,0.3c-0.1,0-0.4,0.1-0.7,0.1C137.9,106.8,137.6,106.8,137.5,106.8z M139.7,107.3c0,0,0-0.1-0.1-0.1
	c-0.1-0.1-0.1-0.1-0.1-0.2c0.5-0.3,0.9-0.5,1.2-0.8c-0.4-0.4-0.6-1-0.8-1.6c0,1.1-0.3,1.9-0.9,2.6c0,0-0.1-0.1-0.2-0.2
	c0,0,0,0-0.1,0c0.4-0.4,0.6-0.8,0.7-1.3c0.1-0.4,0.2-1.1,0.2-2v-0.5h-0.4v-0.3h2.4v0.3l-0.5,1h0.9v0.3c-0.2,0.7-0.5,1.2-0.8,1.6
	c0.3,0.3,0.6,0.5,1.1,0.7c-0.1,0.1-0.2,0.2-0.2,0.3c-0.5-0.3-0.8-0.6-1.1-0.8C140.5,106.8,140.2,107.1,139.7,107.3z M139.8,103.7
	v0.3c0.2,0.8,0.6,1.5,1,2c0.2-0.3,0.5-0.8,0.7-1.4h-0.9v-0.3l0.5-1h-1.3V103.7z"/>
<path d="M142.6,104.5c0,0-0.1-0.1-0.1-0.2c0,0,0,0,0,0c0.2-0.2,0.4-0.3,0.6-0.5c-0.1-0.3-0.3-0.5-0.6-0.8l0.3-0.2
	c0.2,0.2,0.4,0.5,0.5,0.7c0.2-0.2,0.3-0.4,0.4-0.6l0.2,0.2c-0.2,0.2-0.4,0.5-0.5,0.7c0.2,0.5,0.4,1.3,0.4,2.4c0,0.7-0.2,1.1-0.7,1.1
	c-0.1,0-0.3,0-0.4,0c0,0,0-0.1,0-0.2c0-0.1,0-0.1,0-0.2c0.2,0,0.3,0,0.4,0c0.3,0,0.5-0.2,0.5-0.7c0-0.4,0-0.7,0-1
	c-0.2,0.3-0.5,0.6-0.8,0.9c0,0-0.1-0.1-0.1-0.2c0,0,0-0.1-0.1-0.1c0.4-0.3,0.7-0.6,0.9-1c0-0.3-0.1-0.5-0.2-0.8
	C143,104.2,142.8,104.3,142.6,104.5z M144.1,106c-0.1-0.1-0.2-0.1-0.2-0.2c0.3-0.3,0.5-0.6,0.6-1.1l0.3,0.1
	c-0.1,0.1-0.1,0.3-0.2,0.4h0.8v-0.4h0.3v0.4h1.2v0.3h-1.2v0.5h1.1v0.3h-1.1v0.5h1.4v0.3h-3.2v-0.3h1.5v-0.5h-1.2v-0.3h1.2v-0.5h-1
	C144.4,105.6,144.3,105.8,144.1,106C144.1,106,144.1,106,144.1,106z M144.2,104.7v-1.8h2.6v1.8H144.2z M144.5,103.2v0.5h2v-0.5
	H144.5z M144.5,103.9v0.5h2v-0.5H144.5z"/>
<path d="M147.6,104.5c0,0-0.1-0.1-0.1-0.2c0,0,0,0,0,0c0.2-0.2,0.4-0.3,0.6-0.5c-0.1-0.3-0.3-0.5-0.6-0.8l0.3-0.2
	c0.2,0.2,0.4,0.5,0.5,0.7c0.2-0.2,0.3-0.4,0.4-0.6l0.2,0.2c-0.2,0.2-0.4,0.5-0.5,0.7c0.2,0.5,0.4,1.3,0.4,2.4c0,0.7-0.2,1.1-0.7,1.1
	c-0.1,0-0.3,0-0.4,0c0,0,0-0.1,0-0.2c0-0.1,0-0.1,0-0.2c0.2,0,0.3,0,0.4,0c0.3,0,0.5-0.2,0.5-0.7c0-0.4,0-0.7,0-1
	c-0.2,0.3-0.5,0.6-0.8,0.9c0,0-0.1-0.1-0.1-0.2c0,0,0-0.1-0.1-0.1c0.4-0.3,0.7-0.6,0.9-1c0-0.3-0.1-0.5-0.2-0.8
	C148,104.2,147.8,104.3,147.6,104.5z M149.1,106c-0.1-0.1-0.2-0.1-0.2-0.2c0.3-0.3,0.5-0.6,0.6-1.1l0.3,0.1
	c-0.1,0.1-0.1,0.3-0.2,0.4h0.8v-0.4h0.3v0.4h1.2v0.3h-1.2v0.5h1.1v0.3h-1.1v0.5h1.4v0.3h-3.2v-0.3h1.5v-0.5h-1.2v-0.3h1.2v-0.5h-1
	C149.4,105.6,149.3,105.8,149.1,106C149.1,106,149.1,106,149.1,106z M149.2,104.7v-1.8h2.6v1.8H149.2z M149.5,103.2v0.5h2v-0.5
	H149.5z M149.5,103.9v0.5h2v-0.5H149.5z"/>
<path d="M152.9,107.3v-2.8c0,0,0,0.1-0.1,0.1c-0.1,0.3-0.2,0.5-0.3,0.6c0-0.1-0.1-0.2-0.1-0.3c0.4-0.7,0.7-1.5,0.9-2.3l0.3,0.1
	c-0.1,0.4-0.2,0.8-0.4,1.1v3.5H152.9z M157,107.2c-0.6,0-1,0-1.3,0c-0.8-0.1-1.3-0.2-1.6-0.5c-0.1,0.2-0.3,0.4-0.6,0.7
	c-0.1-0.1-0.1-0.1-0.2-0.2c0.3-0.2,0.4-0.5,0.6-0.7c-0.2-0.3-0.3-0.6-0.4-1l0.3-0.1c0.1,0.3,0.2,0.6,0.3,0.8
	c0.1-0.3,0.2-0.7,0.2-1.2h-0.7v-0.3l0.8-1.2h-0.7v-0.3h1v0.3l-0.8,1.2h0.7v0.2c-0.1,0.7-0.2,1.2-0.3,1.5c0.3,0.3,0.8,0.5,1.5,0.5
	c0.3,0,0.8,0,1.4,0C157.1,107,157,107.1,157,107.2z M154.6,104.1v-0.3h1v-0.4h-0.7v-0.3h0.7v-0.5h0.3v0.5h0.9v0.7h0.3v0.3h-0.3v0.7
	h-0.9v0.4h1v0.3h-1v0.4h1.1v0.2h-1.1v0.5h-0.3v-0.5h-0.9V106h0.9v-0.4h-0.8v-0.3h0.8v-0.4h-0.7v-0.2h0.7v-0.5H154.6z M156.5,103.4
	h-0.6v0.4h0.6V103.4z M155.9,104.6h0.6v-0.5h-0.6V104.6z"/>
<path d="M159.8,107.3c0-0.1,0-0.2-0.1-0.3c0.1,0,0.3,0,0.5,0c0.1,0,0.2,0,0.3,0c0.3,0,0.5-0.1,0.5-0.4v-0.8h0
	c-0.9,0.6-2,1.1-3.3,1.5c0-0.1-0.1-0.2-0.2-0.3c1.2-0.3,2.2-0.7,3-1.2h-3v-0.3h0.7v-2.3h1.2c0-0.1,0-0.2,0.1-0.4
	c0-0.1,0-0.1,0.1-0.2l0.3,0.1c0,0.1,0,0.2-0.1,0.3c0,0.1,0,0.1-0.1,0.2h1.7v2c0.1-0.1,0.2-0.1,0.3-0.2c0.1-0.1,0.2-0.2,0.3-0.2
	l0.2,0.2c-0.1,0.1-0.2,0.1-0.3,0.2c-0.2,0.2-0.4,0.3-0.5,0.4v1.1c0,0.4-0.2,0.7-0.7,0.6C160.4,107.3,160.2,107.3,159.8,107.3z
	 M158.4,103.4v0.5h2.6v-0.5H158.4z M158.4,104.2v0.5h2.6v-0.5H158.4z M158.4,105v0.5h2.4l0.1-0.1V105H158.4z"/>
<path d="M162.6,104c0-0.1-0.1-0.1-0.2-0.2c0.4-0.3,0.7-0.7,0.9-1.1l0.3,0.1c0,0,0,0.1-0.1,0.1c0,0.1-0.1,0.1-0.2,0.3h1.4v0.3h-1.6
	C163,103.5,162.8,103.7,162.6,104z M162.6,104.8v-0.7h2.1l-0.2-0.3l0.3-0.1c0.1,0.1,0.1,0.3,0.2,0.4h2v0.7h-0.3v-0.5h-3.7v0.5H162.6
	z M166.1,107.3v-0.2h-2.7v0.2h-0.3v-2.6h3.2v1h-2.9v0.4h3v1.2H166.1z M163.4,105v0.5h2.6V105H163.4z M166.1,106.4h-2.7v0.5h2.7
	V106.4z M163.9,103.9c0-0.1-0.1-0.1-0.2-0.2c-0.1-0.1-0.2-0.2-0.2-0.2l0.2-0.1c0.2,0.1,0.3,0.3,0.4,0.4L163.9,103.9z M165.1,103.8
	c0,0-0.1-0.1-0.2-0.1c0,0-0.1,0-0.1,0c0.3-0.3,0.5-0.6,0.6-1l0.3,0.1c-0.1,0.1-0.1,0.3-0.2,0.4h1.5v0.3h-1.7
	C165.3,103.4,165.2,103.6,165.1,103.8z M166.1,103.9c-0.1-0.2-0.3-0.3-0.4-0.5l0.2-0.1c0.1,0.1,0.3,0.3,0.4,0.4L166.1,103.9z"/>
<path d="M167.4,103.4v-0.3h1.6v0.3h-0.6v1.3h0.6v0.3h-0.6v1.4c0.1,0,0.2,0,0.4-0.1c0.1,0,0.2,0,0.3-0.1c0,0.2,0,0.3,0,0.3
	c-0.1,0-0.2,0-0.3,0.1c-0.5,0.1-1,0.2-1.3,0.2l-0.1-0.3c0.2,0,0.4-0.1,0.7-0.1V105h-0.6v-0.3h0.6v-1.3H167.4z M169.2,106.2v-0.3h1.2
	v-0.6h-1.1v-2.3h2.6v2.3h-1.1v0.6h1.2v0.3h-1.2v0.7h1.4v0.3h-3.2v-0.3h1.5v-0.7H169.2z M169.6,103.2v0.7h0.8v-0.7H169.6z
	 M169.6,104.2v0.8h0.8v-0.8H169.6z M171.5,103.2h-0.8v0.7h0.8V103.2z M170.7,104.2v0.8h0.8v-0.8H170.7z"/>
<path d="M172.6,103.6v-0.3h1.5c0.1-0.2,0.2-0.4,0.3-0.6l0.4,0.1c-0.1,0.2-0.2,0.4-0.3,0.6h2.6v0.3h-2.8c-0.1,0.2-0.3,0.4-0.4,0.6
	h2.6v2.5c0,0.4-0.2,0.5-0.6,0.5c-0.2,0-0.4,0-0.7,0c0,0,0-0.1,0-0.2c0-0.1,0-0.1,0-0.2c0.1,0,0.3,0,0.7,0c0.3,0,0.4-0.1,0.4-0.3
	v-0.4h-2.5v1.1h-0.3v-2.5c-0.2,0.3-0.5,0.5-0.8,0.8c-0.1-0.1-0.1-0.2-0.2-0.3c0.6-0.5,1.1-1.1,1.5-1.7H172.6z M173.7,104.5v0.6h2.5
	v-0.6H173.7z M173.7,105.4v0.6h2.5v-0.6H173.7z"/>
<path d="M177.6,107.3v-4.4h1.4v0.3l-0.4,1.3c0.3,0.4,0.5,0.8,0.4,1.2c0,0.5-0.2,0.7-0.5,0.7c-0.1,0-0.2,0-0.4,0c0,0,0,0,0,0
	c0-0.1,0-0.2-0.1-0.3c0.1,0,0.2,0,0.3,0c0.2,0,0.3-0.1,0.3-0.5c0-0.4-0.2-0.8-0.5-1.2l0.4-1.4h-0.8v4.1H177.6z M181.9,107.3
	c-0.9-0.4-1.5-1.1-1.7-2.1h-0.5v1.7l0.8-0.4c0,0.1,0,0.2,0,0.3c-0.3,0.1-0.5,0.2-0.8,0.4c0,0-0.1,0.1-0.1,0.1
	c-0.1,0-0.1,0.1-0.1,0.1l-0.2-0.3c0.1-0.1,0.1-0.2,0.1-0.4v-3.8h2.2v2.3h-1.1c0.1,0.3,0.2,0.6,0.4,0.9c0.4-0.2,0.7-0.4,0.9-0.6
	l0.2,0.3c-0.3,0.2-0.6,0.4-1,0.6c0.2,0.3,0.6,0.5,1.1,0.7c0,0,0,0.1-0.1,0.2C182,107.2,182,107.2,181.9,107.3z M179.7,103.2v0.7h1.6
	v-0.7H179.7z M179.7,104.9h1.6v-0.7h-1.6V104.9z"/>
<path d="M182.6,105.2c-0.1-0.1-0.2-0.2-0.3-0.3c0.7-0.5,1.3-1.2,1.6-2l0.3,0.1C183.9,103.9,183.4,104.6,182.6,105.2z M186.5,107.3
	l-0.4-0.4c-1.1,0-2,0.1-2.7,0.1c-0.2,0-0.4,0-0.5,0.1l-0.2-0.3c0.2-0.1,0.3-0.2,0.4-0.3c0.5-0.5,0.9-1.1,1.3-1.9l0.4,0.2
	c-0.5,0.8-1,1.4-1.4,2c0.1,0,0.2,0,0.4,0c0.9,0,1.6-0.1,2.1-0.1c-0.2-0.3-0.5-0.6-0.8-1l0.3-0.2c0.2,0.2,0.4,0.5,0.7,0.8
	c0.3,0.4,0.5,0.6,0.7,0.8L186.5,107.3z M186.9,105.1c-0.8-0.6-1.4-1.3-1.7-2.2l0.3-0.1c0.3,0.9,0.9,1.5,1.6,2L186.9,105.1z"/>
<path d="M187.5,104.2v-0.3h3.6v0.3H187.5z M190.3,107.3C190.3,107.3,190.3,107.2,190.3,107.3c0-0.2-0.1-0.3-0.1-0.4
	c0.2,0,0.5,0,0.8,0c0.3,0,0.4-0.1,0.4-0.4v-3.4h-3.8v-0.3h4.1v3.7c0,0.4-0.2,0.7-0.6,0.7C190.9,107.3,190.7,107.3,190.3,107.3z
	 M187.9,106.8v-2h2.6v1.6h-2.2v0.3H187.9z M190.2,106.2v-1.1h-1.9v1.1H190.2z"/>
<g>
	<path d="M74.7,35V20.3h4.9l1.8,8.7h0l1.8-8.7H88V35h-3.3l0.4-11.5h0L82.6,35H80l-2.4-11.5h0L77.9,35H74.7z"/>
	<path d="M104.6,26.7L104.6,26.7l0.3,8.2h-3.3V20.3h3.6l2.7,8.2h0.1l-0.3-8.2h3.3V35h-3.5L104.6,26.7z"/>
	<path d="M112.9,35V20.3h3.5v5.9h0l2.6-5.9h3.5l-3.1,6.5l3.3,8.2H119l-1.9-5.1l-0.8,1.5V35H112.9z"/>
	<path d="M124.4,35V20.3h7.9v2.9h-4.5v2.7h4.3v2.9h-4.3V32h4.7V35H124.4z"/>
	<path d="M139.4,25.1L139.4,25.1l1.8-4.8h3.5l-3.6,8.5V35h-3.5v-6.2l-3.5-8.5h3.5L139.4,25.1z"/>
	<path d="M94.9,19.9c-3,0-4.7,1.6-4.7,4.4v6c0,3.3,1.2,5,4.7,5s4.7-1.7,4.7-5v-6C99.5,21.5,97.9,19.9,94.9,19.9z M96,31.8
		c0,0.6-0.5,1.2-1.2,1.2h0c-0.6,0-1.2-0.5-1.2-1.2v-8.2c0-0.6,0.5-1.2,1.2-1.2h0c0.6,0,1.2,0.5,1.2,1.2V31.8z"/>
	<path d="M22,30v1c0,0.8,0.3,1.6,1.4,1.6c0.8,0,1.2-0.7,1.2-1.5c0-1.2-1-1.7-1.9-2.3c-1.1-0.6-2-1.2-2.6-1.9c-0.6-0.7-1-1.6-1-2.9
		c0-2.8,1.7-4.2,4.3-4.2c3,0,4.5,2,4.4,4.8h-3.2c0-0.9,0-2-1.1-2.1c-0.7-0.1-1.1,0.3-1.2,1c-0.1,0.9,0.4,1.3,1,1.8
		c1.3,0.8,2.4,1.3,3.2,2.1c0.8,0.7,1.3,1.7,1.3,3.5c0,2.8-1.6,4.4-4.4,4.4c-3.2,0-4.5-1.8-4.5-3.7V30H22z"/>
	<path d="M52.6,35V20.3h7.9v2.9h-4.5v2.7h4.3v2.9h-4.3V32h4.7V35H52.6z"/>
	<path d="M49.5,21.5c-1-1.1-2.9-1.2-4.2-1.2h-4.1V35h3.5v-5.7c1.3-0.1,2.7,0.1,3.9-0.5c1.6-0.7,1.9-2.5,1.9-4.1
		C50.5,23.5,50.3,22.4,49.5,21.5z M47,25.6c0,0.6-0.5,1.2-1.2,1.2h0c-0.6,0-1.2-0.5-1.2-1.2v-1.8c0-0.6,0.5-1.2,1.2-1.2h0
		c0.6,0,1.2,0.5,1.2,1.2V25.6z"/>
	<path d="M72,29c-0.1-0.2-0.2-0.4-0.3-0.5l0,0c-0.3-0.4-0.8-0.7-1.3-0.8v0c1.5-0.7,1.8-1.8,1.8-3.4c0-2.9-1.4-4.1-4.2-4.1h-5V35h3.4
		v-4.1l0,0c0-0.6,0.5-1.1,1.2-1.1h0c0.6,0,1.2,0.5,1.2,1.2l0,4.1h3.5v-4.6c0,0,0-0.5-0.1-1.1C72,29.2,72,29.1,72,29z M68.7,25.6
		c0,0.6-0.5,1.2-1.2,1.2h0c-0.6,0-1.2-0.5-1.2-1.2v-1.8c0-0.6,0.5-1.2,1.2-1.2h0c0.6,0,1.2,0.5,1.2,1.2V25.6z"/>
	<path d="M35.7,20.3v11c0,0,0,0.1,0,0.1v0.1c0,0.7-0.5,1.2-1.2,1.2h0c-0.7,0-1.2-0.5-1.2-1.2v-1.8c0,0,0,0,0-0.1v-9.4h-3.5v10.7
		c0,3,1.7,4.4,4.6,4.4c3.5,0,4.6-1.9,4.6-4.4V20.3H35.7z"/>
</g>
<g>
	<path d="M148.5,33.7c0.1,0.8,0.6,1.1,1.2,1.1c0.8,0,1.1-0.4,1.1-0.9c0-1.3-2.6-0.4-2.6-2.1c0-0.6,0.5-1.2,1.5-1.2
		c1,0,1.5,0.6,1.5,1.3h-0.4c0-0.7-0.5-0.9-1.1-0.9c-0.8,0-1.1,0.5-1.1,1c0.2,1.1,2.6,0.3,2.6,2c0,0.8-0.6,1.3-1.6,1.3
		c-0.9,0-1.6-0.5-1.6-1.4H148.5z"/>
	<path d="M154,31.9h0.4V35H154v-0.4c-0.2,0.2-0.5,0.5-1,0.5c-0.8,0-1.1-0.5-1.1-1.1v-2h0.4v2c0,0.5,0.2,0.8,0.8,0.8
		c0.6,0,0.9-0.5,0.9-1.2V31.9z"/>
	<path d="M155.6,36.2h-0.4v-4.3h0.4v0.5h0c0.2-0.4,0.7-0.6,1.1-0.6c1,0,1.4,0.7,1.4,1.6c0,0.9-0.4,1.6-1.4,1.6
		c-0.4,0-0.9-0.2-1.1-0.6V36.2z M156.7,34.7c0.7,0,1.1-0.6,1.1-1.4c0-0.8-0.5-1.2-1.1-1.2c-0.7,0-1,0.6-1,1.3
		C155.6,34.1,156,34.7,156.7,34.7z"/>
	<path d="M159.1,33.5c0,0.7,0.4,1.2,1,1.2c0.5,0,0.8-0.3,0.9-0.7h0.4c-0.2,0.6-0.6,1-1.3,1c-1,0-1.4-0.7-1.4-1.6
		c0-0.9,0.5-1.6,1.4-1.6c0.9,0,1.4,0.6,1.4,1.7H159.1z M161.1,33.2c0-0.6-0.3-1.1-1-1.1c-0.6,0-1,0.5-1,1.1H161.1z"/>
	<path d="M162.6,35h-0.4v-3.1h0.4v0.6h0c0.2-0.5,0.5-0.7,1-0.7v0.4c-0.8,0-1,0.6-1,1.3V35z"/>
	<path d="M166,35v-4.3h0.4v4h2.3V35H166z"/>
	<path d="M169.3,31.2v-0.5h0.4v0.5H169.3z M169.3,35v-3.1h0.4V35H169.3z"/>
	<path d="M170.3,32.2v-0.3h0.5v-0.5c0-0.5,0.2-0.8,0.7-0.8c0.1,0,0.2,0,0.3,0v0.3c-0.1,0-0.2,0-0.2,0c-0.4,0-0.4,0.3-0.4,0.6v0.4
		h0.6v0.3h-0.6V35h-0.4v-2.8H170.3z"/>
	<path d="M172.5,33.5c0,0.7,0.4,1.2,1,1.2c0.5,0,0.8-0.3,0.9-0.7h0.4c-0.2,0.6-0.6,1-1.3,1c-1,0-1.4-0.7-1.4-1.6
		c0-0.9,0.5-1.6,1.4-1.6c0.9,0,1.4,0.6,1.4,1.7H172.5z M174.5,33.2c0-0.6-0.3-1.1-1-1.1c-0.6,0-1,0.5-1,1.1H174.5z"/>
	<path d="M177.5,33.7c0.1,0.8,0.6,1.1,1.2,1.1c0.8,0,1.1-0.4,1.1-0.9c0-1.3-2.6-0.4-2.6-2.1c0-0.6,0.5-1.2,1.5-1.2
		c1,0,1.5,0.6,1.5,1.3h-0.4c0-0.7-0.5-0.9-1.1-0.9c-0.8,0-1.1,0.5-1.1,1c0.2,1.1,2.6,0.3,2.6,2c0,0.8-0.6,1.3-1.6,1.3
		c-0.9,0-1.6-0.5-1.6-1.4H177.5z"/>
	<path d="M183,31.9h0.4V35H183v-0.4c-0.2,0.2-0.5,0.5-1,0.5c-0.8,0-1.1-0.5-1.1-1.1v-2h0.4v2c0,0.5,0.2,0.8,0.8,0.8
		c0.6,0,0.9-0.5,0.9-1.2V31.9z"/>
	<path d="M184.6,36.2h-0.4v-4.3h0.4v0.5h0c0.2-0.4,0.7-0.6,1.1-0.6c1,0,1.4,0.7,1.4,1.6c0,0.9-0.4,1.6-1.4,1.6
		c-0.4,0-0.9-0.2-1.1-0.6V36.2z M185.7,34.7c0.7,0,1.1-0.6,1.1-1.4c0-0.8-0.5-1.2-1.1-1.2c-0.7,0-1,0.6-1,1.3
		C184.6,34.1,185,34.7,185.7,34.7z"/>
	<path d="M188.1,33.5c0,0.7,0.4,1.2,1,1.2c0.5,0,0.8-0.3,0.9-0.7h0.4c-0.2,0.6-0.6,1-1.3,1c-1,0-1.4-0.7-1.4-1.6
		c0-0.9,0.5-1.6,1.4-1.6c0.9,0,1.4,0.6,1.4,1.7H188.1z M190.2,33.2c0-0.6-0.3-1.1-1-1.1c-0.6,0-1,0.5-1,1.1H190.2z"/>
	<path d="M191.6,35h-0.4v-3.1h0.4v0.6h0c0.2-0.5,0.5-0.7,1-0.7v0.4c-0.8,0-1,0.6-1,1.3V35z"/>
	<path d="M194.9,35v-4.3h0.6l1.4,3.8h0l1.4-3.8h0.6V35h-0.4v-3.9h0l-1.4,3.9h-0.4l-1.4-3.9h0V35H194.9z"/>
	<path d="M200.1,33.5c0,0.7,0.4,1.2,1,1.2c0.5,0,0.8-0.3,0.9-0.7h0.4c-0.2,0.6-0.6,1-1.3,1c-1,0-1.4-0.7-1.4-1.6
		c0-0.9,0.5-1.6,1.4-1.6c0.9,0,1.4,0.6,1.4,1.7H200.1z M202.2,33.2c0-0.6-0.3-1.1-1-1.1c-0.6,0-1,0.5-1,1.1H202.2z"/>
</g>
<g>
	<path d="M20.6,122.8H19v-0.3l1.6-2.3H21v2.4h0.5v0.3H21v0.9h-0.3V122.8z M19.3,122.5h1.3v-1.9L19.3,122.5z"/>
	<path d="M24.2,121.9c0,0.9-0.2,1.8-1.2,1.8c-1,0-1.2-0.8-1.2-1.8c0-0.9,0.2-1.8,1.2-1.8C24.1,120.1,24.2,121.1,24.2,121.9z
		 M23,120.4c-0.7,0-0.9,0.8-0.9,1.6c0,0.9,0.2,1.5,0.9,1.5c0.8,0,0.9-0.8,0.9-1.5C23.9,121.1,23.8,120.4,23,120.4z"/>
	<path d="M27,121.9c0,0.9-0.2,1.8-1.2,1.8c-1,0-1.2-0.8-1.2-1.8c0-0.9,0.2-1.8,1.2-1.8C26.8,120.1,27,121.1,27,121.9z M25.8,120.4
		c-0.7,0-0.9,0.8-0.9,1.6c0,0.9,0.2,1.5,0.9,1.5c0.8,0,0.9-0.8,0.9-1.5C26.7,121.1,26.5,120.4,25.8,120.4z"/>
	<path d="M29.2,122.9c0.1,0.4,0.3,0.6,0.7,0.6c0.8,0,1-0.9,1-1.6l0,0c-0.2,0.4-0.5,0.6-1,0.6c-0.7,0-1.1-0.5-1.1-1.1
		c0-0.7,0.4-1.2,1.1-1.2c1,0,1.2,0.8,1.2,1.8c0,1.2-0.5,1.8-1.3,1.8c-0.6,0-1-0.3-1-0.8H29.2z M29.1,121.3c0,0.5,0.3,0.9,0.8,0.9
		c0.5,0,0.8-0.4,0.8-0.9c0-0.5-0.3-0.9-0.8-0.9C29.4,120.4,29.1,120.7,29.1,121.3z"/>
	<path d="M33.9,121.9c0,0.9-0.2,1.8-1.2,1.8c-1,0-1.2-0.8-1.2-1.8c0-0.9,0.2-1.8,1.2-1.8C33.8,120.1,33.9,121.1,33.9,121.9z
		 M32.7,120.4c-0.7,0-0.9,0.8-0.9,1.6c0,0.9,0.2,1.5,0.9,1.5c0.8,0,0.9-0.8,0.9-1.5C33.6,121.1,33.5,120.4,32.7,120.4z"/>
	<path d="M36.7,121.9c0,0.9-0.2,1.8-1.2,1.8c-1,0-1.2-0.8-1.2-1.8c0-0.9,0.2-1.8,1.2-1.8C36.6,120.1,36.7,121.1,36.7,121.9z
		 M35.5,120.4c-0.7,0-0.9,0.8-0.9,1.6c0,0.9,0.2,1.5,0.9,1.5c0.8,0,0.9-0.8,0.9-1.5C36.4,121.1,36.3,120.4,35.5,120.4z"/>
	<path d="M38.9,122.9c0.1,0.4,0.3,0.6,0.7,0.6c0.8,0,1-0.9,1-1.6l0,0c-0.2,0.4-0.5,0.6-1,0.6c-0.7,0-1.1-0.5-1.1-1.1
		c0-0.7,0.4-1.2,1.1-1.2c1,0,1.2,0.8,1.2,1.8c0,1.2-0.5,1.8-1.3,1.8c-0.6,0-1-0.3-1-0.8H38.9z M38.8,121.3c0,0.5,0.3,0.9,0.8,0.9
		c0.5,0,0.8-0.4,0.8-0.9c0-0.5-0.3-0.9-0.8-0.9C39.1,120.4,38.8,120.7,38.8,121.3z"/>
	<path d="M42.6,121h-0.9v-0.2c0.5,0,0.9-0.1,1-0.7h0.3v3.5h-0.3V121z"/>
	<path d="M46.1,121c-0.1-0.4-0.3-0.6-0.7-0.6c-0.9,0-0.9,0.9-1,1.6c0.2-0.3,0.4-0.6,0.9-0.6c0.7,0,1.1,0.4,1.1,1.1
		c0,0.7-0.4,1.1-1.1,1.1c-0.7,0-1.2-0.4-1.2-1.7c0-0.8,0.2-1.9,1.3-1.9c0.6,0,1,0.3,1,0.9H46.1z M44.5,122.6c0,0.4,0.2,0.9,0.8,0.9
		c0.6,0,0.8-0.5,0.8-0.9c0-0.5-0.3-0.9-0.8-0.9C44.8,121.7,44.5,122.1,44.5,122.6z"/>
	<path d="M48.8,121c-0.1-0.4-0.3-0.6-0.7-0.6c-0.9,0-0.9,0.9-1,1.6c0.2-0.3,0.4-0.6,0.9-0.6c0.7,0,1.1,0.4,1.1,1.1
		c0,0.7-0.4,1.1-1.1,1.1c-0.7,0-1.2-0.4-1.2-1.7c0-0.8,0.2-1.9,1.3-1.9c0.6,0,1,0.3,1,0.9H48.8z M47.3,122.6c0,0.4,0.2,0.9,0.8,0.9
		c0.6,0,0.8-0.5,0.8-0.9c0-0.5-0.3-0.9-0.8-0.9C47.6,121.7,47.3,122.1,47.3,122.6z"/>
</g>
<g>
	<path d="M118.3,113c-0.2-0.2-0.6-0.4-0.9-0.5l0.2-0.2c0.3,0.1,0.7,0.3,0.9,0.5L118.3,113z M118.6,113.7c-0.2,0.5-0.5,1.1-0.8,1.6
		l-0.3-0.2c0.2-0.4,0.6-1,0.8-1.6L118.6,113.7z M118.5,111.7c-0.2-0.2-0.5-0.4-0.8-0.5l0.2-0.2c0.3,0.1,0.6,0.3,0.8,0.5L118.5,111.7
		z M120.7,113.6c0.3,0.5,0.8,1,1.3,1.3c-0.1,0.1-0.2,0.2-0.2,0.3c-0.5-0.3-0.9-0.8-1.2-1.4v1.7h-0.3v-1.6c-0.3,0.6-0.8,1.1-1.3,1.4
		c0-0.1-0.1-0.2-0.2-0.3c0.5-0.3,1.1-0.8,1.4-1.3h-1.1v-0.3h1.3v-0.6h0.3v0.6h1.3v0.3H120.7z M120.1,111.9c-0.2,0.4-0.6,0.8-1,1.1
		c0,0-0.2-0.2-0.2-0.2c0.4-0.2,0.7-0.6,1-1L120.1,111.9z M119.2,112h-0.3v-0.9h2.9v0.9h-0.3v-0.6h-2.3V112z M120.8,111.8
		c0.3,0.3,0.8,0.7,1,1l-0.3,0.2c-0.2-0.3-0.6-0.7-0.9-1L120.8,111.8z"/>
	<path d="M124,114.1c-0.6,0.2-1.1,0.5-1.6,0.6l-0.1-0.3c0.2-0.1,0.4-0.2,0.7-0.3v-1.8h-0.6v-0.3h0.6v-1.2h0.3v1.2h0.6v0.3h-0.6v1.6
		l0.6-0.2L124,114.1z M124.4,111h0.3v1.7c0,1-0.1,1.9-0.7,2.7c-0.1-0.1-0.2-0.1-0.3-0.2c0.6-0.7,0.6-1.6,0.6-2.5V111z M125.4,111.3
		h0.3v3.5h-0.3V111.3z M126.7,111v4.4h-0.3V111H126.7z"/>
	<path d="M129.7,111.9v0.7h1.6v1.8c0,0.2,0,0.3-0.2,0.4c-0.2,0.1-0.4,0.1-0.9,0.1c0-0.1-0.1-0.2-0.1-0.3c0.4,0,0.7,0,0.7,0
		c0.1,0,0.1,0,0.1-0.1V113h-1.3v2.5h-0.3V113h-1.2v1.9h-0.3v-2.2h1.5v-0.7h-2v-0.3h2.2c-0.1-0.2-0.2-0.5-0.3-0.7l0.3-0.1
		c0.1,0.2,0.3,0.6,0.4,0.7l-0.1,0h2v0.3H129.7z"/>
	<path d="M134.1,112c-0.2,0.2-0.4,0.4-0.6,0.5c-0.1-0.1-0.2-0.2-0.3-0.2c0.5-0.3,1.1-0.9,1.4-1.4l0.3,0.1c-0.1,0.2-0.3,0.5-0.5,0.7
		v1.7h-0.3V112z M137.7,114.3h-2.1v1.2h-0.3v-1.2h-2.1v-0.3h2.1v-0.6h0.3v0.6h2.1L137.7,114.3z M135.6,112.2
		c-0.3,0.1-0.5,0.1-0.7,0.2c0-0.1-0.1-0.2-0.1-0.3c0.3-0.1,0.6-0.2,0.9-0.3v-1h0.3v0.9c0.5-0.2,1-0.4,1.3-0.6l0.3,0.3
		c-0.4,0.3-1,0.5-1.5,0.7v0.6c0,0.2,0,0.2,0.3,0.2h0.9c0.2,0,0.2-0.1,0.3-0.6c0.1,0.1,0.2,0.1,0.3,0.1c0,0.6-0.1,0.7-0.5,0.7h-0.9
		c-0.5,0-0.6-0.1-0.6-0.5V112.2z"/>
	<path d="M139.5,111c-0.1,0.4-0.3,0.7-0.5,1.1v3.4h-0.3v-2.9c-0.2,0.2-0.4,0.5-0.5,0.7c0-0.1-0.1-0.3-0.2-0.3c0.5-0.5,1-1.2,1.2-2
		L139.5,111z M141.5,112.5c0.3,0.4,0.7,0.8,1.2,1c-0.1,0.1-0.2,0.2-0.2,0.3c-0.5-0.2-1-0.7-1.3-1.2h-0.5c-0.3,0.6-0.7,1-1.3,1.2
		c0-0.1-0.1-0.2-0.2-0.3c0.5-0.2,0.9-0.5,1.2-1h-1v-0.3h1.1c0.1-0.2,0.2-0.4,0.2-0.7c-0.3,0-0.7,0.1-1,0.1c0-0.1-0.1-0.2-0.1-0.3
		c0.8-0.1,1.8-0.2,2.4-0.3l0.2,0.3c-0.3,0.1-0.7,0.2-1.2,0.2c-0.1,0.3-0.1,0.5-0.2,0.7h1.7v0.3H141.5z M140.1,113.4h0.3v0.3
		c0,0.5-0.2,1.3-0.9,1.8c0-0.1-0.2-0.2-0.2-0.2c0.7-0.5,0.8-1.1,0.8-1.6V113.4z M141.4,113.4h0.3v2h-0.3V113.4z"/>
	<path d="M144.5,114.2c-0.5,0.2-1,0.4-1.4,0.5l-0.1-0.3c0.2-0.1,0.4-0.1,0.6-0.2v-1.8H143v-0.3h0.5v-1.2h0.3v1.2h0.5v0.3h-0.5v1.7
		l0.5-0.2L144.5,114.2z M147.4,112.6c-0.2,0.7-0.4,1.2-0.7,1.7c0.1,0.5,0.3,0.8,0.5,0.8c0.1,0,0.2-0.2,0.2-0.8
		c0.1,0.1,0.2,0.1,0.3,0.2c-0.1,0.7-0.2,1-0.5,1c-0.3,0-0.5-0.3-0.7-0.8c-0.2,0.3-0.5,0.6-0.9,0.8c0-0.1-0.2-0.2-0.2-0.2
		c0.4-0.3,0.7-0.6,1-1c-0.1-0.6-0.2-1.4-0.2-2.3h-1.2v0.7h1c0,0,0,0.1,0,0.1c0,1.2,0,1.5-0.1,1.7c-0.1,0.1-0.1,0.1-0.3,0.1
		c-0.1,0-0.3,0-0.5,0c0-0.1,0-0.2-0.1-0.3c0.2,0,0.3,0,0.4,0c0.1,0,0.1,0,0.1,0c0.1-0.1,0.1-0.4,0.1-1.3h-0.7v0.2
		c0,0.7-0.1,1.6-0.6,2.3c-0.1-0.1-0.2-0.2-0.2-0.2c0.5-0.6,0.6-1.4,0.6-2.1v-1.5h1.5c0-0.3,0-0.5,0-0.8h0.3c0,0.3,0,0.5,0,0.8h1.1
		v0.3h-1.1c0,0.7,0.1,1.4,0.2,1.9c0.2-0.4,0.4-0.8,0.5-1.3L147.4,112.6z M147.1,111.6c-0.1-0.2-0.4-0.4-0.6-0.6l0.2-0.1
		c0.2,0.2,0.5,0.4,0.6,0.6L147.1,111.6z"/>
	<path d="M149.5,111c0,0.1-0.1,0.1-0.1,0.2c0.4,0.4,0.9,1,1.2,1.3l-0.2,0.2c-0.2-0.3-0.7-0.9-1.1-1.3c-0.3,0.6-0.7,1.1-1.2,1.4
		c-0.1-0.1-0.2-0.2-0.2-0.2c0.6-0.5,1.2-1.2,1.4-1.8L149.5,111z M149.9,115.1c0.2,0,0.3-0.1,0.3-0.7c0.1,0.1,0.2,0.1,0.3,0.1
		c0,0.7-0.1,0.9-0.6,0.9h-1c-0.5,0-0.6-0.1-0.6-0.5v-2.2h1.8c0,0,0,0.1,0,0.1c0,0.9-0.1,1.2-0.2,1.3c-0.1,0.1-0.2,0.1-0.3,0.1
		c-0.1,0-0.3,0-0.5,0c0-0.1,0-0.2-0.1-0.3c0.2,0,0.4,0,0.4,0c0.1,0,0.1,0,0.1,0c0.1-0.1,0.1-0.3,0.2-1h-1.1v1.9
		c0,0.2,0.1,0.2,0.3,0.2H149.9z M151.2,114.2h-0.3v-2.7h0.3V114.2z M152.2,110.9v4c0,0.2-0.1,0.3-0.2,0.4c-0.2,0.1-0.4,0.1-0.9,0.1
		c0-0.1-0.1-0.2-0.1-0.3c0.4,0,0.7,0,0.8,0c0.1,0,0.1,0,0.1-0.1v-4H152.2z"/>
	<path d="M152.9,115.1c0.3-0.2,0.5-0.6,0.6-0.9l0.3,0.1c-0.1,0.3-0.3,0.7-0.6,0.9L152.9,115.1z M157.2,112.1v0.3h-4.3v-0.3h1.2
		c0-0.1-0.1-0.3-0.2-0.5l0.3-0.1h-1v-0.3h1.8c-0.1-0.1-0.1-0.2-0.2-0.4l0.3-0.1c0.1,0.1,0.2,0.3,0.2,0.4h1.6v0.3h-1l0.3,0.1
		c-0.1,0.2-0.2,0.3-0.3,0.5H157.2z M156.6,114h-1.8c0.3,0.1,0.6,0.4,0.7,0.5l-0.2,0.2c-0.2-0.2-0.5-0.4-0.8-0.6l0.2-0.2h-1.3v-1.4
		h3.1V114z M156.3,112.8h-2.5v0.4h2.5V112.8z M156.3,113.4h-2.5v0.4h2.5V113.4z M155.6,115.1c0.2,0,0.3-0.1,0.3-0.5
		c0.1,0,0.2,0.1,0.3,0.1c0,0.6-0.1,0.7-0.5,0.7h-1c-0.5,0-0.6-0.1-0.6-0.4v-0.7h0.3v0.7c0,0.1,0,0.1,0.3,0.1H155.6z M154.2,111.5
		c0.1,0.2,0.2,0.4,0.2,0.5l0,0h1.2c0.1-0.2,0.2-0.4,0.3-0.5H154.2z M156.5,114.2c0.3,0.3,0.5,0.6,0.7,0.9l-0.3,0.1
		c-0.1-0.2-0.4-0.6-0.7-0.9L156.5,114.2z"/>
	<path d="M162,111.1v4.3h-0.3v-0.2h-3.5v0.2h-0.3v-4.3H162z M161.7,114.9v-3.5h-3.5v3.5H161.7z M161.1,114.3c0.1,0,0.1-0.1,0.1-0.5
		c0.1,0.1,0.2,0.1,0.3,0.1c0,0.5-0.1,0.7-0.4,0.7h-0.5c-0.3,0-0.4-0.1-0.4-0.4v-1.1h-0.6c-0.1,0.9-0.3,1.4-1,1.6
		c0-0.1-0.1-0.2-0.2-0.2c0.7-0.2,0.9-0.6,0.9-1.4h-0.8v-0.3h3v0.3h-1v1.1c0,0.1,0,0.1,0.2,0.1H161.1z M161.2,112.2h-2.4V112h2.4
		V112.2z"/>
	<path d="M166.2,111c0,0.1-0.1,0.1-0.1,0.2c0.5,0.6,1.4,1.1,2.1,1.3c-0.1,0.1-0.2,0.2-0.2,0.3c-0.7-0.3-1.6-0.8-2.1-1.4
		c-0.3,0.4-0.8,0.7-1.2,1h2.5v0.3H166v0.7h1.8v0.3H166v1.3h2v0.3h-4.3V115h2v-1.3H164v-0.3h1.7v-0.7h-1.1v-0.3
		c-0.3,0.2-0.5,0.3-0.8,0.4c0-0.1-0.1-0.2-0.2-0.3c0.9-0.3,1.9-0.9,2.3-1.7L166.2,111z M164.7,113.8c0.2,0.3,0.4,0.7,0.5,0.9
		l-0.3,0.1c-0.1-0.2-0.3-0.6-0.5-0.9L164.7,113.8z M166.5,114.8c0.2-0.3,0.4-0.7,0.5-0.9l0.3,0.1c-0.2,0.3-0.4,0.7-0.6,0.9
		L166.5,114.8z"/>
	<path d="M171.1,111c0,0.1-0.1,0.2-0.1,0.2c0.4,0.6,1.3,1.2,2.1,1.4c-0.1,0.1-0.2,0.2-0.2,0.3c-0.8-0.3-1.6-0.8-2-1.5
		c-0.5,0.7-1.2,1.2-2,1.5c0-0.1-0.1-0.2-0.2-0.3c1-0.3,1.8-1,2.2-1.8L171.1,111z M170.6,114.6c-0.2-0.2-0.5-0.5-0.8-0.8
		c-0.2,0.7-0.5,1.2-1,1.6c-0.1-0.1-0.2-0.2-0.3-0.2c0.7-0.5,1-1.4,1.1-2.5l0.3,0c0,0.3-0.1,0.5-0.1,0.8c0.4,0.3,0.8,0.6,1,0.9
		L170.6,114.6z M171.8,112.7c0,0.2-0.1,0.4-0.1,0.6c0.2,0.6,0.6,1.4,1.3,1.7c-0.1,0.1-0.2,0.2-0.2,0.3c-0.6-0.3-1-0.9-1.2-1.5
		c-0.2,0.7-0.5,1.2-1,1.5c-0.1-0.1-0.2-0.2-0.3-0.2c0.7-0.5,1-1.4,1.1-2.5L171.8,112.7z"/>
	<path d="M177.9,114.7v0.3h-4.5v-0.3h2v-2.9h-1.8v-0.3h4v0.3h-1.8v2.9H177.9z"/>
	<path d="M182.8,114.8v0.3h-4.4v-0.3h1.4v-3.9h0.3v3.9h0.9v-3.9h0.3v3.9H182.8z M179.2,113.9c-0.1-0.4-0.4-1.2-0.7-1.7l0.3-0.1
		c0.3,0.5,0.6,1.3,0.7,1.7L179.2,113.9z M182.7,112.2c-0.2,0.6-0.6,1.3-0.9,1.7l-0.3-0.2c0.3-0.5,0.6-1.2,0.8-1.7L182.7,112.2z"/>
	<path d="M184.4,112.2c-0.2,0.7-0.5,1.6-1,2.2c-0.1-0.1-0.2-0.2-0.3-0.2c0.5-0.5,0.7-1.4,0.9-2.1L184.4,112.2z M185.7,110.9v4
		c0,0.3-0.1,0.4-0.2,0.4c-0.2,0.1-0.5,0.1-0.9,0.1c0-0.1-0.1-0.3-0.1-0.4c0.4,0,0.7,0,0.8,0c0.1,0,0.1,0,0.1-0.1v-4H185.7z
		 M186.8,112.1c0.4,0.7,0.9,1.6,1,2.2l-0.3,0.2c-0.1-0.6-0.5-1.5-1-2.2L186.8,112.1z"/>
	<path d="M192.6,115v0.3h-4.2v-4.1h4.1v0.3h-3.8v3.5H192.6z M191.7,114.6c-0.3-0.3-0.6-0.7-1.1-1.2c-0.4,0.5-0.9,0.8-1.4,1.2
		c-0.1-0.1-0.2-0.2-0.3-0.3c0.5-0.3,1-0.7,1.4-1.1c-0.4-0.4-0.9-0.8-1.2-1.1l0.2-0.2c0.4,0.3,0.8,0.7,1.2,1.1
		c0.3-0.4,0.7-0.8,0.9-1.2l0.3,0.1c-0.3,0.5-0.6,0.9-1,1.3c0.5,0.4,0.9,0.8,1.1,1.2L191.7,114.6z"/>
	<path d="M117.5,121.8c1.2-1,1.7-1.8,1.7-2.4c0-0.4-0.2-0.8-0.7-0.8c-0.3,0-0.6,0.2-0.8,0.4l-0.2-0.2c0.3-0.3,0.6-0.5,1.1-0.5
		c0.7,0,1.1,0.4,1.1,1.1c0,0.7-0.6,1.5-1.5,2.3c0.2,0,0.4,0,0.6,0h1.1v0.4h-2.3V121.8z"/>
	<path d="M120.1,120.2c0-1.3,0.4-1.9,1.1-1.9c0.7,0,1.1,0.6,1.1,1.9c0,1.3-0.4,1.9-1.1,1.9C120.6,122.1,120.1,121.5,120.1,120.2z
		 M122,120.2c0-1.1-0.3-1.6-0.7-1.6c-0.4,0-0.7,0.5-0.7,1.6c0,1.1,0.3,1.6,0.7,1.6C121.7,121.8,122,121.3,122,120.2z"/>
	<path d="M123,121.7h0.8v-2.8h-0.6v-0.3c0.3-0.1,0.5-0.1,0.7-0.3h0.3v3.3h0.7v0.3h-2V121.7z"/>
	<path d="M126.8,120.6c-0.1-0.2-0.2-0.4-0.4-0.7v2.5h-0.3v-2.4c-0.2,0.6-0.4,1.1-0.6,1.5c0-0.1-0.1-0.2-0.2-0.3
		c0.3-0.4,0.7-1.2,0.8-1.9h-0.7v-0.3h0.7v-1.1h0.3v1.1h0.5v0.3h-0.5v0.2c0.1,0.2,0.5,0.7,0.6,0.8L126.8,120.6z M127.8,120.9
		c-0.2,0.4-0.5,0.9-0.8,1.3c-0.1-0.1-0.2-0.2-0.2-0.2c0.3-0.3,0.5-0.8,0.7-1.1L127.8,120.9z M128.7,120.4v1.6c0,0.2,0,0.3-0.2,0.3
		c-0.1,0.1-0.4,0.1-0.7,0.1c0-0.1-0.1-0.2-0.1-0.3c0.3,0,0.5,0,0.6,0c0.1,0,0.1,0,0.1-0.1v-1.6h-0.6c-0.2,0-0.4,0-0.4,0.1
		c0-0.1-0.1-0.2-0.1-0.3c0.1,0,0.2-0.2,0.3-0.4c0.1-0.1,0.2-0.5,0.3-0.9H127v-0.3h0.8c0.1-0.2,0.1-0.5,0.2-0.7l0.3,0.1
		c-0.1,0.2-0.1,0.4-0.2,0.6h1.7v0.3h-1.8c-0.1,0.4-0.3,0.9-0.5,1.2h0.8v-0.8h0.3v0.8h1l0,0.3H128.7z M129.3,120.8
		c0.2,0.4,0.5,0.9,0.6,1.2l-0.3,0.1c-0.1-0.3-0.4-0.8-0.6-1.2L129.3,120.8z"/>
	<path d="M131.2,121.6l0.2-0.3c0.2,0.2,0.5,0.4,0.9,0.4c0.4,0,0.8-0.4,0.8-0.9c0-0.5-0.3-0.9-0.8-0.9c-0.3,0-0.4,0.1-0.6,0.2
		l-0.2-0.1l0.1-1.7h1.8v0.4H132l-0.1,1.1c0.2-0.1,0.3-0.2,0.6-0.2c0.6,0,1.1,0.4,1.1,1.2c0,0.8-0.6,1.3-1.2,1.3
		C131.8,122.1,131.5,121.9,131.2,121.6z"/>
	<path d="M134,120.2c0-1.3,0.4-1.9,1.1-1.9c0.7,0,1.1,0.6,1.1,1.9c0,1.3-0.4,1.9-1.1,1.9C134.4,122.1,134,121.5,134,120.2z
		 M135.8,120.2c0-1.1-0.3-1.6-0.7-1.6c-0.4,0-0.7,0.5-0.7,1.6c0,1.1,0.3,1.6,0.7,1.6C135.5,121.8,135.8,121.3,135.8,120.2z"/>
	<path d="M136.8,121.7h0.8v-2.8H137v-0.3c0.3-0.1,0.5-0.1,0.7-0.3h0.3v3.3h0.7v0.3h-2V121.7z"/>
	<path d="M143.7,122v0.3h-4.4V122h2v-0.7h-1.6V121h1.6v-0.6h0.3v0.6h1.6v0.3h-1.6v0.7H143.7z M139.7,119.2h-0.3v-0.9h2
		c-0.1-0.1-0.1-0.3-0.2-0.4l0.3-0.1c0.1,0.2,0.2,0.4,0.3,0.5h1.9v0.9h-0.3v-0.6h-3.6V119.2z M143,120.6c-0.1-0.1-0.2-0.2-0.3-0.3
		c-2.4,0.2-2.6,0.2-2.8,0.3c0-0.1-0.1-0.2-0.1-0.3c0.1,0,0.2-0.1,0.3-0.2c0.1-0.1,0.4-0.3,0.7-0.6h-1v-0.3h3.3v0.3h-1.8
		c-0.3,0.3-0.6,0.6-0.9,0.8l2-0.1c-0.1-0.1-0.3-0.3-0.4-0.4l0.2-0.2c0.3,0.3,0.8,0.7,1,0.9L143,120.6z"/>
</g>
</svg>
